<svg width="149" height="21" viewBox="0 0 149 21" fill="none" xmlns="http://www.w3.org/2000/svg">
<path d="M4.32733 12.1165C4.3362 10.3587 5.41042 9.32884 6.95517 9.32884C8.49103 9.32884 9.39657 10.3143 9.3877 11.9922V20H13.1697V11.3175C13.1785 8.12145 11.2964 6.18608 8.45552 6.18608C6.38699 6.18608 5.00204 7.16264 4.38059 8.76953H4.22079V1.81818H0.545366V20H4.32733V12.1165ZM16.146 20H19.9279V6.36364H16.146V20ZM18.0458 4.60582C19.1733 4.60582 20.0966 3.74467 20.0966 2.68821C20.0966 1.64062 19.1733 0.779473 18.0458 0.779473C16.9272 0.779473 16.0039 1.64062 16.0039 2.68821C16.0039 3.74467 16.9272 4.60582 18.0458 4.60582ZM22.9575 20H26.7394V12.2852C26.7394 10.6072 27.9646 9.45312 29.6336 9.45312C30.1574 9.45312 30.8765 9.5419 31.2316 9.65731V6.30149C30.8943 6.22159 30.4237 6.16832 30.042 6.16832C28.515 6.16832 27.2632 7.05611 26.7661 8.7429H26.624V6.36364H22.9575V20ZM38.7667 20.2663C42.1403 20.2663 44.413 18.6239 44.9457 16.0938L41.4478 15.8629C41.0661 16.9016 40.0895 17.4432 38.8288 17.4432C36.9379 17.4432 35.7393 16.1914 35.7393 14.1584V14.1495H45.0256V13.1108C45.0256 8.47656 42.2202 6.18608 38.6158 6.18608C34.603 6.18608 32.0018 9.03587 32.0018 13.244C32.0018 17.5675 34.5675 20.2663 38.7667 20.2663ZM35.7393 11.8058C35.8192 10.2521 37 9.00923 38.6779 9.00923C40.3203 9.00923 41.4567 10.1811 41.4656 11.8058H35.7393ZM54.8267 6.36364H52.119V5.44922C52.119 4.52592 52.4918 3.98438 53.6016 3.98438C54.0543 3.98438 54.516 4.08203 54.8178 4.17969L55.4837 1.33878C55.0131 1.19673 53.9744 0.965908 52.8114 0.965908C50.2457 0.965908 48.337 2.413 48.337 5.3782V6.36364H46.4105V9.20455H48.337V20H52.119V9.20455H54.8267V6.36364ZM57.1372 20H60.9191V6.36364H57.1372V20ZM59.037 4.60582C60.1645 4.60582 61.0878 3.74467 61.0878 2.68821C61.0878 1.64062 60.1645 0.779473 59.037 0.779473C57.9184 0.779473 56.9951 1.64062 56.9951 2.68821C56.9951 3.74467 57.9184 4.60582 59.037 4.60582ZM71.2019 6.36364H68.6362V3.09659H64.8542V6.36364H62.9899V9.20455H64.8542V16.3068C64.8365 18.979 66.6564 20.3018 69.3997 20.1864C70.3762 20.1509 71.0687 19.9556 71.4505 19.8313L70.8556 17.017C70.6692 17.0526 70.2697 17.1413 69.9146 17.1413C69.16 17.1413 68.6362 16.8572 68.6362 15.8097V9.20455H71.2019V6.36364Z" fill="#FD6A02"/>
<path d="M75.8761 20.2308C77.0124 20.2308 77.9979 19.2809 78.0067 18.1001C77.9979 16.9371 77.0124 15.9872 75.8761 15.9872C74.7042 15.9872 73.7365 16.9371 73.7454 18.1001C73.7365 19.2809 74.7042 20.2308 75.8761 20.2308ZM85.0003 20.2575C87.0155 20.2575 88.3206 19.3786 88.9864 18.109H89.093V20H92.6796V10.8026C92.6796 7.55327 89.9275 6.18608 86.8912 6.18608C83.6242 6.18608 81.4758 7.74858 80.952 10.2344L84.4498 10.5185C84.7073 9.61293 85.5152 8.94709 86.8735 8.94709C88.1608 8.94709 88.8976 9.59517 88.8976 10.7138V10.767C88.8976 11.646 87.9655 11.7614 85.5951 11.9922C82.8962 12.2408 80.4726 13.1463 80.4726 16.1914C80.4726 18.8903 82.3991 20.2575 85.0003 20.2575ZM86.0834 17.6474C84.9204 17.6474 84.0858 17.1058 84.0858 16.0671C84.0858 15.0018 84.9648 14.478 86.2964 14.2915C87.1221 14.1761 88.4715 13.9808 88.9243 13.679V15.1261C88.9243 16.5554 87.7435 17.6474 86.0834 17.6474ZM102.947 6.36364H100.239V5.44922C100.239 4.52592 100.612 3.98438 101.722 3.98438C102.174 3.98438 102.636 4.08203 102.938 4.17969L103.604 1.33878C103.133 1.19673 102.095 0.965908 100.932 0.965908C98.3659 0.965908 96.4571 2.413 96.4571 5.3782V6.36364H94.5306V9.20455H96.4571V20H100.239V9.20455H102.947V6.36364ZM105.257 20H109.039V12.2852C109.039 10.6072 110.264 9.45312 111.933 9.45312C112.457 9.45312 113.176 9.5419 113.531 9.65731V6.30149C113.194 6.22159 112.724 6.16832 112.342 6.16832C110.815 6.16832 109.563 7.05611 109.066 8.7429H108.924V6.36364H105.257V20ZM115.487 20H119.269V6.36364H115.487V20ZM117.387 4.60582C118.514 4.60582 119.437 3.74467 119.437 2.68821C119.437 1.64062 118.514 0.779473 117.387 0.779473C116.268 0.779473 115.345 1.64062 115.345 2.68821C115.345 3.74467 116.268 4.60582 117.387 4.60582ZM128.46 20.2663C132.091 20.2663 134.372 18.1357 134.55 15.0018H130.981C130.759 16.4577 129.8 17.2745 128.504 17.2745C126.737 17.2745 125.592 15.7919 125.592 13.1818C125.592 10.6072 126.746 9.13352 128.504 9.13352C129.889 9.13352 130.777 10.0479 130.981 11.4062H134.55C134.39 8.25462 132.002 6.18608 128.442 6.18608C124.305 6.18608 121.748 9.05362 121.748 13.2351C121.748 17.381 124.26 20.2663 128.46 20.2663ZM140.86 20.2575C142.875 20.2575 144.18 19.3786 144.846 18.109H144.952V20H148.539V10.8026C148.539 7.55327 145.787 6.18608 142.751 6.18608C139.484 6.18608 137.335 7.74858 136.811 10.2344L140.309 10.5185C140.567 9.61293 141.375 8.94709 142.733 8.94709C144.02 8.94709 144.757 9.59517 144.757 10.7138V10.767C144.757 11.646 143.825 11.7614 141.454 11.9922C138.756 12.2408 136.332 13.1463 136.332 16.1914C136.332 18.8903 138.258 20.2575 140.86 20.2575ZM141.943 17.6474C140.78 17.6474 139.945 17.1058 139.945 16.0671C139.945 15.0018 140.824 14.478 142.156 14.2915C142.981 14.1761 144.331 13.9808 144.784 13.679V15.1261C144.784 16.5554 143.603 17.6474 141.943 17.6474Z" fill="black"/>
</svg>
