<svg width="216" height="190" viewBox="0 0 216 190" fill="none" xmlns="http://www.w3.org/2000/svg">
<path d="M111.02 138.748H196.603L198.383 107.947H109.24L111.02 138.748Z" fill="#EBEBEB"/>
<path d="M192.547 122.048H156.764L156.095 111.354H193.329L192.547 122.048ZM157.175 121.669H192.141L192.867 111.733H156.553L157.175 121.669Z" fill="#DBDBDB"/>
<path d="M191.885 134.348H158.168L157.619 124.696H192.572L191.885 134.348ZM158.578 133.969H191.479L192.114 125.075H158.073L158.578 133.969Z" fill="#DBDBDB"/>
<path d="M178.101 117.853H172.087L171.711 115.272H178.481L178.101 117.853ZM172.485 117.474H177.738L178.006 115.651H172.217L172.485 117.474Z" fill="#DBDBDB"/>
<path d="M178.101 130.813H172.087L171.711 128.232H178.481L178.101 130.813ZM172.485 130.434H177.738L178.006 128.611H172.217L172.485 130.434Z" fill="#DBDBDB"/>
<path d="M150.461 122.048H114.679L114.009 111.354H151.243L150.461 122.048ZM115.089 121.669H150.055L150.768 111.733H114.48L115.089 121.669Z" fill="#DBDBDB"/>
<path d="M149.8 134.348H116.083L115.534 124.696H150.487L149.8 134.348ZM116.493 133.969H149.394L150.029 125.075H115.988L116.493 133.969Z" fill="#DBDBDB"/>
<path d="M136.015 117.853H130.002L129.626 115.272H136.395L136.015 117.853ZM130.399 117.474H135.648L135.916 115.651H130.127L130.399 117.474Z" fill="#DBDBDB"/>
<path d="M136.015 130.813H130.002L129.626 128.232H136.395L136.015 130.813ZM130.399 130.434H135.648L135.916 128.611H130.127L130.399 130.434Z" fill="#DBDBDB"/>
<path d="M118.696 138.748L118.156 142.105L117.076 148.847H114.964V138.748H118.696Z" fill="#EBEBEB"/>
<path d="M118.696 138.748L118.156 142.105H114.964V138.748H118.696Z" fill="#DBDBDB"/>
<path d="M188.926 138.748L189.462 142.105L190.546 148.847H192.659V138.748H188.926Z" fill="#EBEBEB"/>
<path d="M188.926 138.748L189.462 142.105H192.659V138.748H188.926Z" fill="#DBDBDB"/>
<path d="M108 179.208C151.051 179.208 185.95 175.219 185.95 170.299C185.95 165.379 151.051 161.39 108 161.39C64.9492 161.39 30.0498 165.379 30.0498 170.299C30.0498 175.219 64.9492 179.208 108 179.208Z" fill="#EBEBEB"/>
<path d="M36.4953 160.549C49.3838 160.549 59.832 158.353 59.832 155.645C59.832 152.937 49.3838 150.741 36.4953 150.741C23.6069 150.741 13.1587 152.937 13.1587 155.645C13.1587 158.353 23.6069 160.549 36.4953 160.549Z" fill="#EBEBEB"/>
<path d="M14.4287 148.847L37.8215 148.756L61.2143 148.722L108 148.661L154.785 148.722L178.178 148.756L201.571 148.847L178.178 148.942L154.785 148.976L108 149.037L61.2143 148.976L37.8215 148.942L14.4287 148.847Z" fill="#263238"/>
<path d="M37.1824 83.2207C37.1824 83.2207 25.5659 81.7958 28.2788 69.4914C28.2788 69.4914 41.2604 72.0493 37.1824 83.2207Z" fill="#FEC7A0"/>
<path opacity="0.1" d="M37.1824 83.2207C37.1824 83.2207 25.5659 81.7958 28.2788 69.4914C28.2788 69.4914 41.2604 72.0493 37.1824 83.2207Z" fill="black"/>
<path d="M36.5948 80.6514C36.3679 80.0296 36.104 79.4187 35.8042 78.8211C35.8042 78.7415 35.8042 78.6619 35.774 78.5861C35.774 78.4156 35.7394 78.2489 35.7265 78.0784C35.6919 77.6994 35.666 77.3432 35.6401 76.9756C35.5925 76.2405 35.5407 75.5053 35.5277 74.7701C35.5277 74.7285 35.4543 74.7323 35.4543 74.7701C35.4543 75.5091 35.4543 76.2443 35.4543 76.9794C35.4543 77.3584 35.4975 77.7146 35.5234 78.0821C35.5234 78.1655 35.5234 78.2451 35.5234 78.3285C34.8705 77.1031 34.0896 75.9335 33.1906 74.8346C32.8119 74.3448 32.4038 73.873 31.9681 73.4211C31.5058 72.955 31.0177 72.5116 30.5468 72.0531C30.5166 72.0228 30.469 72.0531 30.4993 72.0986C31.3334 72.9079 32.0824 73.7818 32.737 74.7095C33.0913 75.1756 33.4239 75.6569 33.7436 76.1457L33.6356 76.1116L33.2036 75.9638L32.2532 75.6493C31.6311 75.4447 31.009 75.2476 30.3869 75.0392C30.3481 75.0392 30.3222 75.0847 30.361 75.096C30.9788 75.312 31.5879 75.5394 32.2013 75.7706L33.0999 76.1116L33.5535 76.2746C33.6508 76.3173 33.7539 76.3491 33.8602 76.3693C34.0935 76.7483 34.3268 77.1082 34.5428 77.4872C35.0816 78.4404 35.5547 79.4211 35.9597 80.424C35.99 80.4922 36.0159 80.5642 36.0461 80.6362C35.7393 80.4814 35.4203 80.3459 35.0914 80.2308L33.8905 79.7533C33.074 79.4236 32.2661 79.0901 31.4842 78.7036C31.4762 78.6996 31.4667 78.6985 31.4578 78.7007C31.4489 78.7028 31.4413 78.708 31.4367 78.715C31.4321 78.722 31.4309 78.7304 31.4333 78.7382C31.4358 78.746 31.4417 78.7527 31.4497 78.7567C32.2489 79.1356 33.0308 79.5487 33.83 79.9276C34.2317 80.1171 34.6335 80.3066 35.0439 80.4771C35.3816 80.6532 35.7491 80.7811 36.1325 80.856C36.5223 81.7885 36.7792 82.7597 36.8972 83.7474C37.0268 85.1381 37.0138 86.5402 37.0527 87.9348H37.0916C37.2082 86.6691 37.273 85.392 37.2817 84.1226C37.2647 82.9408 37.0328 81.769 36.5948 80.6514Z" fill="#263238"/>
<path d="M34.8061 73.4173C34.6939 74.1366 34.6549 74.8633 34.6894 75.5886C34.6894 75.6076 34.724 75.6076 34.724 75.5886C34.7715 74.8686 34.7801 74.1486 34.8752 73.4324C34.8795 73.3945 34.8104 73.3794 34.8061 73.4173Z" fill="#263238"/>
<path d="M31.4843 74.035C30.9649 73.8603 30.4647 73.6446 29.9896 73.3908C29.9507 73.368 29.9162 73.4249 29.955 73.4438C30.4205 73.7194 30.93 73.9327 31.467 74.0767C31.493 74.0843 31.5362 74.0464 31.4843 74.035Z" fill="#263238"/>
<path d="M37.5539 102.752C37.5539 101.615 37.5193 100.501 37.5064 99.3752C37.4804 95.635 37.4459 91.8948 37.3681 88.1546C37.3076 85.1836 37.2284 82.2152 37.1305 79.2493C37.1302 79.2416 37.1277 79.234 37.1232 79.2274C37.1186 79.2208 37.1122 79.2153 37.1046 79.2114C37.1046 78.4004 37.1046 77.5895 37.1046 76.7785C37.1046 76.7558 37.0787 76.7482 37.0484 76.7482C37.0182 76.7482 36.9923 76.7482 36.9966 76.7785C36.9966 77.592 36.9966 78.4042 36.9966 79.2152C36.9966 79.2152 36.9664 79.2341 36.9664 79.2493C36.7979 84.5546 36.6467 89.8181 36.6078 95.1045C36.6078 96.1807 36.6078 97.2531 36.6078 98.3293C36.5646 101.773 36.5488 105.219 36.5603 108.667C36.5603 109.213 36.5603 109.762 36.5603 110.312C36.5603 113.464 36.5992 116.617 36.5992 119.785C36.5992 119.952 36.8152 120.039 37.0312 120.047C37.2472 120.054 37.5712 119.963 37.5712 119.77C37.5712 116.295 37.5971 112.816 37.5971 109.342C37.5841 107.136 37.5841 104.942 37.5539 102.752Z" fill="#263238"/>
<path d="M32.7023 99.3297C32.7023 99.3297 27.1122 95.6994 21.8116 98.1474C16.5109 100.595 15.6729 110.061 15.6729 110.061C15.6729 110.061 23.4489 111.039 28.365 106.943C33.0911 103.002 32.7023 99.3297 32.7023 99.3297Z" fill="#FEC7A0"/>
<path d="M34.2229 99.5533C33.1966 99.1944 32.0849 99.0642 30.9872 99.1743C30.7617 99.1391 30.5336 99.1189 30.3046 99.1137L29.5141 99.0606L27.8854 98.9621C26.7838 98.8901 25.6779 98.8295 24.5763 98.731C24.5687 98.7333 24.5621 98.7376 24.5574 98.7434C24.5527 98.7492 24.5502 98.7561 24.5502 98.7632C24.5502 98.7702 24.5527 98.7772 24.5574 98.7829C24.5621 98.7887 24.5687 98.793 24.5763 98.7954C25.665 98.9166 26.7363 99.0531 27.8379 99.1478C28.3995 99.1971 28.9611 99.2501 29.527 99.2842L29.9331 99.3183C29.769 99.3524 29.6005 99.3865 29.4363 99.4282C28.5596 99.6521 27.7113 99.9543 26.9048 100.33C26.4728 100.398 26.0408 100.508 25.6088 100.595C24.9176 100.739 24.2307 100.895 23.5438 101.054C22.1874 101.365 20.8438 101.717 19.496 102.062C19.4528 102.062 19.4744 102.13 19.496 102.119C20.8395 101.831 22.196 101.565 23.5438 101.285L25.5051 100.872L26.0192 100.766C24.5198 101.584 23.1794 102.607 22.0491 103.797C20.9613 104.972 20.0362 106.255 19.293 107.621C19.293 107.655 19.3275 107.689 19.3534 107.655C20.2734 106.259 21.3959 104.974 22.6928 103.832C22.6669 103.896 22.6453 103.964 22.6194 104.029L22.3083 104.893C22.101 105.472 21.8763 106.048 21.6949 106.628C21.6949 106.666 21.751 106.678 21.764 106.628C22.0016 106.067 22.2262 105.491 22.4509 104.942C22.5589 104.665 22.6712 104.392 22.7792 104.116C22.8397 103.972 22.8958 103.828 22.9477 103.684C22.9477 103.642 22.9866 103.597 23.0038 103.551C23.6266 103.021 24.2875 102.526 24.9824 102.069C25.9051 101.477 26.9006 100.978 27.9502 100.58C27.9502 100.664 27.9157 100.751 27.8941 100.83C27.8379 101.054 27.7818 101.277 27.7299 101.501C27.6219 101.963 27.5182 102.429 27.4146 102.896C27.2029 103.843 27.0733 104.79 26.8702 105.753C26.8702 105.795 26.9307 105.81 26.9394 105.753C27.1899 104.798 27.5139 103.858 27.7558 102.903C27.8768 102.426 27.9978 101.948 28.1144 101.471L28.2699 100.796C28.2958 100.671 28.3304 100.546 28.3477 100.417L28.6501 100.307C30.1146 99.8299 31.7346 99.4851 33.2984 99.7503C34.0381 99.8705 34.7325 100.149 35.3196 100.562C35.9068 100.974 36.3685 101.508 36.6637 102.115C36.7155 102.221 36.9056 102.153 36.8754 102.043C36.573 100.883 35.4541 100.008 34.2229 99.5533Z" fill="#263238"/>
<path d="M25.6692 103.593C25.5137 104.214 25.3539 104.836 25.1984 105.457C25.0218 106.053 24.8919 106.658 24.8096 107.269C24.8096 107.295 24.8441 107.295 24.8528 107.269C25.0585 106.671 25.2173 106.062 25.328 105.446C25.4662 104.832 25.6044 104.218 25.7384 103.604C25.747 103.57 25.6779 103.555 25.6692 103.593Z" fill="#263238"/>
<path d="M20.2649 105.173C19.5521 105.488 18.8653 105.848 18.1049 106.109C18.1007 106.111 18.0968 106.113 18.0935 106.116C18.0903 106.118 18.0876 106.122 18.0858 106.125C18.084 106.129 18.0831 106.133 18.083 106.137C18.083 106.141 18.0838 106.145 18.0855 106.149C18.0872 106.153 18.0897 106.156 18.0929 106.159C18.0961 106.162 18.0999 106.164 18.1042 106.166C18.1084 106.167 18.1129 106.168 18.1175 106.168C18.1221 106.168 18.1266 106.167 18.1309 106.166C18.8745 105.877 19.5999 105.553 20.3038 105.196C20.3038 105.196 20.3038 105.166 20.2649 105.173Z" fill="#263238"/>
<path d="M33.9596 92.6602C33.9596 92.6602 27.1297 93.0392 23.9502 89.0943C20.7706 85.1495 21.4878 79.4994 21.4878 79.4994C21.4878 79.4994 28.6633 80.2573 31.5102 83.1032C34.357 85.9491 33.9596 92.6602 33.9596 92.6602Z" fill="#FEC7A0"/>
<path d="M37.1517 98.5718C36.9141 97.9314 36.6204 97.2985 36.3439 96.6771C36.0674 96.0556 35.7952 95.472 35.4799 94.8809C34.8716 93.6735 34.1895 92.4958 33.4365 91.3529C32.9527 90.6253 32.4343 89.9166 31.9029 89.2194C31.9029 89.1133 31.8684 89.0072 31.8511 88.9011C31.8208 88.7154 31.7906 88.5221 31.756 88.344C31.6869 87.9651 31.6135 87.5861 31.54 87.2072C31.3845 86.3773 31.1901 85.555 31.0389 84.7289C31.0389 84.691 30.9612 84.691 30.9698 84.7289C31.1037 85.5474 31.1988 86.3697 31.3284 87.1882C31.3932 87.5899 31.4536 87.9916 31.5228 88.3933L31.6005 88.8291C30.5588 87.4916 29.4309 86.2074 28.2223 84.9828L27.7514 84.5053C27.7514 84.4598 27.7082 84.4143 27.6866 84.3689C27.6348 84.2552 27.5872 84.1415 27.5397 84.024C27.436 83.7891 27.341 83.5503 27.2416 83.3116C27.0516 82.8417 26.8788 82.368 26.7319 81.8868C26.7319 81.8489 26.6541 81.8678 26.6671 81.8868C26.8053 82.3794 26.9479 82.8682 27.0991 83.3533C27.1812 83.5882 27.2676 83.8194 27.3626 84.0505C27.3626 84.0884 27.3928 84.1263 27.4101 84.1642C26.5461 83.3305 25.626 82.5272 24.7058 81.7314C24.6756 81.7049 24.628 81.7314 24.6583 81.7769C26.4231 83.3967 28.0408 85.135 29.4967 86.976C29.331 86.9301 29.1622 86.8933 28.9912 86.8661C28.4642 86.7752 27.9372 86.7108 27.4058 86.6501C26.2912 86.5251 25.181 86.4038 24.0751 86.2484C24.0276 86.2484 24.0103 86.3015 24.0751 86.3091C25.1335 86.491 26.1789 86.688 27.233 86.9154C27.7298 87.0139 28.2266 87.0973 28.7234 87.1844C29.1309 87.2606 29.5321 87.3606 29.9244 87.4838C30.0324 87.624 30.149 87.7604 30.257 87.9006C30.7581 88.5373 31.2376 89.1929 31.7085 89.8484L31.013 89.731C30.486 89.64 29.9546 89.5566 29.4276 89.4809C28.3864 89.3293 27.341 89.1701 26.3128 88.9655C26.2696 88.9655 26.2524 89.0185 26.3128 89.0261C27.3583 89.2421 28.3908 89.4922 29.4276 89.7348C29.9287 89.8522 30.4341 89.9583 30.9396 90.0569L31.6956 90.2009C31.7974 90.2243 31.9016 90.2395 32.0066 90.2463C33.0045 91.6636 33.9376 93.1188 34.806 94.6004C35.1861 95.2522 35.5533 95.9116 35.9076 96.571C36.2618 97.2303 36.5858 97.9465 36.9228 98.6362C36.9703 98.7802 37.2165 98.7234 37.1517 98.5718Z" fill="#263238"/>
<path d="M30.1707 84.8047C30.0411 84.2324 29.9029 83.6678 29.7387 83.0918C29.7387 83.0539 29.661 83.0729 29.6696 83.0918C29.7992 83.6527 29.9245 84.2287 30.0411 84.7781C30.1364 85.3431 30.2648 85.9034 30.4256 86.4569C30.3849 85.9016 30.2997 85.3495 30.1707 84.8047Z" fill="#263238"/>
<path d="M26.1878 84.638C25.8724 84.4977 25.5354 84.3879 25.2071 84.259L24.6887 84.0809L24.4252 83.99C24.3243 83.9615 24.2272 83.9233 24.1358 83.8763C24.0839 83.8459 24.0537 83.9217 24.1055 83.9293C24.2068 83.9535 24.3041 83.9892 24.395 84.0354L24.6542 84.1377L25.1553 84.331C25.4826 84.4657 25.8187 84.5834 26.1618 84.6834C26.2007 84.71 26.2266 84.6531 26.1878 84.638Z" fill="#263238"/>
<path d="M40.9492 87.9499C40.9492 87.9499 45.0835 81.1781 51.3691 80.1285C57.6547 79.0788 61.5081 84.7554 61.5081 84.7554C61.5081 84.7554 56.9203 89.8939 51.1401 90.792C45.3599 91.6901 40.9492 87.9499 40.9492 87.9499Z" fill="#FEC7A0"/>
<path d="M55.5852 83.1638C53.9467 82.969 52.2844 82.9869 50.6518 83.2169L50.9326 83.0842L52.3279 82.4552C53.2866 81.9902 54.2714 81.5677 55.2785 81.1895C55.326 81.1706 55.2785 81.1137 55.2526 81.1327C54.2676 81.5343 53.2481 81.8906 52.2631 82.2695C51.7663 82.4666 51.2825 82.675 50.803 82.8986C50.4919 83.0426 50.1506 83.179 49.8439 83.3533C48.4627 83.5963 47.1207 83.987 45.8479 84.5167L46.6342 83.7588C47.2174 83.1941 47.7963 82.603 48.4399 82.0914C48.4745 82.0649 48.4399 82.0232 48.3881 82.0497C47.7315 82.5727 47.0359 83.0577 46.3966 83.6034C46.0899 83.8687 45.7918 84.1415 45.5023 84.4257C45.3598 84.5659 45.2129 84.7099 45.0703 84.8615C42.9108 85.8757 41.0345 87.2973 39.5763 89.0239C38.1182 90.7505 37.1146 92.7391 36.6377 94.8468C36.6377 94.8847 36.6939 94.9036 36.7068 94.8657C37.5924 92.284 39.1786 89.9291 41.3292 88.003C43.647 85.9386 46.5623 84.4674 49.7619 83.7474C51.6598 83.3232 53.6226 83.1671 55.5766 83.2851C55.5949 83.2861 55.6129 83.2807 55.6267 83.27C55.6405 83.2593 55.6489 83.2443 55.65 83.2282C55.6512 83.2122 55.645 83.1963 55.6328 83.1843C55.6207 83.1722 55.6035 83.1648 55.5852 83.1638Z" fill="#263238"/>
<path opacity="0.1" d="M61.5081 84.7554C61.5081 84.7554 56.9203 89.8939 51.1401 90.792C46.738 91.4741 43.1178 89.4619 41.6361 88.4691L41.3164 88.0106C41.3164 88.0106 44.2929 85.8127 49.9262 84.5432C55.5595 83.2737 61.5081 84.7554 61.5081 84.7554Z" fill="black"/>
<path d="M51.9306 80.7499C51.4494 80.9969 50.9836 81.2663 50.5353 81.5571C50.0984 81.8494 49.6922 82.1753 49.3214 82.531C49.3166 82.5377 49.3146 82.5458 49.3158 82.5536C49.317 82.5615 49.3213 82.5688 49.3279 82.5742C49.3346 82.5796 49.3432 82.5828 49.3523 82.5832C49.3613 82.5836 49.3703 82.5812 49.3775 82.5765C49.8095 82.2582 50.2113 81.9398 50.6476 81.6405C51.0678 81.3373 51.5093 81.0576 51.9695 80.803C51.9735 80.8008 51.9769 80.7978 51.9796 80.7944C51.9823 80.791 51.9842 80.7872 51.9852 80.7832C51.9862 80.7791 51.9863 80.7749 51.9855 80.7709C51.9846 80.7668 51.9829 80.7629 51.9803 80.7594C51.9778 80.7559 51.9745 80.7529 51.9706 80.7506C51.9667 80.7482 51.9623 80.7465 51.9577 80.7457C51.9531 80.7448 51.9483 80.7447 51.9437 80.7454C51.939 80.7462 51.9346 80.7477 51.9306 80.7499Z" fill="#263238"/>
<path d="M55.3825 81.8944C55.1492 81.9815 54.9116 82.0535 54.6784 82.1407L53.9785 82.3946C53.931 82.3946 53.9526 82.4855 54.0044 82.4666L54.7043 82.2165C54.9419 82.1331 55.1708 82.0384 55.4041 81.955C55.4473 81.9399 55.4257 81.8792 55.3825 81.8944Z" fill="#263238"/>
<path d="M40.124 96.4725C40.124 96.4725 41.2299 103.191 46.9885 105.541C52.7471 107.89 59.7671 105.541 59.7671 105.541C59.7671 105.541 57.0239 91.0081 40.124 96.4725Z" fill="#FEC7A0"/>
<path d="M55.797 101.179C55.27 101.126 54.7386 101.046 54.2159 100.963L53.4383 100.834L53.0366 100.762C52.881 100.637 52.7298 100.508 52.57 100.383C51.4763 99.5428 50.2962 98.7931 49.0449 98.1436C48.3644 97.7899 47.6605 97.4723 46.9367 97.1925H47.0447L48.9412 97.2645C50.2026 97.3175 51.4684 97.3402 52.7298 97.4122C52.7774 97.4122 52.773 97.3554 52.7298 97.3516C51.4598 97.2758 50.1983 97.1546 48.9326 97.0598L47.0922 96.9158L46.1418 96.8438L45.8999 96.8211C45.5716 96.7112 45.2433 96.6089 44.9063 96.5179C43.3366 96.0453 41.6483 95.9639 40.029 96.283C38.5818 96.6089 37.1346 97.4426 36.7588 98.7803C36.7588 98.8257 36.8279 98.8598 36.8495 98.8144C37.3895 97.6775 38.8065 97.128 40.0852 96.8969C40.9402 96.7546 41.8164 96.7392 42.6772 96.8514C42.7353 97.1975 42.8322 97.5377 42.9666 97.867C43.1265 98.3407 43.282 98.8144 43.4462 99.2842C43.7745 100.228 44.133 101.179 44.4527 102.107C44.4527 102.115 44.4564 102.123 44.4628 102.129C44.4693 102.135 44.4781 102.138 44.4873 102.138C44.4964 102.138 44.5052 102.135 44.5117 102.129C44.5182 102.123 44.5218 102.115 44.5218 102.107C44.254 101.164 44.025 100.213 43.7658 99.2653C43.6406 98.803 43.5066 98.3407 43.377 97.8784C43.3018 97.5554 43.2051 97.2365 43.0876 96.9234C43.5921 97.0006 44.0912 97.103 44.5823 97.2303C45.4657 97.4623 46.3315 97.7433 47.1743 98.0716C47.2564 98.5491 47.3817 99.0228 47.507 99.4965C47.6625 100.088 47.8396 100.675 48.0513 101.255C48.0537 101.261 48.0581 101.266 48.0639 101.269C48.0697 101.273 48.0766 101.275 48.0837 101.275C48.0907 101.275 48.0976 101.273 48.1034 101.269C48.1092 101.266 48.1136 101.261 48.1161 101.255L48.0902 101.145C47.9606 100.595 47.8223 100.046 47.6884 99.4965C47.5847 99.0531 47.4854 98.6097 47.3774 98.1701C48.0946 98.4497 48.7954 98.7608 49.4769 99.1023C49.4769 99.2388 49.5287 99.379 49.5503 99.504C49.5935 99.7314 49.641 99.9626 49.6886 100.194C49.7966 100.709 49.9132 101.228 50.0558 101.74C50.3164 102.731 50.6468 103.706 51.045 104.662C51.0401 104.667 51.0375 104.674 51.0375 104.68C51.0375 104.687 51.0401 104.694 51.045 104.699L51.0796 104.734C51.1055 104.76 51.1444 104.734 51.1358 104.703C50.8722 103.707 50.5655 102.718 50.315 101.721C50.194 101.221 50.0687 100.72 49.9521 100.205C49.8959 99.955 49.8441 99.7049 49.7879 99.4472L49.749 99.2236C50.5247 99.6223 51.2733 100.06 51.9911 100.535C53.2342 101.351 54.3843 102.271 55.4255 103.282C55.4644 103.324 55.5465 103.282 55.5076 103.222C55.0801 102.712 54.623 102.223 54.1382 101.755C53.8487 101.482 53.5463 101.217 53.2396 100.959H53.3346C53.6068 101.001 53.8746 101.035 54.1468 101.065C54.6782 101.13 55.2138 101.175 55.7495 101.228C55.8273 101.236 55.8446 101.179 55.797 101.179Z" fill="#263238"/>
<path d="M51.7535 103.453C51.7535 103.396 51.7535 103.335 51.719 103.278C51.6844 103.222 51.6628 103.134 51.6498 103.059C51.5332 102.608 51.4338 102.157 51.3388 101.702C51.3388 101.672 51.2783 101.679 51.2783 101.702C51.3134 102.303 51.4593 102.896 51.7103 103.456C51.7103 103.475 51.7578 103.456 51.7535 103.456V103.453Z" fill="#263238"/>
<path d="M46.9321 103.343C46.9321 103.343 46.9321 103.312 46.8976 103.312C46.7334 102.718 46.5779 102.123 46.4397 101.524C46.3662 101.209 46.2928 100.895 46.2237 100.58C46.1848 100.41 46.1502 100.239 46.1157 100.069C46.1006 99.9185 46.0583 99.7714 45.9904 99.6329C45.9879 99.6271 45.9835 99.6221 45.9777 99.6186C45.9719 99.6151 45.965 99.6132 45.958 99.6132C45.9509 99.6132 45.944 99.6151 45.9382 99.6186C45.9325 99.6221 45.928 99.6271 45.9256 99.6329C45.921 99.9384 45.9706 100.243 46.0725 100.535C46.1416 100.861 46.215 101.19 46.2971 101.516C46.4656 102.179 46.6513 102.839 46.8673 103.491C46.87 103.497 46.875 103.503 46.8815 103.507C46.8881 103.511 46.896 103.513 46.9041 103.513C46.9121 103.513 46.92 103.511 46.9266 103.507C46.9332 103.503 46.9381 103.497 46.9408 103.491L46.9321 103.343Z" fill="#263238"/>
<path d="M55.2962 99.2353C54.2421 99.1101 53.1924 98.9774 52.1383 98.856C52.0951 98.856 52.0778 98.9129 52.1383 98.9167C53.188 99.0532 54.2421 99.167 55.2962 99.2959C55.2962 99.3035 55.3178 99.2428 55.2962 99.2353Z" fill="#263238"/>
<path d="M37.1733 80.7158C37.1733 80.7158 33.6482 67.1571 50.2586 61.6661C50.2586 61.6661 54.8637 79.5183 37.1733 80.7158Z" fill="#FEC7A0"/>
<path d="M40.7591 73.027L40.9362 72.9322L41.878 72.4699L43.8047 71.5263C45.0705 70.9011 46.3233 70.2569 47.5977 69.6316C47.6409 69.6316 47.5976 69.5596 47.5631 69.5786C46.2671 70.1887 44.9711 70.7609 43.6967 71.3558L41.7916 72.2388L41.014 72.6177C41.5669 71.6969 42.1588 70.795 42.8111 69.9234C43.6751 68.76 44.6298 67.6497 45.6191 66.5735C45.6294 66.564 45.635 66.5512 45.6346 66.5381C45.6342 66.5249 45.6278 66.5124 45.6169 66.5034C45.606 66.4944 45.5915 66.4895 45.5765 66.4898C45.5615 66.4902 45.5473 66.4957 45.537 66.5053C44.0784 67.7467 42.7896 69.1329 41.6965 70.6358C41.6965 70.5866 41.6965 70.5373 41.6965 70.4918C41.6965 70.1546 41.7268 69.8173 41.7311 69.48C41.7311 68.8169 41.7052 68.1537 41.7311 67.4943C41.7311 67.4527 41.662 67.4565 41.6577 67.4943C41.6274 68.1461 41.5367 68.7979 41.4935 69.4497C41.4935 69.7718 41.4589 70.0977 41.446 70.4236C41.446 70.5979 41.446 70.8026 41.446 70.992C41.1061 71.4695 40.7793 71.9533 40.4653 72.4434C39.9086 73.3275 39.4124 74.2398 38.9793 75.1756C38.9793 74.8384 38.9404 74.5011 38.9188 74.1638C38.8669 73.4059 38.7676 72.6821 38.7287 71.9394C38.7287 71.9314 38.7251 71.9237 38.7186 71.918C38.7121 71.9123 38.7033 71.9091 38.6941 71.9091C38.685 71.9091 38.6762 71.9123 38.6697 71.918C38.6632 71.9237 38.6596 71.9314 38.6596 71.9394C38.6596 72.6973 38.6596 73.4249 38.6596 74.1676C38.6596 74.5466 38.6855 74.9255 38.7114 75.2817C38.7114 75.4181 38.7114 75.5584 38.7417 75.6948C38.2135 76.9071 37.7946 78.1538 37.4889 79.4236C37.2007 80.7786 36.9945 82.146 36.8711 83.52C36.8711 83.52 36.8711 83.52 36.8711 83.52C37.0385 82.284 37.3276 81.0631 37.7351 79.8708C37.9381 79.2304 38.1671 78.5937 38.3917 77.976C39.0829 77.6918 39.7439 77.3356 40.4092 77.0097L42.4957 76.0093C43.8825 75.3424 45.2648 74.664 46.6948 74.0767C46.7336 74.0767 46.6948 74.0047 46.6559 74.0236C45.2087 74.5958 43.7485 75.1605 42.3359 75.7706C41.6274 76.0851 40.9319 76.4186 40.2407 76.7596C39.6661 77.0438 39.07 77.328 38.5127 77.6577C38.6725 77.2333 38.841 76.8127 39.0268 76.3996C39.5365 75.2496 40.1147 74.1238 40.7591 73.027Z" fill="#263238"/>
<path d="M39.3596 69.9234C39.3569 69.9167 39.352 69.9109 39.3454 69.9068C39.3388 69.9027 39.3309 69.9005 39.3229 69.9005C39.3148 69.9005 39.3069 69.9027 39.3003 69.9068C39.2937 69.9109 39.2888 69.9167 39.2861 69.9234C39.3466 70.6813 39.3769 71.4695 39.4719 72.2426C39.4719 72.2516 39.476 72.2603 39.4833 72.2667C39.4906 72.2731 39.5005 72.2767 39.5108 72.2767C39.5211 72.2767 39.531 72.2731 39.5383 72.2667C39.5456 72.2603 39.5497 72.2516 39.5497 72.2426C39.5194 71.4695 39.4244 70.7003 39.3596 69.9234Z" fill="#263238"/>
<path d="M47.3209 72.5154C46.2841 72.8944 45.2344 73.2316 44.1976 73.6106C44.1716 73.6106 44.1976 73.6636 44.1976 73.6522C45.2473 73.3074 46.2798 72.9323 47.3252 72.576C47.3857 72.5609 47.3641 72.5003 47.3209 72.5154Z" fill="#263238"/>
<path d="M48.9022 66.259C47.8853 66.6683 46.8984 67.1328 45.9473 67.6497C45.9404 67.6564 45.9362 67.6648 45.9353 67.6738C45.9343 67.6827 45.9367 67.6917 45.942 67.6994C45.9474 67.7071 45.9554 67.713 45.9649 67.7164C45.9744 67.7197 45.9849 67.7203 45.9948 67.7179C46.9582 67.2215 47.9388 66.7478 48.9368 66.312C48.98 66.3158 48.9411 66.2438 48.9022 66.259Z" fill="#263238"/>
<path d="M48.6473 110.043H24.6929V132.192H48.6473V110.043Z" fill="#455A64"/>
<path d="M24.2742 117.883H23.0474V155.823H24.2742V117.883Z" fill="#263238"/>
<path d="M50.1722 117.883H48.9453V155.823H50.1722V117.883Z" fill="#263238"/>
<path d="M37.8734 117.883H36.6465V155.823H37.8734V117.883Z" fill="#263238"/>
<path d="M49.559 130.775H23.6606V133.84H49.559V130.775Z" fill="#263238"/>
<path d="M144.992 143.432C144.992 143.432 144.992 159.753 144.992 159.764C144.992 162.883 144.962 165.619 144.785 167.032C144.787 167.036 144.788 167.04 144.788 167.044C144.788 167.048 144.787 167.052 144.785 167.055C144.785 167.391 144.696 167.721 144.526 168.022L144.504 168.04C143.45 168.673 115.024 169.53 114.022 169.264C113.02 168.999 113.793 166.475 114.886 165.668C115.979 164.861 126.68 160.268 126.68 160.268L126.857 143.955L144.992 143.432Z" fill="#AD6359"/>
<path d="M144.988 156.411V159.764C144.988 162.883 144.958 165.619 144.78 167.032C144.783 167.036 144.784 167.04 144.784 167.044C144.784 167.048 144.783 167.052 144.78 167.055C144.736 167.385 144.649 167.709 144.521 168.021L144.5 168.04C143.446 168.673 115.02 169.53 114.018 169.264C113.016 168.999 113.789 166.475 114.882 165.668C115.975 164.861 126.675 160.268 126.675 160.268L126.624 156.858L144.988 156.411Z" fill="#C7C7C7"/>
<path d="M114.018 169.264C115.02 169.53 143.446 168.677 144.504 168.04C144.91 167.805 145.009 164.164 144.988 159.764V159.624L126.641 160.003L126.662 160.276C126.662 160.276 115.949 164.872 114.869 165.68C113.789 166.487 113.011 169.011 114.018 169.264Z" fill="#263238"/>
<path d="M114.298 168.291C119.089 168.04 138.426 167.442 143.178 167.533C143.217 167.533 143.217 167.555 143.178 167.559C138.426 167.893 119.098 168.359 114.303 168.374C114.203 168.359 114.199 168.294 114.298 168.291Z" fill="#455A64"/>
<path d="M125.116 160.363C126.991 159.984 129.307 160.181 130.793 161.318C130.853 161.363 130.793 161.432 130.719 161.416C128.897 160.961 127.024 160.678 125.134 160.571C125.105 160.569 125.079 160.558 125.059 160.54C125.039 160.522 125.027 160.498 125.025 160.474C125.023 160.449 125.031 160.424 125.048 160.404C125.064 160.384 125.089 160.369 125.116 160.363Z" fill="#455A64"/>
<path d="M123.786 161.125C125.656 160.746 127.976 160.943 129.462 162.08C129.518 162.121 129.462 162.193 129.384 162.178C127.562 161.722 125.69 161.439 123.799 161.333C123.77 161.33 123.745 161.318 123.725 161.3C123.706 161.282 123.695 161.258 123.693 161.234C123.692 161.209 123.7 161.184 123.717 161.164C123.734 161.145 123.758 161.13 123.786 161.125Z" fill="#455A64"/>
<path d="M122.451 161.883C124.326 161.504 126.641 161.704 128.127 162.837C128.188 162.883 128.127 162.955 128.054 162.94C126.232 162.483 124.359 162.199 122.468 162.091C122.44 162.088 122.413 162.077 122.394 162.059C122.374 162.041 122.362 162.018 122.36 161.993C122.358 161.968 122.366 161.944 122.382 161.923C122.399 161.903 122.423 161.889 122.451 161.883Z" fill="#455A64"/>
<path d="M146.621 82.9251L146.603 84.0051L145.908 131.699L145.904 131.881L145.493 160.45L125.595 160.101L129.436 82.9819L129.488 81.9512L129.682 73.0042H146.487L146.621 82.9251Z" fill="#455A64"/>
<path d="M126.429 157.191C129.535 157.165 128.641 157.134 131.747 157.142C133.268 157.142 143.26 157.176 144.677 157.396C144.707 157.396 144.707 157.449 144.677 157.453C143.251 157.642 133.263 157.453 131.743 157.43C128.637 157.373 129.531 157.358 126.425 157.271C126.415 157.268 126.407 157.262 126.402 157.255C126.396 157.247 126.393 157.239 126.394 157.23C126.394 157.221 126.398 157.212 126.404 157.205C126.411 157.198 126.419 157.193 126.429 157.191Z" fill="#263238"/>
<path d="M135.342 87.9424C135.342 87.9343 135.338 87.9266 135.331 87.9209C135.325 87.9152 135.316 87.912 135.307 87.912C135.298 87.912 135.289 87.9152 135.283 87.9209C135.276 87.9266 135.272 87.9343 135.272 87.9424C135.272 92.5087 135.061 95.0666 134.936 99.6291C134.81 104.192 134.659 108.754 134.504 113.313C134.223 122.434 133.804 131.548 133.419 140.665C133.203 145.779 132.934 150.889 132.611 155.997C132.611 156.005 132.615 156.011 132.62 156.016C132.626 156.021 132.634 156.024 132.642 156.024C132.65 156.024 132.657 156.021 132.663 156.016C132.669 156.011 132.672 156.005 132.672 155.997C133.428 146.903 134.149 137.778 134.564 128.656C134.979 119.535 135.272 110.418 135.32 101.296C135.363 96.1769 135.329 93.0619 135.342 87.9424Z" fill="#263238"/>
<path d="M146.617 82.9251L145.908 131.699L132.572 73.0042H146.483L146.617 82.9251Z" fill="#263238"/>
<path d="M167.309 142.549C167.309 142.549 169.815 158.718 169.815 158.73C170.316 161.822 170.679 164.539 170.731 165.96C170.731 165.96 170.731 165.96 170.731 165.983C170.781 166.314 170.746 166.651 170.627 166.968C170.627 166.976 170.627 166.983 170.627 166.991C169.677 167.749 141.64 171.955 140.607 171.811C139.575 171.667 139.955 169.075 140.893 168.147C141.83 167.218 151.749 161.401 151.749 161.401L149.416 145.216L167.309 142.549Z" fill="#AD6359"/>
<path d="M169.301 155.41C169.301 155.41 169.815 158.718 169.815 158.73C170.316 161.822 170.679 164.539 170.731 165.96C170.731 165.96 170.731 165.96 170.731 165.983C170.739 166.314 170.704 166.644 170.627 166.968C170.627 166.976 170.627 166.983 170.627 166.991C169.677 167.749 141.64 171.955 140.607 171.811C139.575 171.667 139.955 169.075 140.893 168.146C141.83 167.218 151.749 161.401 151.749 161.401L151.157 158.021L169.301 155.41Z" fill="#C7C7C7"/>
<path d="M140.59 171.811C141.627 171.955 169.659 167.745 170.61 166.991C170.977 166.707 170.515 163.091 169.815 158.73L169.789 158.593L151.671 161.132L151.731 161.401C151.731 161.401 141.821 167.222 140.875 168.15C139.929 169.079 139.536 171.663 140.59 171.811Z" fill="#263238"/>
<path d="M140.72 170.811C145.429 170 164.48 167.116 169.232 166.642C169.271 166.642 169.275 166.661 169.232 166.669C164.588 167.563 145.498 170.31 140.746 170.894C140.634 170.905 140.621 170.829 140.72 170.811Z" fill="#455A64"/>
<path d="M150.22 161.678C152.021 161.094 154.345 161.003 155.991 161.951C156.056 161.989 155.991 162.068 155.931 162.061C154.056 161.823 152.157 161.764 150.267 161.883C150.239 161.883 150.211 161.875 150.189 161.859C150.167 161.844 150.152 161.822 150.146 161.798C150.14 161.773 150.145 161.748 150.158 161.726C150.172 161.704 150.193 161.687 150.22 161.678Z" fill="#455A64"/>
<path d="M149.014 162.587C150.816 162.004 153.14 161.913 154.786 162.864C154.85 162.898 154.786 162.978 154.725 162.97C152.85 162.735 150.951 162.675 149.062 162.792C149.033 162.793 149.006 162.784 148.983 162.769C148.961 162.753 148.946 162.731 148.94 162.707C148.935 162.683 148.939 162.657 148.953 162.636C148.966 162.614 148.988 162.597 149.014 162.587Z" fill="#455A64"/>
<path d="M147.813 163.501C149.614 162.917 151.934 162.826 153.584 163.774C153.649 163.811 153.584 163.891 153.524 163.883C151.649 163.644 149.75 163.584 147.86 163.705C147.832 163.706 147.804 163.698 147.782 163.682C147.76 163.667 147.745 163.645 147.739 163.62C147.734 163.596 147.738 163.571 147.751 163.549C147.765 163.527 147.787 163.51 147.813 163.501Z" fill="#455A64"/>
<path d="M131.393 72.9891C131.467 73.2922 132.642 78.0745 133.86 82.1823C134.745 85.1836 135.657 87.8211 136.18 88.0939C136.771 88.4009 139.657 89.5226 140.625 89.875L145.044 126.947L151.019 161.272L170.554 158.62L156.652 83.4973L154.388 72.9891H131.393Z" fill="#455A64"/>
<path d="M151.135 157.828C154.203 157.396 153.295 157.479 156.388 157.07C157.892 156.873 167.776 155.588 169.215 155.622C169.245 155.622 169.253 155.668 169.215 155.675C167.841 156.054 157.931 157.191 156.423 157.358C153.343 157.707 154.224 157.578 151.14 157.9C151.132 157.896 151.126 157.892 151.121 157.885C151.117 157.879 151.114 157.872 151.114 157.865C151.113 157.858 151.115 157.85 151.119 157.844C151.123 157.837 151.128 157.832 151.135 157.828Z" fill="#263238"/>
<path d="M162.432 147.577C161.944 145.197 161.46 142.818 160.959 140.438C159.959 135.678 158.951 130.92 157.935 126.163C155.896 116.641 153.88 107.112 151.887 97.5752C150.772 92.1941 150.798 92.6981 149.826 87.2905C149.826 87.2564 149.748 87.2602 149.757 87.2905C150.69 92.0956 150.249 91.0421 151.131 95.8547C152.012 100.667 152.937 105.378 153.909 110.126C155.861 119.672 157.909 129.202 159.978 138.729C160.554 141.402 161.143 144.071 161.745 146.736C162.35 149.457 163.041 152.163 163.68 154.876C163.68 154.936 163.806 154.933 163.793 154.876C163.343 152.447 162.937 150.006 162.432 147.577Z" fill="#263238"/>
<path d="M157.062 87.6467C156.544 87.5293 155.986 87.4914 155.459 87.4194C155.027 87.3587 154.595 87.2905 154.163 87.2109C153.35 87.0834 152.58 86.7986 151.908 86.3773C151.174 85.877 150.798 85.1154 150.444 84.384C150.231 83.952 150.015 83.52 149.796 83.088L149.472 82.4627C149.321 82.2173 149.187 81.9642 149.07 81.7048C149.07 81.6669 148.988 81.7048 149.005 81.7048C149.079 81.8819 149.139 82.0629 149.187 82.2467C149.26 82.4551 149.325 82.6636 149.398 82.872C149.532 83.2509 149.662 83.6299 149.8 84.0088C150.01 84.6925 150.314 85.3516 150.703 85.9718C151.489 87.0631 152.889 87.5065 154.289 87.6619C154.69 87.7036 155.097 87.7301 155.503 87.749C156.011 87.7888 156.523 87.7888 157.032 87.749C157.044 87.7463 157.055 87.7408 157.063 87.7332C157.072 87.7256 157.078 87.7161 157.081 87.7056C157.084 87.6952 157.084 87.6843 157.081 87.6739C157.077 87.6636 157.071 87.6542 157.062 87.6467Z" fill="#263238"/>
<path d="M134.646 87.4384C136.706 88.0948 138.697 88.9089 140.595 89.8712C140.611 89.8777 140.623 89.8896 140.629 89.9041C140.635 89.9187 140.634 89.9348 140.627 89.9489C140.62 89.9629 140.606 89.9738 140.589 89.9792C140.573 89.9845 140.555 89.9838 140.538 89.9773C138.534 89.2194 136.491 88.4994 134.538 87.6506C134.511 87.6354 134.491 87.6123 134.482 87.5853C134.472 87.5583 134.475 87.5293 134.488 87.5036C134.501 87.4779 134.524 87.4571 134.553 87.4452C134.582 87.4332 134.615 87.4308 134.646 87.4384Z" fill="#263238"/>
<path d="M134.041 75.4106C134.041 75.3499 134.171 75.3348 134.171 75.4106C134.169 77.3722 134.282 79.3326 134.508 81.2843C134.598 82.1899 135.428 87.192 137.221 86.8283C137.519 86.7676 137.653 86.5062 137.717 86.1121C137.711 85.5938 137.631 85.0783 137.48 84.5773C137.281 83.5276 137.121 82.4779 137.022 81.4207C136.811 79.4508 136.835 77.4669 137.095 75.5015C137.095 75.4885 137.101 75.4759 137.112 75.4667C137.122 75.4574 137.137 75.4523 137.151 75.4523C137.166 75.4523 137.181 75.4574 137.191 75.4667C137.202 75.4759 137.208 75.4885 137.208 75.5015C137.158 78.2342 137.34 80.9664 137.752 83.6754C137.977 84.9752 138.724 86.9344 137.173 87.1352C135.622 87.336 134.581 84.0582 134.378 83.16C133.883 80.6006 133.77 77.9956 134.041 75.4106Z" fill="#263238"/>
<path d="M137.173 86.9419C137.331 87.2806 137.465 87.6273 137.575 87.9802C137.69 88.2529 137.747 88.542 137.743 88.8328C137.741 88.8447 137.734 88.8556 137.725 88.8642C137.715 88.8728 137.703 88.8787 137.689 88.8811C137.676 88.8835 137.662 88.8824 137.649 88.8779C137.636 88.8733 137.626 88.8656 137.618 88.8556C137.425 88.6006 137.279 88.3205 137.186 88.0257C137.048 87.7074 136.905 87.3853 136.78 87.0632C136.762 87.0174 136.765 86.9672 136.789 86.9235C136.812 86.8798 136.855 86.8462 136.907 86.8301C136.959 86.814 137.017 86.8168 137.067 86.8377C137.116 86.8587 137.155 86.8962 137.173 86.9419Z" fill="#263238"/>
<path d="M156.855 84.6C154.488 84.4636 129.488 81.9474 129.488 81.9474L129.682 73.0004H131.41H154.406L156.669 83.5086L156.855 84.6Z" fill="#263238"/>
<path d="M139.346 52.4539C136.486 60.3057 131.644 68.4114 130.244 70.0067C126.49 74.2964 115.21 78.5217 111.767 79.0674C110.277 79.3023 106.704 70.8707 107.629 69.7112C108.553 68.5516 122.572 63.8526 123.258 63.2274C123.734 62.7916 129.648 56.1069 133.626 52.0749C138.599 47.0615 140.098 50.4 139.346 52.4539Z" fill="#AD6359"/>
<path d="M110.622 68.0741L116.16 77.9268C116.16 77.9268 127.932 73.4514 130.736 70.2569C133.54 67.0624 138.62 56.2358 139.376 52.7874C140.132 49.339 138.827 46.8758 133.561 51.9158C128.295 56.9558 123.932 61.9769 122.99 62.8181C122.048 63.6594 110.622 68.0741 110.622 68.0741Z" fill="#EBEBEB"/>
<path d="M111.089 67.5739L117.724 77.7827C117.724 77.7827 128.092 73.4362 130.736 70.5827C133.38 67.7293 137.739 58.968 139.104 54.2387C140.469 49.5095 139.67 46.1558 133.566 51.9423C127.462 57.7288 124.01 61.9314 122.766 62.8749C122.174 63.2842 111.089 67.5739 111.089 67.5739Z" fill="#37474F"/>
<path d="M113.884 68.5175C114.22 68.5175 114.493 68.2783 114.493 67.9832C114.493 67.6881 114.22 67.4489 113.884 67.4489C113.548 67.4489 113.275 67.6881 113.275 67.9832C113.275 68.2783 113.548 68.5175 113.884 68.5175Z" fill="#263238"/>
<path d="M116.757 67.3579C117.093 67.3579 117.366 67.1187 117.366 66.8236C117.366 66.5285 117.093 66.2893 116.757 66.2893C116.42 66.2893 116.147 66.5285 116.147 66.8236C116.147 67.1187 116.42 67.3579 116.757 67.3579Z" fill="#263238"/>
<path d="M139.104 54.2236C137.739 58.9529 133.384 67.699 130.736 70.5676C129.604 71.7916 127.073 73.2846 124.537 74.5958L137.899 48.9259C139.968 48.4333 140.033 51.0101 139.104 54.2236Z" fill="#263238"/>
<path d="M158.16 80.8446C158.09 80.9128 128.205 80.9924 127.92 80.7234C127.535 80.3444 134.287 51.9233 137.354 48.4332C138.007 47.6753 140.171 47.4745 142.011 47.6753C142.491 47.7228 142.966 47.8078 143.428 47.9292H143.48C143.853 48.0258 144.205 48.177 144.521 48.3764C149.636 51.9612 153.948 64.493 154.954 68.256C156.639 74.4669 158.406 80.5983 158.16 80.8446Z" fill="#EBEBEB"/>
<path d="M144.435 48.043C144.435 48.043 142.003 59.6767 141.579 62.7007C141.156 65.7247 141.778 81.6973 141.778 81.6973L160.544 82.9137C160.544 82.9137 156.488 72.3411 156.44 71.6703C156.44 71.6703 153.07 59.0059 149.913 53.7158C148.533 51.5251 146.671 49.5968 144.435 48.043Z" fill="#37474F"/>
<path d="M160.544 82.9137L152.034 82.3605L145.96 49.2139V49.2367L149.77 53.5188C149.813 53.587 149.857 53.6552 149.895 53.7234C153.053 59.0287 156.423 71.6779 156.423 71.6779C156.488 72.3411 160.544 82.9137 160.544 82.9137Z" fill="#263238"/>
<path d="M137.173 48.2969C137.173 48.2969 135.182 60.0783 134.966 61.0522C134.75 62.0261 131.734 81.2388 131.734 81.2388L127.039 81.3676L129.488 72.5836C129.488 72.5836 134.936 50.8055 137.173 48.2969Z" fill="#37474F"/>
<path d="M139.916 54.7617L138.586 52.488L136.866 54.1327L137.29 55.7697L138.983 55.963L139.916 54.7617Z" fill="#263238"/>
<path d="M138.983 55.963L139.795 72.6897L136.222 78.2224L134.365 71.9963L137.289 55.7697L138.983 55.963Z" fill="#263238"/>
<path d="M167.897 95.8168H145.502V128.24H167.897V95.8168Z" fill="#FEC7A0"/>
<path opacity="0.1" d="M161.978 90.6215H151.433V123.044H161.978V90.6215Z" fill="black"/>
<path d="M176.066 99.3183H137.354V108.485H176.066V99.3183Z" fill="#FEC7A0"/>
<path d="M148.574 94.0851L148.565 99.3108L151.369 99.3146L151.373 96.3398L162.065 96.3512L162.061 99.3259H164.864L164.869 94.0965L148.574 94.0851Z" fill="#263238"/>
<path d="M170.748 106.31H168.225V110.691H170.748V106.31Z" fill="#263238"/>
<path d="M145.186 106.287H142.664V110.668H145.186V106.287Z" fill="#263238"/>
<path d="M148.565 51.5368C156.902 58.1722 162.194 67.6497 162.553 69.5634C163.417 74.1903 164.51 82.2998 164.324 85.8581C164.255 87.1768 152.863 85.5777 152.885 84.168C152.958 79.757 152.289 70.056 152.258 69.8855C152.055 68.6994 149.576 63.3676 147.074 57.5848C144.573 51.8021 145.057 48.7516 148.565 51.5368Z" fill="#AD6359"/>
<path d="M151.684 97.992C152.016 98.1246 152.387 98.1648 152.746 98.1072C153.105 98.0496 153.435 97.897 153.693 97.6699C154.018 98.1331 154.518 98.4817 155.105 98.6552C156.155 98.9205 157.088 97.5903 157.088 97.5903C157.541 98.0093 158.126 98.2997 158.769 98.424C159.801 98.587 160.963 97.363 160.963 97.363C161.62 97.5445 162.329 97.5149 162.964 97.2796C164.039 96.8362 164.951 94.1306 165.175 92.5731C165.4 91.0156 164.368 86.4114 164.272 85.5171L152.885 84.1756C152.885 84.1756 149.619 90.9133 149.654 92.7777C149.684 94.3579 150.431 97.4463 151.684 97.992Z" fill="#AD6359"/>
<path d="M153.52 97.579C153.032 95.9154 153.131 94.2139 153.123 92.5162C153.123 92.5082 153.126 92.5005 153.133 92.4948C153.139 92.4891 153.148 92.4859 153.157 92.4859C153.166 92.4859 153.175 92.4891 153.182 92.4948C153.188 92.5005 153.192 92.5082 153.192 92.5162C153.192 94.2063 153.546 95.8775 153.624 97.5676C153.625 97.5797 153.622 97.5918 153.613 97.6014C153.605 97.611 153.592 97.6173 153.578 97.6188C153.565 97.6203 153.551 97.6169 153.54 97.6095C153.529 97.602 153.522 97.591 153.52 97.579Z" fill="#263238"/>
<path d="M156.946 97.541C156.876 97.1537 156.864 96.7601 156.911 96.3701C156.911 95.957 156.963 95.5402 157.002 95.1271C157.077 94.2985 157.173 93.4724 157.291 92.6488C157.291 92.6109 157.36 92.6109 157.356 92.6488C157.287 93.4749 157.231 94.301 157.196 95.1271C157.196 95.544 157.17 95.957 157.162 96.3701C157.18 96.762 157.152 97.1545 157.075 97.541C157.07 97.5526 157.061 97.5626 157.05 97.5697C157.038 97.5768 157.025 97.5806 157.01 97.5806C156.996 97.5806 156.983 97.5768 156.971 97.5697C156.959 97.5626 156.95 97.5526 156.946 97.541Z" fill="#263238"/>
<path d="M160.963 97.3289C160.908 96.9772 160.919 96.6199 160.998 96.2716C161.041 95.8927 161.08 95.5137 161.119 95.1348C161.196 94.3769 161.27 93.619 161.313 92.8611C161.313 92.8232 161.382 92.8232 161.382 92.8611C161.339 93.619 161.309 94.3996 161.261 95.1689L161.183 96.3057C161.192 96.652 161.133 96.9969 161.006 97.3251C161.004 97.3284 161.001 97.3313 160.998 97.3334C160.994 97.3355 160.99 97.3369 160.986 97.3372C160.982 97.3376 160.977 97.337 160.973 97.3356C160.969 97.3341 160.966 97.3318 160.963 97.3289Z" fill="#263238"/>
<path d="M152.327 84.2211L164.955 84.8198C164.955 84.8198 164.022 72.6935 163.019 69.3247C162.017 65.9558 153.464 54.7276 148.413 50.6577C143.661 46.8266 143.661 50.0135 145.463 54.504C147.264 58.9946 151.723 69.8476 151.874 70.6396C152.025 71.4316 152.327 84.2211 152.327 84.2211Z" fill="#37474F"/>
<path d="M152.893 81.9853C153.377 81.9474 153.865 81.9853 154.349 81.9853C154.833 81.9853 155.317 82.0042 155.801 82.0232C156.734 82.0573 157.667 82.1065 158.6 82.1596L161.395 82.3225C162.359 82.3794 163.344 82.3945 164.298 82.5196C164.305 82.5217 164.311 82.5256 164.315 82.5307C164.319 82.5358 164.321 82.5418 164.321 82.548C164.321 82.5542 164.319 82.5602 164.315 82.5653C164.311 82.5704 164.305 82.5743 164.298 82.5764C163.335 82.6105 162.354 82.5348 161.391 82.5044L158.54 82.4021C157.589 82.3642 156.639 82.3225 155.689 82.2695C155.222 82.2468 154.755 82.2164 154.293 82.171C153.831 82.1255 153.347 82.1217 152.889 82.0421C152.846 82.0345 152.859 81.9891 152.893 81.9853Z" fill="#263238"/>
<path d="M139.035 52.1848C139.528 52.1659 142.798 49.9111 143.787 48.1756C143.856 48.0543 143.601 46.8189 143.377 45.3069C143.243 44.3899 143.117 43.3629 143.083 42.4194C143.083 42.2261 142.34 42.605 142.34 42.605L140.957 42.9385L136.396 44.0526C136.825 45.221 137.089 46.4314 137.182 47.6564C137.187 47.7833 137.177 47.9103 137.152 48.0353C137.153 48.0568 137.153 48.0783 137.152 48.0998C137.052 48.8463 138.24 52.2113 139.035 52.1848Z" fill="#AD6359"/>
<path d="M137.169 48.043C137.171 48.0644 137.171 48.086 137.169 48.1074C137.4 48.1266 137.633 48.1266 137.864 48.1074C142.4 47.8876 142.776 42.8021 142.776 42.8021L140.983 42.9234L136.421 44.0375C136.851 45.2059 137.115 46.4163 137.208 47.6413C137.212 47.776 137.199 47.9107 137.169 48.043Z" fill="#263238"/>
<path d="M142.914 34.4238C144.003 36.3981 143.822 42.5598 142.374 44.1248C140.283 46.3985 136.326 47.1223 133.994 44.8069C131.734 42.5673 132.136 34.5412 133.799 33.0596C136.249 30.9071 141.307 31.5059 142.914 34.4238Z" fill="#AD6359"/>
<path d="M136.892 38.9179C136.892 38.9179 136.927 38.9179 136.927 38.9558C136.901 39.3689 136.953 39.8501 137.359 39.9941C137.359 39.9941 137.359 40.0206 137.359 40.0169C136.853 39.9449 136.793 39.3082 136.892 38.9179Z" fill="#263238"/>
<path d="M137.324 38.4935C138.085 38.4556 138.115 39.7971 137.406 39.8312C136.698 39.8653 136.685 38.5238 137.324 38.4935Z" fill="#263238"/>
<path d="M134.153 39.0316C134.153 39.0316 134.119 39.0506 134.119 39.0695C134.14 39.4826 134.088 39.9638 133.661 40.1078V40.1306C134.188 40.0548 134.252 39.4106 134.153 39.0316Z" fill="#263238"/>
<path d="M133.721 38.5996C132.961 38.5617 132.927 39.9032 133.635 39.9373C134.344 39.9714 134.352 38.6527 133.721 38.5996Z" fill="#263238"/>
<path d="M137.916 37.872C137.705 37.8265 137.519 37.7583 137.32 37.6977C137.099 37.6633 136.898 37.5645 136.75 37.4173C136.713 37.3641 136.697 37.3014 136.706 37.2395C136.715 37.1776 136.747 37.12 136.797 37.0762C136.91 37.0002 137.044 36.9521 137.186 36.9368C137.327 36.9215 137.47 36.9395 137.601 36.9891C137.883 37.0546 138.128 37.2099 138.288 37.4249C138.321 37.4756 138.337 37.5337 138.333 37.5921C138.329 37.6505 138.306 37.7067 138.267 37.754C138.228 37.8013 138.174 37.8375 138.112 37.8585C138.049 37.8794 137.981 37.8841 137.916 37.872Z" fill="#263238"/>
<path d="M133.117 37.9364C133.321 37.897 133.523 37.8476 133.721 37.7886C133.942 37.7617 134.147 37.6726 134.305 37.5347C134.345 37.483 134.364 37.4209 134.359 37.3584C134.355 37.2959 134.326 37.2366 134.279 37.1899C134.17 37.1086 134.039 37.0545 133.898 37.0331C133.757 37.0118 133.613 37.0241 133.479 37.0686C133.194 37.1216 132.941 37.2662 132.771 37.4741C132.735 37.5233 132.716 37.5806 132.717 37.639C132.717 37.6974 132.737 37.7544 132.773 37.8032C132.81 37.8521 132.862 37.8906 132.923 37.9142C132.983 37.9379 133.051 37.9456 133.117 37.9364Z" fill="#263238"/>
<path d="M135.454 42.0404C135.656 42.266 135.923 42.4411 136.227 42.5482C136.394 42.603 136.577 42.611 136.75 42.571C137.13 42.4762 137.13 42.192 137.056 41.9116C137.014 41.7798 136.954 41.6526 136.879 41.5327C136.478 41.8305 135.978 42.0083 135.454 42.0404Z" fill="#263238"/>
<path d="M136.227 42.5482C136.394 42.603 136.577 42.611 136.75 42.571C137.13 42.4762 137.13 42.192 137.056 41.9116C136.857 41.9219 136.668 41.99 136.517 42.1053C136.367 42.2206 136.265 42.3764 136.227 42.5482Z" fill="#FF9ABB"/>
<path d="M132.832 35.1209C133.078 34.5903 133.367 34.056 133.726 33.9423C134.084 33.8286 134.339 34.6017 135.164 34.6358C136.275 34.6851 136.793 33.7832 138.344 33.6619C140.569 33.4876 141.584 35.1057 141.701 37.8796C141.8 40.3541 143.515 40.5588 143.515 40.5588C143.515 40.5588 144.431 35.0792 142.651 33.2981C140.871 31.5171 136.81 30.7857 134.141 32.5402C133.151 33.2034 132.832 35.1209 132.832 35.1209Z" fill="#263238"/>
<path d="M142.067 39.6076C142.067 39.6076 143.316 37.4817 144.396 37.8455C145.476 38.2093 144.746 41.1651 143.623 41.6918C143.484 41.7676 143.329 41.818 143.168 41.84C143.007 41.8619 142.842 41.855 142.684 41.8196C142.525 41.7842 142.377 41.721 142.247 41.6339C142.118 41.5468 142.009 41.4376 141.929 41.3129L142.067 39.6076Z" fill="#AD6359"/>
<path d="M144.163 38.6906C144.163 38.6906 144.189 38.7095 144.163 38.7171C143.381 39.096 143.048 39.8312 142.867 40.5663C142.903 40.4875 142.959 40.4166 143.03 40.3586C143.101 40.3006 143.185 40.2569 143.277 40.2306C143.37 40.2042 143.467 40.1959 143.564 40.2061C143.66 40.2163 143.752 40.2448 143.835 40.2897C143.856 40.2897 143.835 40.3314 143.835 40.3314C143.683 40.3077 143.527 40.326 143.387 40.3837C143.248 40.4415 143.133 40.5357 143.057 40.6535C142.931 40.8504 142.829 41.0588 142.755 41.275C142.729 41.347 142.586 41.328 142.603 41.2484C142.422 40.3087 143.044 38.9179 144.163 38.6906Z" fill="#263238"/>
<path d="M137.147 48.187L138.776 51.696L143.718 47.2623L145.126 48.6796C145.126 48.6796 140.296 55.7053 140.266 55.3983L138.616 52.3895L136.253 54.4888L136.43 49.2253L137.147 48.187Z" fill="#EBEBEB"/>
<path d="M136.171 51.8855C136.235 51.0177 136.27 50.1385 136.378 49.2745C136.378 49.2442 136.438 49.2328 136.447 49.2745C136.646 50.112 136.387 53.443 136.391 54.2274C136.49 54.1364 138.581 52.3819 138.603 52.4084C138.961 52.8859 140.171 55.0611 140.253 55.2771C141.018 54.1592 143.942 50.0968 144.849 49.0396C144.855 49.0354 144.862 49.0328 144.869 49.0323C144.877 49.0317 144.884 49.0333 144.89 49.0367C144.896 49.04 144.901 49.0451 144.904 49.0511C144.907 49.057 144.907 49.0636 144.906 49.0699C144.245 50.2295 140.374 55.7053 140.313 55.7053C139.676 54.6706 139.1 53.6082 138.585 52.5221C138.231 52.9011 136.119 54.8905 136.11 54.7617C136.073 53.8027 136.093 52.8426 136.171 51.8855Z" fill="#263238"/>
<path d="M81.3457 51.8021C86.7803 61.2114 92.3013 83.8459 92.8153 86.8737C93.1653 88.9314 80.8317 90.792 80.8317 89.3672C80.8317 87.5406 78.3433 66.1756 78.5809 57.7326C78.7105 53.0754 80.2225 49.8581 81.3457 51.8021Z" fill="#EB9481"/>
<path d="M80.7842 88.4653C80.5855 89.7044 81.0564 93.9979 81.9809 97.1811C82.4129 98.7348 84.2618 103.074 85.6485 102.865C87.0353 102.657 86.6249 101.35 86.6249 101.35C86.6249 101.35 87.7135 103.078 89.0829 102.755C90.4524 102.433 89.7482 100.41 89.7482 100.41C89.7482 100.41 91.0097 102.119 92.3402 101.71C93.6708 101.3 92.5778 99.3714 92.5778 99.3714C92.5778 99.3714 93.6535 100.982 94.5953 100.235C95.7314 99.3373 93.3727 96.571 92.9753 94.8316C92.8845 94.4527 91.783 86.7145 91.783 86.7145L80.7842 88.4653Z" fill="#EB9481"/>
<path d="M92.5951 99.3449C90.8671 97.3061 90.5129 96.1504 90.2969 93.6607C90.2939 93.6522 90.2878 93.6448 90.2797 93.6395C90.2715 93.6342 90.2616 93.6314 90.2515 93.6314C90.2414 93.6314 90.2315 93.6342 90.2234 93.6395C90.2152 93.6448 90.2092 93.6522 90.2062 93.6607C90.1673 96.12 90.3746 97.6245 92.4871 99.4321C92.5908 99.5116 92.6772 99.4396 92.5951 99.3449Z" fill="#263238"/>
<path d="M89.7826 100.52C88.1972 98.2648 87.7997 97.0143 87.3505 94.4185C87.3505 94.3806 87.2727 94.3844 87.277 94.4185C87.4714 96.9991 87.709 98.496 89.6401 100.569C89.7265 100.667 89.8561 100.622 89.7826 100.52Z" fill="#263238"/>
<path d="M86.4992 101.179C85.1471 98.9052 84.6459 97.5448 84.5811 94.9756C84.5778 94.9653 84.5707 94.9562 84.561 94.9498C84.5512 94.9433 84.5393 94.9398 84.5271 94.9398C84.5149 94.9398 84.5031 94.9433 84.4933 94.9498C84.4836 94.9562 84.4765 94.9653 84.4731 94.9756C84.2485 97.6017 84.8619 99.2955 86.4171 101.213C86.5251 101.323 86.5856 101.308 86.4992 101.179Z" fill="#263238"/>
<path d="M92.7375 86.3356C92.7375 86.3356 94.7247 88.9882 95.3036 90.341C95.8825 91.6939 95.9473 97.3667 94.5476 97.4501C92.7419 97.5562 91.9556 94.2783 91.826 92.6299C91.826 92.6299 87.6443 92.8762 86.5124 90.6291C85.3806 88.3819 92.7375 86.3356 92.7375 86.3356Z" fill="#EB9481"/>
<path d="M94.0423 97.3327C92.3143 96.3891 92.2883 94.2139 92.0162 92.6224C92.0134 92.5987 92.0041 92.5759 91.9892 92.556C91.9742 92.5362 91.9539 92.5198 91.9302 92.5082C91.9064 92.4967 91.8798 92.4903 91.8527 92.4898C91.8255 92.4892 91.7986 92.4944 91.7743 92.5049C90.016 92.5049 87.532 92.0577 86.4693 90.7238C86.4671 90.7187 86.4636 90.714 86.4591 90.7102C86.4546 90.7063 86.4492 90.7034 86.4432 90.7016C86.4373 90.6998 86.431 90.6991 86.4247 90.6996C86.4185 90.7002 86.4124 90.7019 86.407 90.7047C86.4016 90.7075 86.397 90.7113 86.3934 90.7158C86.3898 90.7203 86.3874 90.7255 86.3864 90.7309C86.3853 90.7364 86.3856 90.7419 86.3872 90.7472C86.3889 90.7526 86.3918 90.7575 86.3959 90.7617C87.3117 92.3306 89.7136 92.9445 91.6403 92.8346C91.8909 94.4678 92.0248 96.6506 94.0293 97.3478C94.0423 97.3516 94.0509 97.3403 94.0423 97.3327Z" fill="#263238"/>
<path d="M93.9987 85.699L79.989 87.5937C79.989 87.5937 77.7555 64.7773 77.6735 57.1187C77.5914 49.4602 80.7277 47.5844 84.093 55.4173C87.4583 63.2501 93.9987 85.699 93.9987 85.699Z" fill="#FEC7A0"/>
<path d="M79.92 85.6724C85.6526 84.5356 91.8691 84.1149 92.9491 83.9747C93.0009 83.9747 93.0052 84.0391 92.9491 84.0429C91.8864 84.1339 84.8361 85.2973 79.92 85.7482C79.8811 85.752 79.8768 85.68 79.92 85.6724Z" fill="#263238"/>
<path d="M110.972 169.245C110 169.522 81.5099 169.147 80.4644 168.544C80.3392 168.476 80.3219 166.218 80.3564 163.122L78.9697 144.731L96.9971 144.777L98.4227 160.693C98.4227 160.693 102.466 162.33 105.801 163.762C107.26 164.344 108.679 165.002 110.048 165.733C111.123 166.521 111.944 168.973 110.972 169.245Z" fill="#EB9481"/>
<path d="M110.972 169.245C110 169.522 81.5099 169.147 80.4644 168.544C80.3392 168.476 80.3219 166.218 80.3564 163.122C87.3937 164.497 106.16 166.725 106.708 165.433C106.929 164.914 106.479 164.327 105.81 163.785C107.269 164.366 108.687 165.025 110.056 165.755C111.123 166.521 111.944 168.973 110.972 169.245Z" fill="#263238"/>
<path d="M71.3579 77.7979C71.3579 77.7979 76.4642 125.325 76.5765 125.901C76.5765 125.977 76.6326 126.856 76.6802 128.285C76.9653 136.125 77.6651 160.575 77.6651 160.575H99.0837C99.0837 160.575 97.6883 131.616 96.8848 124.863C95.861 116.242 89.5667 77.7979 89.5667 77.7979H71.3579Z" fill="#37474F"/>
<path d="M79.1297 127.508C78.4701 117.64 77.478 107.788 76.1532 97.9503C75.4015 92.4177 74.4943 86.904 73.5957 81.3866C73.5957 81.3373 73.5007 81.3411 73.5093 81.3866C75.1682 91.2051 76.3389 101.092 77.3498 110.986C78.3607 120.88 79.0778 130.752 79.5098 140.658C79.7733 146.266 79.9721 151.882 80.1751 157.494C80.1804 157.519 80.1951 157.54 80.2168 157.556C80.2385 157.572 80.2658 157.58 80.2939 157.58C80.322 157.58 80.3493 157.572 80.371 157.556C80.3926 157.54 80.4074 157.519 80.4127 157.494C80.1276 147.505 79.7993 137.501 79.1297 127.508Z" fill="#263238"/>
<path d="M97.7315 157.548C97.1698 157.483 96.5607 157.502 96.0034 157.487C95.3641 157.487 94.7075 157.46 94.0767 157.441C92.8369 157.4 91.5927 157.369 90.3529 157.354C87.8516 157.316 85.346 157.331 82.849 157.4L80.7841 157.464C80.0497 157.487 79.3153 157.548 78.5809 157.544C78.529 157.544 78.529 157.601 78.5809 157.601C79.838 157.601 81.1124 157.696 82.3738 157.737C83.6353 157.779 84.8535 157.794 86.0934 157.809C88.5946 157.84 91.1046 157.809 93.6015 157.741C94.2884 157.718 94.9753 157.711 95.6622 157.692L96.7681 157.642C97.0964 157.642 97.4204 157.642 97.7487 157.616C97.7919 157.616 97.7876 157.555 97.7315 157.548Z" fill="#263238"/>
<path d="M86.8322 77.7979L77.0474 139.703C76.9091 135.087 76.7709 130.82 76.6802 128.285C76.6326 126.856 76.5938 125.977 76.5765 125.901C76.4555 125.325 71.3579 77.7979 71.3579 77.7979H86.8322Z" fill="#263238"/>
<path d="M75.0903 172.542C74.0708 172.47 47.9348 162.512 47.2349 161.602C47.1485 161.5 48.0989 159.408 49.5116 156.562L55.2745 138.752L71.9497 144.621L67.2452 160.435C67.2452 160.435 70.2692 163.311 72.7143 165.74C73.8064 166.771 74.8277 167.858 75.7729 168.995C76.4252 170.075 76.1055 172.618 75.0903 172.542Z" fill="#EB9481"/>
<path d="M75.0903 172.542C74.0708 172.47 47.9348 162.512 47.2349 161.602C47.1485 161.5 48.0989 159.408 49.5116 156.562C55.4084 160.208 71.751 168.59 72.8396 167.582C73.2716 167.18 73.1118 166.483 72.7316 165.755C73.8237 166.786 74.845 167.873 75.7902 169.011C76.4252 170.075 76.1055 172.618 75.0903 172.542Z" fill="#263238"/>
<path d="M47.6367 154.728L68.5326 160.412C68.5326 160.412 78.7364 129.016 79.5183 121.642C80.2916 114.332 81.039 99.3979 81.3716 88.5638C81.3716 88.5638 84.8622 86.7524 85.7478 85.7634C86.6334 84.7743 87.4283 81.216 89.1735 77.8055H63.6078C57.4993 88.2152 62.0958 92.8459 62.0958 95.1158C62.0958 106.075 60.2079 120.623 59.6074 122.779C58.3546 127.273 47.6367 154.728 47.6367 154.728Z" fill="#37474F"/>
<path d="M68.4849 156.403C67.9622 156.213 67.3703 156.096 66.826 155.948C66.2083 155.785 65.5862 155.634 64.9727 155.467C63.7891 155.145 62.5967 154.838 61.4044 154.542C58.9996 153.941 56.5776 153.388 54.1382 152.882L52.1251 152.477C51.4123 152.333 50.6822 152.223 49.9651 152.056C49.9089 152.056 49.896 152.098 49.9651 152.113C51.1833 152.394 52.3843 152.776 53.5896 153.102C54.7948 153.428 55.9699 153.72 57.1622 154.019C59.5684 154.614 61.9963 155.156 64.4327 155.653C65.1067 155.785 65.772 155.933 66.4416 156.073L67.5172 156.282C67.8369 156.346 68.1479 156.437 68.4719 156.479C68.4834 156.48 68.4951 156.478 68.5044 156.472C68.5137 156.466 68.5199 156.457 68.5216 156.446C68.5233 156.436 68.5204 156.426 68.5136 156.418C68.5067 156.41 68.4964 156.404 68.4849 156.403Z" fill="#263238"/>
<path d="M86.3437 85.5171C85.1237 86.0089 83.9655 86.6109 82.8877 87.3133C81.7429 88.0029 80.6888 88.7949 79.5872 89.5339C79.544 89.5642 79.5872 89.6248 79.6304 89.5983C80.7925 88.9465 82.0107 88.3743 83.1599 87.7036C84.3137 87.0896 85.4011 86.3843 86.4085 85.5966C86.4387 85.5663 86.3999 85.4981 86.3437 85.5171Z" fill="#263238"/>
<path d="M86.5039 79.2C86.357 79.8972 86.1626 80.5907 85.9898 81.2842C85.817 81.9777 85.709 82.5991 85.5146 83.2434C85.3539 83.8665 84.9926 84.436 84.4735 84.8842C84.1841 85.1229 83.8601 85.3314 83.549 85.5511C83.3849 85.6686 83.2034 85.7785 83.0306 85.8998C83.0522 85.805 83.0695 85.7141 83.0868 85.6156C83.1429 85.3541 83.1948 85.0888 83.2423 84.8236C83.3546 84.2362 83.4626 83.645 83.5663 83.0577C83.7693 81.8981 83.9551 80.7271 84.2316 79.5789C84.2344 79.5689 84.2326 79.5582 84.2266 79.5494C84.2205 79.5405 84.2106 79.5341 84.1992 79.5316C84.1877 79.529 84.1756 79.5306 84.1655 79.536C84.1553 79.5413 84.148 79.5499 84.1452 79.56C83.8169 80.6968 83.454 81.8337 83.1689 82.9705C83.0263 83.5314 82.5252 86.3053 82.5036 86.5023C82.482 86.6994 82.4604 86.9078 82.4517 87.1124C82.4236 87.3201 82.4236 87.53 82.4517 87.7377C82.4517 87.7869 82.5381 87.7794 82.5597 87.7377C82.6565 87.5453 82.7247 87.3428 82.7628 87.1352C82.8189 86.9381 82.8708 86.7373 82.9097 86.5364C82.9097 86.4644 82.9356 86.3886 82.9485 86.3128C83.2596 86.1461 83.549 85.9339 83.8428 85.7444C84.1365 85.5549 84.4735 85.3655 84.7716 85.1305C85.3209 84.7239 85.717 84.1809 85.9077 83.573C86.0997 82.9183 86.2255 82.2501 86.2836 81.576C86.3829 80.7878 86.4564 79.9958 86.5817 79.2114C86.5946 79.2 86.5125 79.1621 86.5039 79.2Z" fill="#263238"/>
<path d="M85.9682 48.9827C85.5578 53.4354 85.048 58.0131 83.8644 62.3634C82.9399 65.7512 80.8404 68.3849 76.65 68.7373C72.762 69.0632 67.3836 68.3583 64.5324 65.7777C63.2018 64.5764 62.9124 63.0682 63.2623 61.4615C63.7504 59.2295 67.7119 47.1486 68.9172 43.3743C69.6516 41.0779 70.3773 38.7474 71.5696 36.5874C74.0666 32.04 76.7536 32.419 77.1252 32.3621C77.4751 32.2181 79.6524 31.6649 82.4517 32.832C83.1883 33.1336 83.8439 33.5684 84.3754 34.1078C84.907 34.6473 85.3026 35.2792 85.5362 35.9621C87.0223 40.0244 86.3656 44.8143 85.9682 48.9827Z" fill="#263238"/>
<path d="M76.2007 32.9192C72.7749 33.8514 71.5221 36.8451 70.3125 39.5129C68.6277 43.2303 67.012 46.9743 65.6037 50.7827C64.9298 52.6131 64.3077 54.4585 63.7331 56.3154C63.1931 58.0964 62.489 59.9798 62.3421 61.8253C62.1002 64.8568 65.0378 66.6303 68.0272 67.4299C68.057 67.4384 68.0895 67.4362 68.1174 67.4238C68.1454 67.4114 68.1665 67.3897 68.1763 67.3636C68.186 67.3374 68.1835 67.309 68.1693 67.2845C68.1552 67.2599 68.1305 67.2414 68.1007 67.2328C66.4072 66.7213 64.7008 66.096 63.5819 64.7962C62.1434 63.144 62.6359 61.272 63.124 59.4076C63.9621 56.232 65.0032 53.1057 66.148 50.0135C67.2928 46.9213 68.6147 43.8594 69.9626 40.824C71.2586 37.9326 72.4552 34.0674 76.192 32.9684C76.2482 32.9684 76.2352 32.9078 76.2007 32.9192Z" fill="#263238"/>
<path d="M86.4908 39.3689C86.2402 36.9853 85.2207 34.5676 82.5552 33.5634C85.9853 34.9958 86.3223 38.539 86.3482 41.4644C86.377 44.5491 86.2776 47.6286 86.0501 50.7032C85.8341 53.6628 85.5404 56.6375 85.0176 59.5667C84.4517 62.7272 83.3328 65.6299 80.7927 67.9756C80.787 67.9801 80.7824 67.9855 80.7791 67.9915C80.7758 67.9976 80.7739 68.0041 80.7735 68.0108C80.7731 68.0175 80.7742 68.0242 80.7768 68.0305C80.7793 68.0368 80.7833 68.0426 80.7884 68.0476C80.7935 68.0526 80.7996 68.0566 80.8065 68.0595C80.8134 68.0624 80.8209 68.064 80.8285 68.0644C80.8361 68.0647 80.8437 68.0638 80.8509 68.0615C80.8581 68.0593 80.8648 68.0559 80.8704 68.0514C83.3026 66.1907 84.456 63.3638 85.0479 60.6581C85.762 57.0662 86.205 53.4368 86.3741 49.7937C86.5988 46.3642 86.8536 42.8211 86.4908 39.3689Z" fill="#263238"/>
<path d="M75.9976 49.5891C76.1618 49.968 78.6803 52.2796 80.7194 51.9651C81.3803 51.859 80.8922 48.6569 80.8922 48.6569L80.9181 48.4143L81.2723 45.0038L76.4642 43.0106L75.7773 42.7529C75.7773 42.7529 75.7471 43.6927 75.7298 44.8598C75.7298 44.9167 75.7298 44.9697 75.7298 45.0266C75.7255 45.0909 75.7255 45.1554 75.7298 45.2198C75.7298 45.3941 75.7298 45.5722 75.7298 45.7503C75.7298 45.9284 75.7298 46.0156 75.7298 46.1558C75.7298 46.296 75.7298 46.44 75.7298 46.5802C75.7411 47.5874 75.8306 48.5926 75.9976 49.5891Z" fill="#EB9481"/>
<path d="M75.73 44.8598C76.2484 45.7467 76.9806 46.524 77.8758 47.1378C78.771 47.7516 79.8077 48.1872 80.914 48.4143L81.2682 45.0038L76.4644 43.0106L75.7775 42.7529C75.7775 42.7529 75.7473 43.6927 75.73 44.8598Z" fill="#263238"/>
<path d="M86.2142 39.9828C86.7585 45.9701 82.7323 46.9327 81.2592 47.035C79.92 47.1259 75.3537 47.2927 74.1096 41.3811C72.8654 35.4695 75.8678 33.3474 78.9134 33.0063C81.959 32.6653 85.6742 33.9916 86.2142 39.9828Z" fill="#EB9481"/>
<path d="M85.0651 38.7095C84.9094 38.6894 84.755 38.6615 84.6029 38.6261C84.434 38.6172 84.2732 38.56 84.1449 38.4632C84.1124 38.4256 84.0947 38.3797 84.0947 38.3324C84.0947 38.2852 84.1124 38.2393 84.1449 38.2017C84.222 38.1365 84.3173 38.0903 84.4212 38.0676C84.5251 38.045 84.6339 38.0468 84.7368 38.0729C84.957 38.0972 85.1581 38.1949 85.2984 38.3457C85.329 38.381 85.3472 38.4234 85.3507 38.4677C85.3542 38.512 85.3428 38.5562 85.318 38.5948C85.2932 38.6335 85.256 38.665 85.2111 38.6853C85.1662 38.7057 85.1154 38.7141 85.0651 38.7095Z" fill="#263238"/>
<path d="M80.5206 38.7928C80.6805 38.7739 80.823 38.736 80.9829 38.7057C81.1437 38.6899 81.2948 38.6303 81.4149 38.5352C81.4482 38.4978 81.4662 38.4518 81.4662 38.4044C81.4662 38.357 81.4482 38.311 81.4149 38.2737C81.3368 38.2088 81.2404 38.1634 81.1356 38.142C81.0308 38.1207 80.9214 38.1243 80.8187 38.1524C80.6013 38.183 80.4045 38.2829 80.2658 38.4328C80.2344 38.4695 80.2164 38.5136 80.2141 38.5593C80.2118 38.6051 80.2253 38.6504 80.2529 38.6893C80.2804 38.7282 80.3207 38.7589 80.3685 38.7774C80.4163 38.7959 80.4693 38.8013 80.5206 38.7928Z" fill="#263238"/>
<path d="M81.5877 40.3049C81.5877 40.3049 81.5531 40.3049 81.5531 40.339C81.5833 40.7482 81.5531 41.2219 81.1211 41.3697C81.1211 41.3697 81.1211 41.3962 81.1211 41.3924C81.6481 41.3053 81.6913 40.6876 81.5877 40.3049Z" fill="#263238"/>
<path d="M81.1555 39.888C80.4038 39.8615 80.3952 41.1802 81.0907 41.2068C81.7863 41.2333 81.7863 39.9108 81.1555 39.888Z" fill="#263238"/>
<path d="M80.8621 39.9562C80.7282 40.032 80.5986 40.1609 80.4301 40.176C80.2616 40.1912 80.1104 40.051 79.9981 39.9183H79.9722C79.9722 40.1684 80.0715 40.4299 80.4042 40.4678C80.7368 40.5057 80.8923 40.2821 80.9658 40.0282C80.9614 39.9979 80.9139 39.9259 80.8621 39.9562Z" fill="#263238"/>
<path d="M84.1793 40.2139C84.1793 40.2139 84.2139 40.2139 84.2139 40.248C84.1923 40.6573 84.2441 41.131 84.6675 41.2712C84.6675 41.2712 84.6675 41.2977 84.6675 41.2939C84.1491 41.2257 84.0843 40.5967 84.1793 40.2139Z" fill="#263238"/>
<path d="M84.6028 39.7895C85.3502 39.7516 85.3891 41.0703 84.6936 41.1082C83.998 41.1461 83.9721 39.8236 84.6028 39.7895Z" fill="#263238"/>
<path d="M84.9183 39.8729C85.0392 39.9373 85.1602 40.0623 85.3027 40.0699C85.4453 40.0775 85.5835 39.9297 85.6872 39.7895H85.7088C85.7088 40.0396 85.6354 40.3049 85.3632 40.3579C85.0911 40.411 84.9312 40.195 84.8448 39.9486C84.8318 39.9145 84.8707 39.8425 84.9183 39.8729Z" fill="#263238"/>
<path d="M83.4971 42.0632C83.4971 42.0632 83.5964 42.6733 83.5964 42.9613C83.5964 42.9916 83.5187 43.003 83.4064 43.0105C83.1246 43.0573 82.8335 43.035 82.5652 42.9461C82.297 42.8572 82.0618 42.7051 81.8857 42.5065C81.8794 42.5005 81.8761 42.4925 81.8765 42.4843C81.8769 42.4762 81.881 42.4685 81.8879 42.463C81.8947 42.4574 81.9038 42.4545 81.9132 42.4549C81.9225 42.4552 81.9312 42.4588 81.9375 42.4648C82.3565 42.715 82.8569 42.8388 83.3632 42.8173C83.3848 42.7377 83.1515 41.7752 83.2033 41.7714C83.4587 41.7893 83.7102 41.8378 83.9507 41.9154C83.7865 40.6383 83.3891 39.3954 83.2422 38.1259C83.2422 38.1159 83.2467 38.1062 83.2548 38.0991C83.2629 38.092 83.2739 38.088 83.2854 38.088C83.2968 38.088 83.3078 38.092 83.3159 38.0991C83.324 38.1062 83.3286 38.1159 83.3286 38.1259C83.8023 39.4474 84.125 40.8069 84.292 42.1844C84.3049 42.3133 83.6267 42.1011 83.4971 42.0632Z" fill="#263238"/>
<path d="M84.024 40.6118C83.9204 39.6341 84.4344 38.7929 85.1688 38.7171C85.9032 38.6413 86.5901 39.3992 86.6938 40.3769C86.7975 41.3545 86.2618 42.1958 85.549 42.2716C84.8362 42.3474 84.1277 41.5895 84.024 40.6118ZM84.2962 40.5891C84.3869 41.4341 84.9356 42.0821 85.5231 42.0367C86.1106 41.9912 86.5167 41.2598 86.426 40.4148C86.3352 39.5697 85.7823 38.9217 85.1948 38.9672C84.6072 39.0127 84.2055 39.744 84.2962 40.5891Z" fill="#263238"/>
<path d="M78.9479 41.0324C78.9386 40.7085 79.0374 40.3893 79.2321 40.114C79.4268 39.8387 79.7089 39.6192 80.0437 39.4825C80.3786 39.3459 80.7517 39.2979 81.1172 39.3447C81.4826 39.3914 81.8246 39.5307 82.1011 39.7455C82.3776 39.9603 82.5766 40.2412 82.6736 40.5538C82.7706 40.8665 82.7615 41.1971 82.6473 41.5052C82.5331 41.8133 82.3188 42.0855 82.0308 42.2883C81.7427 42.4911 81.3934 42.6157 81.0258 42.6468C80.5067 42.6727 79.9969 42.5176 79.6076 42.2151C79.2184 41.9127 78.9812 41.4876 78.9479 41.0324ZM79.22 41.0097C79.275 41.2822 79.4193 41.5347 79.6352 41.7364C79.8511 41.9382 80.1293 42.0804 80.4358 42.1458C80.7423 42.2111 81.0639 42.1968 81.3613 42.1045C81.6586 42.0122 81.919 41.8459 82.1104 41.626C82.3019 41.4061 82.4162 41.142 82.4394 40.8661C82.4626 40.5901 82.3937 40.3142 82.2411 40.072C82.0885 39.8298 81.8588 39.6319 81.5801 39.5023C81.3014 39.3727 80.9857 39.3171 80.6715 39.3423C80.2273 39.3951 79.825 39.6003 79.5529 39.9128C79.2808 40.2254 79.1611 40.6198 79.22 41.0097Z" fill="#263238"/>
<path d="M82.6113 40.5667C83.5877 40.1874 84.0758 40.4263 84.0801 40.4301L84.227 40.2291C84.2054 40.2291 83.6265 39.8954 82.499 40.3505L82.6113 40.5667Z" fill="#263238"/>
<path d="M79.0561 40.8657L79.082 40.627C78.9006 40.627 74.7102 40.2859 74.2609 40.3011C73.8116 40.3162 72.7446 40.9491 72.6279 41.0211L72.7834 41.2181C73.2273 40.9237 73.7236 40.6958 74.2523 40.5436H74.3041C74.6324 40.5474 77.5657 40.7482 79.0561 40.8657Z" fill="#263238"/>
<path d="M74.3042 40.9529C75.0429 40.915 76.9697 39.1225 77.0301 35.9849C77.0301 35.9849 76.7537 38.8004 76.5161 39.2135C76.2785 39.6266 77.5917 38.2055 77.6781 35.6779C78.5882 36.2474 79.5861 36.7004 80.6417 37.0232C82.0025 37.3567 82.8362 37.3453 82.9356 37.2581C83.0349 37.171 81.0261 36.6177 80.4818 36.072C80.4818 36.072 84.1106 37.5461 85.7781 37.6598C85.9725 37.6598 86.2101 34.1849 83.6181 32.707C81.0261 31.2291 76.9437 32.8282 75.8421 33.7604C75.8421 33.7604 74.5461 33.9196 73.1508 35.5983C71.7554 37.2771 73.5093 40.9945 74.3042 40.9529Z" fill="#263238"/>
<path d="M75.2372 41.7676C75.2372 41.7676 73.7554 39.8728 72.7834 40.3427C71.8114 40.8126 72.9087 43.5297 74.0449 43.9086C74.1868 43.966 74.3405 43.9977 74.4968 44.0018C74.653 44.0059 74.8086 43.9823 74.9542 43.9324C75.0998 43.8825 75.2324 43.8074 75.3441 43.7115C75.4559 43.6156 75.5444 43.5009 75.6044 43.3743L75.2372 41.7676Z" fill="#EB9481"/>
<path d="M73.1206 41.1158V41.1423C73.9155 41.4341 74.3302 42.0859 74.6196 42.7604C74.5743 42.6896 74.5119 42.6284 74.4367 42.5809C74.3615 42.5335 74.2755 42.5011 74.1845 42.4859C74.0936 42.4708 73.9999 42.4732 73.9102 42.4932C73.8204 42.5131 73.7367 42.55 73.6649 42.6013C73.6649 42.6013 73.6649 42.6429 73.6865 42.6392C73.8272 42.6004 73.9781 42.6012 74.1183 42.6412C74.2584 42.6813 74.3808 42.7587 74.4684 42.8627C74.6145 43.0363 74.7391 43.223 74.84 43.4198C74.8745 43.4842 75.0041 43.4501 74.9782 43.3781C74.9955 42.4686 74.2136 41.2143 73.1206 41.1158Z" fill="#263238"/>
<path d="M74.9998 43.7722C75.0006 43.8593 74.972 43.9447 74.9174 44.0175C74.8629 44.0903 74.7849 44.1472 74.6934 44.181C74.602 44.2149 74.5011 44.2241 74.4036 44.2076C74.3061 44.1911 74.2164 44.1495 74.1459 44.0882C74.0754 44.0269 74.0272 43.9485 74.0075 43.8632C73.9878 43.7778 73.9975 43.6892 74.0353 43.6087C74.0731 43.5281 74.1373 43.4593 74.2198 43.4108C74.3023 43.3623 74.3994 43.3364 74.4987 43.3364C74.6308 43.3364 74.7576 43.3822 74.8515 43.4638C74.9453 43.5455 74.9986 43.6563 74.9998 43.7722Z" fill="white"/>
<path d="M90.2882 79.8253C90.2882 79.8253 67.2799 80.1247 61.5688 79.7723C61.5688 79.7723 66.2258 56.6186 72.3688 50.7676C72.5977 50.5478 72.8399 50.3391 73.0946 50.1424C73.4704 49.8657 73.4186 47.6565 73.5957 47.4897C73.7728 47.323 81.2378 48.1832 81.3328 48.3424C81.4279 48.5015 81.8124 50.5857 81.8124 50.5857C83.5058 52.4805 88.9533 59.0287 89.5884 61.7306C90.2234 64.4325 88.2232 67.4148 88.2232 67.4148L90.2882 79.8253Z" fill="#6E89BE"/>
<path d="M70.6104 54.8982C69.2496 60.6506 70.0574 73.0876 73.2024 75.3613C78.3864 79.0826 90.8453 80.1702 94.3229 80.5302C95.8219 80.6855 98.807 72.0796 97.7789 70.9693C96.7507 69.859 81.4363 68.131 80.7062 67.5588C80.2008 67.1495 77.8205 59.635 75.7685 55.3984C73.008 49.6649 71.1072 52.7761 70.6104 54.8982Z" fill="#EB9481"/>
<path d="M95.1867 70.2758C95.1867 70.2758 99.7832 70.2341 102.79 70.3326C104.47 70.3857 107.335 70.7116 108.548 71.2421C110.359 72.0417 117.357 76.3996 116.186 77.9116C115.128 79.2796 113.046 77.4796 113.046 77.4796C113.046 77.4796 115.534 79.2568 114.009 80.3331C112.484 81.4093 110.017 78.84 110.017 78.84C110.017 78.84 112.808 80.568 111.054 81.576C109.533 82.4552 106.341 79.7571 106.341 79.7571C106.341 79.7571 109.499 81.2729 108.039 82.3225C106.427 83.4594 101.062 79.9427 101.062 79.9427C97.2171 80.7006 94.7936 80.7006 91.9683 80.2952C91.4499 80.2194 95.1867 70.2758 95.1867 70.2758Z" fill="#EB9481"/>
<path d="M110.787 79.4388L110.16 78.859C109.773 78.4747 109.36 78.1103 108.925 77.7676C108.493 77.4417 108.061 77.131 107.585 76.8354C107.11 76.5398 106.575 76.2442 106.099 75.9221C106.06 75.8956 106.017 75.9449 106.06 75.9676C106.532 76.2867 106.985 76.627 107.417 76.987C107.849 77.328 108.281 77.6767 108.713 78.0215C109.145 78.3663 109.577 78.6733 110.009 79.003C110.221 79.1659 110.441 79.3364 110.635 79.507C110.82 79.6821 111.02 79.8431 111.236 79.9882C111.257 79.9882 111.283 79.9882 111.27 79.9579C111.131 79.7702 110.969 79.5962 110.787 79.4388Z" fill="#263238"/>
<path d="M113.555 77.8585C112.862 77.1239 112.112 76.4326 111.309 75.7895C110.496 75.1507 109.612 74.5857 108.669 74.1031C108.635 74.1031 108.6 74.1259 108.626 74.1486C109.438 74.789 110.264 75.4181 111.089 76.0434C111.49 76.3503 113.27 77.7979 113.478 77.9381C113.525 77.9608 113.586 77.9002 113.555 77.8585Z" fill="#263238"/>
<path d="M108.225 80.9849C107.552 80.3069 106.831 79.6676 106.065 79.0712C105.222 78.5265 104.334 78.0376 103.408 77.6085C103.373 77.6085 103.339 77.6388 103.369 77.6577C104.207 78.2034 105.054 78.7301 105.862 79.3099C106.259 79.5941 107.754 80.7992 108.16 81.0379C108.203 81.0607 108.251 81.0152 108.225 80.9849Z" fill="#263238"/>
<path d="M90.8754 80.8863L96.3575 69.6733C96.3575 69.6733 81.3412 67.4943 80.8789 67.229C80.4167 66.9638 77.6778 58.2177 75.9196 54.7844C74.1613 51.3511 71.1417 49.3351 69.9753 56.7057C68.8089 64.0762 70.498 73.0762 72.1871 74.9482C74.2348 77.2143 82.3434 80.0829 90.8754 80.8863Z" fill="#6E89BE"/>
<path d="M83.1603 79.4691C80.9139 78.9348 78.7236 78.0026 76.5766 77.1954C74.732 76.5171 72.8485 75.6796 71.8246 74.0918C71.3473 73.2834 71.0137 72.4157 70.8353 71.5188C70.5977 70.5183 70.4033 69.5065 70.2392 68.4872C70.0405 67.3251 69.8619 66.1604 69.7035 64.9933C69.6257 64.3945 69.548 63.7958 69.4789 63.1971C69.4097 62.5983 69.2845 61.9996 69.2585 61.3971C69.2585 61.389 69.2549 61.3813 69.2484 61.3756C69.2419 61.37 69.2331 61.3668 69.224 61.3668C69.2148 61.3668 69.206 61.37 69.1995 61.3756C69.1931 61.3813 69.1894 61.389 69.1894 61.3971C69.2369 61.9503 69.1894 62.5074 69.2413 63.0644C69.2413 63.4434 69.2931 63.792 69.3233 64.1558L69.2024 63.9247C69.0693 63.6592 68.968 63.3823 68.9 63.0985C68.9 63.0644 68.8265 63.0796 68.8352 63.0985C68.9129 63.3828 68.9907 63.6708 69.0814 63.9512C69.1246 64.0876 69.1765 64.224 69.2369 64.3604C69.2731 64.4521 69.3149 64.5419 69.3622 64.6295C69.4659 65.7183 69.5998 66.8021 69.764 67.8809C69.9238 68.9268 70.1096 69.9651 70.3213 71.0034C70.478 71.9217 70.7563 72.8208 71.1507 73.6826C71.543 74.4949 72.1431 75.2171 72.9046 75.7933C73.6938 76.3616 74.5654 76.8357 75.4966 77.203C77.6022 78.0563 79.7785 78.7682 82.0068 79.3327C84.6723 80.0678 85.4844 80.0186 83.1603 79.4691Z" fill="#263238"/>
<path d="M88.7977 68.5061C88.2448 68.4417 81.7086 67.2367 81.4537 67.1722C81.3261 67.1381 81.2108 67.0754 81.1192 66.9904C81.0275 66.9054 80.9627 66.8009 80.931 66.6872C80.7279 66.2249 80.5508 65.7512 80.3607 65.2851C80.0324 64.4817 79.6983 63.6821 79.3585 62.8863C79.3585 62.7082 79.3196 62.5074 79.298 62.352C79.2764 62.1966 79.2332 61.9276 79.1943 61.7154C79.1079 61.2569 78.9524 60.8059 78.8876 60.3474C78.8876 60.3019 78.8055 60.3171 78.8185 60.3474C78.9501 60.7989 79.0283 61.2612 79.0518 61.7268C79.0734 61.9087 79.0863 62.1057 79.0993 62.2762C78.9006 61.8101 78.6975 61.344 78.4859 60.8817C78.2396 60.3436 77.9588 59.8017 77.7601 59.2484C77.7601 59.2105 77.6823 59.2295 77.6953 59.2484C77.9199 59.7449 78.0798 60.2716 78.2569 60.7642C78.434 61.2569 78.6241 61.7874 78.8142 62.299C79.1857 63.3032 79.5788 64.2998 79.9763 65.3002C80.1663 65.7815 80.3521 66.2703 80.5551 66.7478C80.6109 66.9266 80.7206 67.0889 80.8726 67.2176C81.0247 67.3463 81.2135 67.4367 81.4191 67.4792C82.5553 67.7482 88.1108 68.5554 88.7848 68.5781C88.8539 68.616 88.8712 68.5137 88.7977 68.5061Z" fill="#263238"/>
<path d="M93.5796 69.8476C92.7156 71.4581 91.8516 73.0573 91.0697 74.7019C90.2787 76.3198 89.5851 77.973 88.9918 79.6548C88.9883 79.6623 88.9884 79.6707 88.9921 79.6782C88.9957 79.6856 89.0026 79.6915 89.0112 79.6945C89.0198 79.6976 89.0294 79.6975 89.0379 79.6943C89.0464 79.6911 89.0531 79.685 89.0566 79.6775C89.9206 78.0973 90.6766 76.4564 91.4412 74.8308C92.2058 73.2051 92.9014 71.5339 93.6746 69.9044C93.7135 69.8362 93.6142 69.7832 93.5796 69.8476Z" fill="#263238"/>
<path d="M109.728 68.5668C109.067 68.8927 105.283 67.9756 103.749 68.9836C102.734 69.6505 101.741 71.2573 101.525 73.3529C101.304 75.5167 103.253 75.4068 103.974 74.4897C104.853 73.2825 105.62 72.0152 106.268 70.7002C106.962 70.8214 107.646 70.9822 108.316 71.1815L109.728 68.5668Z" fill="#AD6359"/>
<path d="M105.089 76.1192C103.918 75.043 98.0686 78.9878 99.9046 80.7803C101.741 82.5727 106.411 77.3394 105.089 76.1192Z" fill="#AD6359"/>
<path d="M107.041 77.6615C105.871 76.5853 100.021 80.5301 101.857 82.3225C103.693 84.115 108.363 78.8817 107.041 77.6615Z" fill="#AD6359"/>
<path d="M108.579 78.2072C107.348 77.3697 102.656 81.6708 104.622 83.0729C106.588 84.475 109.974 79.1545 108.579 78.2072Z" fill="#AD6359"/>
<path d="M110.251 78.4421C108.838 77.9684 105.862 83.1221 108.138 83.9369C110.415 84.7516 111.854 78.9613 110.251 78.4421Z" fill="#AD6359"/>
<path d="M104.915 77.8926C104.59 78.0835 104.284 78.2977 104 78.533C103.684 78.7756 103.373 79.0219 103.088 79.2909C102.81 79.5453 102.549 79.8135 102.306 80.0943C102.051 80.3975 101.84 80.7272 101.58 81.0227C101.576 81.0254 101.572 81.029 101.569 81.0332C101.566 81.0375 101.565 81.0423 101.564 81.0471C101.564 81.052 101.565 81.0569 101.568 81.0613C101.57 81.0657 101.574 81.0695 101.578 81.0725C101.583 81.0754 101.588 81.0774 101.593 81.0781C101.599 81.0789 101.605 81.0785 101.61 81.077C101.615 81.0755 101.62 81.0728 101.624 81.0693C101.628 81.0658 101.631 81.0615 101.632 81.0568C101.888 80.771 102.167 80.5013 102.466 80.2497C102.747 79.992 103.01 79.7229 103.291 79.4615C103.572 79.2 103.822 78.9461 104.099 78.7036C104.375 78.461 104.686 78.2109 104.963 77.9457C104.976 77.9116 104.946 77.8775 104.915 77.8926Z" fill="#263238"/>
<path d="M107.24 78.3739C106.989 78.7112 106.112 80.0185 105.845 80.3482C105.577 80.6779 105.296 81.0076 105.011 81.3297C104.726 81.6518 104.449 82.0042 104.125 82.3074C104.099 82.3339 104.147 82.3756 104.177 82.349C104.501 82.0459 104.855 81.7693 105.162 81.4509C105.469 81.1326 105.749 80.8105 106.026 80.4733C106.506 79.8049 106.939 79.1114 107.322 78.3966C107.322 78.3625 107.261 78.3436 107.24 78.3739Z" fill="#263238"/>
<path d="M108.864 79.1091C108.605 79.6093 108.38 80.1284 108.117 80.6249C107.987 80.8712 107.853 81.1175 107.723 81.3828L107.542 81.7428C107.485 81.8861 107.413 82.0244 107.326 82.1558C107.3 82.1861 107.369 82.2202 107.387 82.1786C107.473 82.0286 107.574 81.8853 107.689 81.7503C107.762 81.6367 107.84 81.523 107.909 81.4093C108.056 81.1567 108.19 80.9103 108.311 80.6703C108.563 80.1794 108.774 79.6727 108.942 79.1546C108.949 79.1455 108.951 79.1344 108.949 79.1238C108.946 79.1131 108.939 79.1037 108.929 79.0977C108.918 79.0917 108.906 79.0895 108.894 79.0916C108.882 79.0937 108.871 79.1 108.864 79.1091Z" fill="#263238"/>
<path d="M112.678 36.0386C112.472 37.7696 111.721 39.4162 110.51 40.7948C109.299 42.1734 107.675 43.2297 105.819 43.8459C103.963 44.4621 101.949 44.614 100.001 44.2846C98.0523 43.9552 96.2466 43.1575 94.7849 41.9805L89.4238 42.6701L92.1066 38.6078C91.4094 37.105 91.1679 35.4695 91.4055 33.8605C91.6431 32.2515 92.3517 30.7239 93.4623 29.4265C94.5728 28.1291 96.0476 27.1061 97.7428 26.4572C99.438 25.8083 101.296 25.5555 103.136 25.7236C105.96 25.9826 108.551 27.2144 110.341 29.1486C112.13 31.0827 112.971 33.5609 112.678 36.0386Z" fill="white"/>
<path d="M112.679 36.0379C112.471 37.7683 111.723 39.415 110.519 40.7975C110.221 41.1427 109.897 41.4705 109.551 41.7789C109.194 42.0784 108.816 42.3581 108.419 42.6164C107.628 43.1438 106.756 43.5687 105.827 43.8783C104.904 44.1975 103.934 44.4004 102.946 44.4808C102.452 44.5218 101.955 44.5307 101.46 44.5073C100.962 44.4963 100.467 44.4507 99.9778 44.3709C98.0046 44.0593 96.1692 43.272 94.6772 42.0972L94.8068 42.1313L89.4586 42.821L89.0698 42.8741L89.2642 42.5747L91.9297 38.5048V38.664C91.3047 37.3213 91.0381 35.8709 91.1504 34.424C91.2628 32.977 91.751 31.5718 92.5777 30.3158C93.4112 29.0626 94.5573 27.9912 95.93 27.1819C97.6361 26.1799 99.6324 25.6253 101.685 25.5831C103.738 25.5408 105.761 26.0126 107.519 26.9433C109.277 27.8739 110.696 29.2248 111.61 30.8376C112.523 32.4503 112.894 34.2582 112.679 36.0492V36.0379ZM112.679 36.0379C112.849 34.6233 112.648 33.1931 112.089 31.8576C111.531 30.5221 110.63 29.3169 109.457 28.3347C108.284 27.3525 106.87 26.6196 105.323 26.1925C103.776 25.7653 102.138 25.6552 100.535 25.8707C98.9486 26.0751 97.4358 26.5935 96.1114 27.3865C94.8034 28.1925 93.711 29.2386 92.9103 30.4522C92.119 31.6696 91.6537 33.0289 91.5495 34.4273C91.4513 35.8223 91.7081 37.219 92.3012 38.5162L92.3401 38.5996L92.2882 38.6791L89.5925 42.7339L89.4025 42.4838L94.7636 41.8244H94.837L94.8932 41.8661C96.3231 43.0406 98.0969 43.8435 100.017 44.1852C100.497 44.2691 100.983 44.3211 101.473 44.3406C101.96 44.3709 102.449 44.3709 102.937 44.3406C103.915 44.2743 104.878 44.0881 105.797 43.7873C106.725 43.4962 107.599 43.0849 108.389 42.5671C109.192 42.0681 109.902 41.462 110.493 40.7709C111.701 39.3985 112.458 37.7613 112.679 36.0379Z" fill="#263238"/>
<path d="M100.773 40.4185L96.2021 36.3562L97.7357 35.0261L100.41 37.3983L105.961 29.7625L107.78 30.7819L100.773 40.4185Z" fill="#FEC7A0"/>
</svg>
