<svg width="33" height="34" viewBox="0 0 33 34" fill="none" xmlns="http://www.w3.org/2000/svg">
<path fill-rule="evenodd" clip-rule="evenodd" d="M29.8045 32.3632C30.3903 32.949 31.34 32.949 31.9258 32.3632C32.5116 31.7774 32.5116 30.8276 31.9258 30.2419L18.7961 17.1122L31.8931 4.01517C32.4789 3.42938 32.4789 2.47963 31.8931 1.89385C31.3074 1.30806 30.3576 1.30806 29.7718 1.89385L16.6748 14.9909L2.90229 1.21836C2.3165 0.632575 1.36675 0.632575 0.780967 1.21836C0.195181 1.80415 0.195181 2.7539 0.780967 3.33968L14.5535 17.1122L0.748325 30.9173C0.162538 31.5031 0.162539 32.4529 0.748325 33.0387C1.33411 33.6245 2.28386 33.6245 2.86965 33.0387L16.6748 19.2335L29.8045 32.3632Z" fill="#455A64"/>
</svg>
