<svg width="375" height="308" viewBox="0 0 375 308" fill="none" xmlns="http://www.w3.org/2000/svg">
<path d="M-398.736 18.683C-289.429 -15.3476 -228.236 37.0453 -70.1179 18.683C88 0.320774 95.9594 33.6625 258.5 18.683C421.041 3.70356 473.405 32.4989 600.338 18.683C727.27 4.86719 806.429 -15.3476 915.736 18.683C1093.42 74.0022 1093.42 233.713 915.736 289.033C806.429 323.063 821.946 264.405 587.118 289.033C352.29 313.661 303.324 296.611 258.5 289.033C213.676 281.454 80.8784 274.256 -70.1179 289.033C-221.114 303.81 -289.429 323.063 -398.736 289.033C-576.421 233.713 -576.421 74.0022 -398.736 18.683Z" fill="#F9FBFC"/>
</svg>
