<svg width="216" height="216" viewBox="0 0 216 216" fill="none" xmlns="http://www.w3.org/2000/svg">
<path d="M133.92 162.39L146.682 167.962C146.682 167.962 151.939 162.466 150.827 156.481C148.557 144.272 159.415 143.136 163.886 141.978C170.634 140.237 175.071 136.115 170.46 130.176C165.243 123.458 175.612 116.151 186.919 114.911C197.981 113.694 202.202 93.3282 178.017 93.7649C163.572 94.021 159.892 107.61 156.399 114.026C152.906 120.442 142.746 116.669 142.583 126.299C142.444 134.525 145.745 142.007 139.445 144.959C133.163 147.905 130.386 153.08 133.92 162.39Z" fill="#FEC7A0"/>
<g opacity="0.5">
<path opacity="0.5" d="M138.927 165.982L139.213 166.052C139.253 165.877 143.474 148.143 152.964 131.824C161.703 116.791 176.829 99.9189 199.262 104.908L199.326 104.623C189.341 102.399 179.95 104.251 171.409 110.125C164.585 114.818 158.297 122.066 152.708 131.684C143.201 148.039 138.968 165.808 138.927 165.982Z" fill="#BEB8F2"/>
<path opacity="0.5" d="M167.95 112.733L168.23 112.815C171.007 103.43 179.909 92.2686 180.002 92.158L179.775 91.9717C179.682 92.0881 170.739 103.296 167.95 112.733Z" fill="#BEB8F2"/>
<path opacity="0.5" d="M173.743 108.972C185.276 107.278 192.572 113.688 192.641 113.752L192.839 113.531C192.764 113.467 185.381 106.964 173.702 108.675L173.743 108.972Z" fill="#BEB8F2"/>
<path opacity="0.5" d="M147.346 142.828C155.904 131.44 174.541 135.865 174.715 135.923L174.826 135.649C174.657 135.573 155.741 131.16 147.113 142.653L147.346 142.828Z" fill="#BEB8F2"/>
<path opacity="0.5" d="M149.61 137.407L149.896 137.466C151.759 128.569 145.36 119.097 145.296 119.004L145.052 119.173C145.116 119.266 151.444 128.639 149.61 137.407Z" fill="#BEB8F2"/>
<path opacity="0.5" d="M139.94 163.275C142.485 158.501 151.253 157.668 151.34 157.657L151.317 157.365C150.95 157.4 142.304 158.221 139.684 163.135L139.94 163.275Z" fill="#BEB8F2"/>
<path opacity="0.5" d="M140.883 159.066L141.168 159.135C142.193 154.984 138.234 148.126 136.93 145.873C136.744 145.552 136.586 145.279 136.569 145.226L136.29 145.32C136.313 145.395 136.418 145.582 136.674 146.024C137.96 148.248 141.879 155.025 140.883 159.066Z" fill="#BEB8F2"/>
</g>
<path d="M76.9039 138.752C80.6824 139.946 82.0448 143.538 82.627 146.298C82.3592 146.566 82.2719 146.793 82.0623 147.125C80.1642 150.117 78.7204 150.985 76.3857 153.639C75.885 154.21 73.8997 155.438 73.0555 155.887L71.4719 156.702C71.4719 156.702 63.1695 152.912 64.7939 147.98C66.4183 143.049 58.9893 138.45 55.3505 135.527C53.1206 133.734 52.6723 132.197 51.9562 131.405C44.3933 123.033 39.6366 123.114 38.8506 118.882C37.9831 114.212 43.5316 112.774 42.8562 107.639C42.0935 101.846 34.5015 99.785 35.0022 94.1376C35.0895 93.1711 35.2002 92.1755 35.8173 91.0344C37.3311 88.2165 40.3527 87.6925 40.0907 84.3565C39.5609 77.6552 43.3919 71.2567 50.2969 71.8448C57.1087 72.4212 60.928 83.2444 57.7841 98.1083C56.7536 108.937 58.1684 110.469 62.3195 113.49C65.2247 115.61 74.5168 119.429 73.5154 125.629C72.4965 131.842 72.5781 137.39 76.9039 138.752Z" fill="#FEC7A0"/>
<g opacity="0.5">
<path opacity="0.5" d="M77.7829 152.428L77.5791 152.591C76.6825 151.468 75.7859 150.327 74.9301 149.197C68.5665 140.813 63.2742 132.092 59.2162 123.283C55.7753 115.819 53.167 108.18 51.4553 100.588C50.0813 94.4811 49.2837 88.3679 49.0741 82.4177C48.9286 78.2374 49.0799 74.1794 49.5224 70.3543C49.5981 69.6906 49.7145 69.0094 49.8252 68.3515C49.9765 67.4782 50.1279 66.5699 50.1919 65.6908H50.4481C50.3841 66.5816 50.2269 67.4956 50.0813 68.3748C49.9707 69.0269 49.8543 69.708 49.7786 70.3659C49.3419 74.1736 49.1905 78.22 49.3361 82.3944C49.5399 88.3271 50.3375 94.4287 51.7115 100.519C53.4174 108.099 56.0199 115.714 59.4549 123.167C63.5071 131.964 68.7877 140.668 75.1455 149.04C75.9955 150.169 76.8863 151.311 77.7829 152.428Z" fill="#FCFDFE"/>
<path opacity="0.5" d="M54.1803 109.642L53.9416 109.735C50.5007 99.9132 34.9732 90.8656 34.8218 90.7783L34.9615 90.5629C35.1129 90.6502 50.7103 99.7385 54.1803 109.642Z" fill="#FCFDFE"/>
<path opacity="0.5" d="M66.3486 136.115L66.1157 136.237C62.9543 129.885 68.8055 116.751 68.8638 116.617L69.0966 116.704C69.0384 116.832 63.2338 129.868 66.3486 136.115Z" fill="#FCFDFE"/>
<path opacity="0.5" d="M68.4734 139.544L68.2638 139.701C65.4517 136.033 59.484 132.633 51.4728 130.141C51.0711 130.013 51.0711 130.013 51.042 129.978L51.2458 129.821L51.141 129.903L51.2108 129.792C51.2341 129.804 51.3913 129.85 51.566 129.909C59.6296 132.418 65.6322 135.841 68.4734 139.544Z" fill="#FCFDFE"/>
<path opacity="0.5" d="M76.1705 150.362L75.9318 150.455C74.2201 145.628 78.4993 138.805 78.5401 138.735L78.7555 138.851C78.7148 138.921 74.4996 145.646 76.1705 150.362Z" fill="#FCFDFE"/>
<path opacity="0.5" d="M77.5152 152.72C73.9114 150.641 69.504 149.546 64.0312 149.372L64.0604 149.121C69.5739 149.296 74.022 150.402 77.655 152.504L77.5152 152.72Z" fill="#FCFDFE"/>
<path opacity="0.5" d="M49.5052 85.8876L49.2606 85.9691C47.6654 80.3799 44.6321 74.9654 43.6365 73.1896C43.3978 72.7588 43.3104 72.6074 43.293 72.5492L43.5375 72.4561C43.555 72.5026 43.6889 72.7472 43.8635 73.0557C44.8649 74.8431 47.9041 80.2751 49.5052 85.8876Z" fill="#FCFDFE"/>
<path opacity="0.5" d="M50.6868 95.4417L50.4307 95.4534C50.6228 89.9049 58.9775 81.7831 59.3326 81.4396L59.5073 81.6084C59.42 81.6899 50.8731 89.9981 50.6868 95.4417Z" fill="#FCFDFE"/>
</g>
<path d="M158.88 150.862C158.029 150.944 158.029 146.455 154.373 141.541C153.459 140.313 148.947 133.268 142.77 134.45C141.57 134.677 140.371 134.91 139.172 135.137C137.536 132.697 136.447 130.095 139.824 128.249C145.064 125.379 142.933 116.023 140.592 113.077C137.687 109.426 131.12 100.804 139.148 96.2451C145.838 92.4549 150.956 91.2847 149.331 82.4293C147.707 73.568 151.451 66.96 159.992 65.5568C168.981 64.0838 173.545 51.316 181.708 53.377C195.931 56.9692 189.16 78.8545 175.135 87.9428C161.115 97.0311 171.205 100.245 173.359 107.301C173.522 107.971 173.726 109.013 173.726 110.294C173.743 118.177 166.215 121.251 162.023 128.668C156.306 138.787 160.312 150.723 158.88 150.862Z" fill="#FEC7A0"/>
<g opacity="0.5">
<path opacity="0.5" d="M149.902 131.97L149.471 131.981C148.749 102.358 163.252 72.3687 187.326 53.7263L187.594 54.0407C163.625 72.6074 149.18 102.469 149.902 131.97Z" fill="#FCFDFE"/>
<path opacity="0.5" d="M150.973 115.767L150.554 115.86C147.841 104.53 135.434 98.0093 135.306 97.9452L135.515 97.5901C135.638 97.6541 148.213 104.256 150.973 115.767Z" fill="#FCFDFE"/>
<path opacity="0.5" d="M149.925 126.514L149.512 126.41C152.883 114.998 174.698 108.588 174.914 108.524L175.036 108.914C174.815 108.978 153.232 115.318 149.925 126.514Z" fill="#FCFDFE"/>
<path opacity="0.5" d="M159.962 87.8788L159.543 87.8089C161.394 78.5809 152.521 67.0182 152.428 66.9018L152.778 66.6572C152.865 66.7795 161.848 78.4877 159.962 87.8788Z" fill="#FCFDFE"/>
<path opacity="0.5" d="M170.133 71.5769L169.836 71.2916C177.923 63.7462 193.189 63.4784 193.34 63.4784V63.8859C193.189 63.8801 178.092 64.1421 170.133 71.5769Z" fill="#FCFDFE"/>
</g>
<path d="M115.167 168.515C114.975 169.347 110.719 167.909 104.891 169.79C103.435 170.262 95.3136 172.276 94.4519 178.506C94.2831 179.717 94.1142 180.922 93.9512 182.133C91.1158 182.895 88.3038 183.093 87.64 179.303C86.6037 173.417 77.0555 172.433 73.5156 173.708C69.1316 175.286 58.8498 178.744 57.1148 169.673C55.6651 162.122 56.2065 156.9 47.2929 155.596C38.3792 154.291 33.3198 148.627 34.7346 140.086C36.2251 131.096 25.5997 122.677 30.1643 115.609C38.1289 103.29 56.6839 116.727 60.7943 132.924C64.9047 149.121 71.181 140.592 78.5634 140.819C79.2446 140.877 80.3042 141.023 81.5152 141.43C88.9849 143.94 89.4856 152.062 95.1622 158.414C102.906 167.077 115.493 167.112 115.167 168.515Z" fill="#FEC7A0"/>
<g opacity="0.5">
<path opacity="0.5" d="M94.3935 170.954L94.2712 171.368C65.9816 162.547 42.2333 139.189 32.2949 110.405L32.6792 110.247C42.5709 138.91 66.2203 162.169 94.3935 170.954Z" fill="#FCFDFE"/>
<path opacity="0.5" d="M79.3898 164.742L79.3432 165.167C67.7397 164.102 57.586 173.761 57.4812 173.86L57.2134 173.545C57.3182 173.452 67.6058 163.659 79.3898 164.742Z" fill="#FCFDFE"/>
<path opacity="0.5" d="M89.2353 169.184L89.0024 169.54C79.2737 162.687 80.2052 139.969 80.2169 139.742L80.6244 139.754C80.6069 139.981 79.6929 162.46 89.2353 169.184Z" fill="#FCFDFE"/>
<path opacity="0.5" d="M55.8629 147.282L55.6591 147.66C47.514 142.95 33.7156 147.643 33.5759 147.689L33.4595 147.282C33.605 147.229 47.5722 142.478 55.8629 147.282Z" fill="#FCFDFE"/>
<path opacity="0.5" d="M43.6826 132.418L43.3159 132.61C38.763 122.526 43.409 107.988 43.4556 107.843L43.8398 107.971C43.7933 108.111 39.1996 122.491 43.6826 132.418Z" fill="#FCFDFE"/>
</g>
<path d="M163.257 48.6844L56.9341 42.5363C54.483 42.414 52.2822 45.0864 52.2822 47.3337V184.24C52.2822 187.349 55.4611 187.978 57.9122 187.728L163.257 176.969C165.184 176.771 166.733 175.012 166.733 173.033V52.4338C166.733 50.4543 165.179 48.7776 163.257 48.6844Z" fill="black"/>
<path d="M165.004 47.5957L58.4711 42.3558C56.02 42.2336 54.0288 43.9685 54.0288 46.2333V184.211C54.0288 186.47 56.0258 188.1 58.4711 187.85L165.004 176.887C166.931 176.689 168.48 174.913 168.48 172.922V51.3743C168.486 49.3831 166.931 47.6947 165.004 47.5957Z" fill="#D8DEE8"/>
<path opacity="0.3" d="M58.471 185.975C57.1494 186.109 56.0723 185.224 56.0723 184.008V46.3266C56.0723 45.1098 57.1494 44.1666 58.471 44.2306L165.004 49.2609C166.046 49.3075 166.89 50.2274 166.89 51.3045V173.074C166.89 174.151 166.046 175.111 165.004 175.216L58.471 185.975Z" fill="#EBEBEB"/>
<path d="M158.14 171.956L67.0239 180.736V53.7089L158.14 57.1381V171.956Z" fill="white"/>
<path opacity="0.3" d="M121.693 57.7611L85.2759 58.2152L86.091 50.0002C86.155 48.9348 86.9235 48.0556 87.9424 47.8984L94.108 46.9494C94.8358 46.8388 95.4587 46.3556 95.779 45.6686L96.4485 44.2189L112.582 45.2144L121.693 57.7611Z" fill="#97A6B7"/>
<path d="M141.139 52.4339C140.965 51.5024 140.219 50.8503 139.282 50.8095L133.466 50.5475C130.822 50.4311 128.89 48.2827 128.983 45.5638L129.21 39.2643C129.251 38.0999 128.418 37.1683 127.277 37.0985L125.367 36.982C123.912 36.8947 122.939 35.608 123.143 34.1234C123.498 31.5267 121.723 29.2852 119.143 29.1105C116.547 28.9359 114.119 30.9212 113.735 33.547C113.676 33.9371 113.542 34.3213 113.333 34.6707C112.733 35.6313 111.679 36.1669 110.649 36.1029L108.675 35.9865C107.482 35.9166 106.346 36.755 106.044 37.931L104.402 44.3237C103.691 47.0892 101.019 49.0862 98.1779 48.9581L91.7969 48.6728C90.7489 48.6262 89.7243 49.2376 89.2468 50.1924L85.3984 57.8252C85.084 58.4481 85.4741 59.1235 86.1553 59.1468L141.506 60.9866C142.112 61.004 142.624 60.4044 142.513 59.8047L141.139 52.4339ZM118.357 34.5659C117.595 34.5193 117.065 33.8556 117.175 33.087C117.286 32.3185 117.996 31.7305 118.759 31.7829C119.522 31.8353 120.046 32.4932 119.935 33.2617C119.825 34.0302 119.12 34.6183 118.357 34.5659Z" fill="url(#paint0_linear_108_194831)"/>
<path d="M141.471 52.6027C141.297 51.6712 140.551 51.0191 139.614 50.9784L133.798 50.7164C131.154 50.5999 129.222 48.4516 129.315 45.7326L129.542 39.4331C129.583 38.2687 128.75 37.3372 127.609 37.2673L125.699 37.1509C124.244 37.0635 123.271 35.7768 123.475 34.2922C123.83 31.6955 122.055 29.454 119.475 29.2794C116.879 29.1047 114.451 31.09 114.067 33.7158C114.008 34.1059 113.875 34.4902 113.665 34.8395C113.065 35.8001 112.011 36.3358 110.981 36.2717L109.007 36.1553C107.814 36.0854 106.678 36.9238 106.376 38.0999L104.734 44.4925C104.024 47.258 101.351 49.255 98.51 49.1269L92.129 48.8416C91.081 48.7951 90.0563 49.4064 89.5789 50.3612L85.7305 57.994C85.4161 58.617 85.8061 59.2923 86.4873 59.3156L141.838 61.1554C142.444 61.1729 142.956 60.5732 142.845 59.9735L141.471 52.6027ZM118.684 34.7405C117.921 34.6939 117.391 34.0302 117.502 33.2617C117.612 32.4932 118.323 31.9051 119.085 31.9575C119.848 32.0099 120.372 32.6678 120.261 33.4364C120.151 34.199 119.446 34.7871 118.684 34.7405Z" fill="#97A6B7"/>
<path opacity="0.5" d="M131.999 56.1135C127.062 53.0627 123.271 55.2285 120.197 51.7876C116.902 48.1081 119.126 43.2641 115.714 40.976C113.531 39.5146 111.586 40.8013 109.048 40.4054C108.116 40.2599 107.127 39.8931 106.096 39.1711L104.728 44.5042C104.018 47.2697 101.345 49.2667 98.5041 49.1386L92.1231 48.8533C91.0751 48.8067 90.0504 49.418 89.573 50.3729L85.7246 58.0057C85.4102 58.6286 85.8003 59.304 86.4815 59.3273L136.784 60.9982C135.515 58.9838 133.943 57.3128 131.999 56.1135Z" fill="#DEE2E9"/>
<path d="M149.191 75.3031L78.0684 75.047V71.5886L149.191 72.0544V75.3031Z" fill="#EBEBEB"/>
<path d="M149.191 96.2045L78.0684 97.2758V93.8174L149.191 92.95V96.2045Z" fill="#EBEBEB"/>
<path d="M149.191 105.258L78.0684 106.905V103.447L149.191 102.009V105.258Z" fill="#EBEBEB"/>
<path d="M149.191 114.317L78.0684 116.535V113.083L149.191 111.062V114.317Z" fill="#EBEBEB"/>
<path d="M149.191 123.138L78.0684 125.921V122.713L149.191 120.122V123.138Z" fill="#EBEBEB"/>
<path d="M149.191 132.197L78.0684 135.556V132.342L149.191 129.175V132.197Z" fill="#EBEBEB"/>
<path d="M109.054 157.68L78.0684 159.758V158.769L109.054 156.719V157.68Z" fill="#D8DEE8"/>
<path d="M149.191 141.483L131.929 142.438V139.841L149.191 138.927V141.483Z" fill="#EBEBEB"/>
<path d="M149.191 148.219L131.929 149.273V146.682L149.191 145.663V148.219Z" fill="#EBEBEB"/>
<path d="M149.191 154.949L131.929 156.108V153.284L149.191 152.167V154.949Z" fill="#EBEBEB"/>
<path d="M84.4028 161.249C84.4028 161.249 84.7405 160.661 85.3577 159.642C85.6604 159.136 86.0388 158.524 86.4755 157.826C86.9122 157.127 87.4129 156.347 87.9776 155.508C88.5423 154.67 89.1595 153.768 89.8698 152.848C90.2308 152.394 90.6034 151.928 91.0517 151.485C91.1623 151.375 91.2846 151.27 91.4126 151.165C91.5465 151.06 91.6805 150.961 91.8668 150.88C91.9599 150.839 92.0705 150.804 92.2103 150.804C92.2801 150.804 92.3558 150.816 92.4315 150.851C92.5072 150.88 92.5771 150.932 92.6295 150.991C92.8391 151.223 92.839 151.48 92.874 151.602C92.9846 152.242 93.037 152.9 93.0195 153.576C93.0079 153.913 92.9788 154.257 92.9264 154.6C92.874 154.944 92.7983 155.293 92.6586 155.654C92.5887 155.835 92.5014 156.015 92.3616 156.201C92.2918 156.294 92.2044 156.388 92.0764 156.463C91.9541 156.539 91.7794 156.586 91.6281 156.562C91.4767 156.539 91.3486 156.463 91.2671 156.399L91.2438 156.382L91.2089 156.353C91.1856 156.335 91.1681 156.318 91.1506 156.3C91.1099 156.265 91.075 156.225 91.04 156.178C90.9702 156.085 90.9003 155.968 90.8654 155.829C90.8304 155.689 90.8304 155.532 90.8537 155.392C90.9119 155.113 91.0458 154.915 91.1681 154.757C91.2962 154.594 91.4359 154.466 91.5757 154.35C91.8551 154.117 92.1404 153.931 92.4373 153.768C93.0254 153.442 93.625 153.197 94.2422 152.999C94.8593 152.813 95.4823 152.667 96.1285 152.65C96.4546 152.644 96.7864 152.661 97.1358 152.801C97.3104 152.871 97.4909 152.988 97.6306 153.185C97.6481 153.209 97.6656 153.238 97.6772 153.261C97.6947 153.29 97.7063 153.319 97.7121 153.331L97.7645 153.436L97.8693 153.645C98.0091 153.925 98.1372 154.193 98.2769 154.437C98.4166 154.676 98.568 154.891 98.7368 155.037C98.9057 155.182 99.092 155.258 99.3074 155.27C99.5228 155.281 99.7557 155.229 99.9944 155.142C100.466 154.967 100.926 154.682 101.357 154.373C101.805 154.059 102.242 153.75 102.673 153.465C102.888 153.319 103.103 153.18 103.33 153.052C103.552 152.923 103.785 152.801 104.047 152.72C104.303 152.632 104.588 152.615 104.827 152.638C105.065 152.661 105.275 152.702 105.473 152.737C105.572 152.755 105.671 152.772 105.764 152.79C105.857 152.807 105.968 152.825 106.02 152.83C106.16 152.842 106.282 152.813 106.37 152.755C106.463 152.696 106.538 152.609 106.597 152.493C106.655 152.376 106.69 152.242 106.707 152.103C106.742 151.829 106.701 151.555 106.62 151.34C106.544 151.119 106.422 150.956 106.3 150.839C106.177 150.723 106.044 150.659 105.927 150.618C105.811 150.577 105.718 150.566 105.653 150.554C105.589 150.548 105.555 150.548 105.555 150.548C105.473 150.548 105.415 150.472 105.421 150.385C105.426 150.309 105.479 150.245 105.543 150.234C105.543 150.234 105.584 150.228 105.665 150.216C105.747 150.205 105.863 150.193 106.02 150.216C106.177 150.234 106.375 150.292 106.573 150.426C106.777 150.554 106.969 150.769 107.115 151.06C107.255 151.352 107.348 151.718 107.324 152.137C107.313 152.347 107.266 152.574 107.167 152.801C107.068 153.028 106.905 153.261 106.672 153.407C106.439 153.558 106.177 153.616 105.927 153.599C105.787 153.593 105.706 153.57 105.601 153.552C105.502 153.535 105.403 153.517 105.304 153.5C105.106 153.465 104.902 153.424 104.716 153.407C104.53 153.389 104.367 153.407 104.186 153.465C103.825 153.587 103.412 153.855 102.999 154.129C102.579 154.408 102.149 154.717 101.7 155.031C101.24 155.351 100.745 155.672 100.169 155.893C99.878 155.998 99.5636 156.079 99.2201 156.062C99.0512 156.056 98.8766 156.015 98.7135 155.951C98.5505 155.887 98.3992 155.788 98.2652 155.677C97.9974 155.45 97.8111 155.171 97.6481 154.891C97.4851 154.612 97.3512 154.332 97.2173 154.059L97.1183 153.861L97.0659 153.756C97.0542 153.733 97.0543 153.727 97.0484 153.721C97.0426 153.715 97.0426 153.709 97.0368 153.704C97.0018 153.651 96.932 153.599 96.833 153.558C96.6351 153.477 96.3672 153.453 96.0936 153.459C95.5463 153.477 94.9641 153.605 94.3936 153.785C93.823 153.966 93.2582 154.199 92.7343 154.495C92.4723 154.641 92.2161 154.804 91.9948 154.99C91.8842 155.083 91.7853 155.177 91.7037 155.276C91.6222 155.369 91.5757 155.474 91.564 155.52C91.5582 155.543 91.5582 155.561 91.564 155.578C91.5698 155.596 91.5757 155.619 91.6048 155.648C91.6164 155.666 91.6281 155.677 91.6455 155.695L91.6688 155.718L91.6805 155.73L91.7037 155.747C91.7387 155.776 91.7503 155.776 91.7503 155.776C91.7445 155.776 91.727 155.782 91.7387 155.776C91.7503 155.77 91.7736 155.747 91.8027 155.712C91.8609 155.637 91.925 155.514 91.9774 155.386C92.0822 155.124 92.152 154.821 92.1986 154.525C92.2452 154.222 92.2743 153.913 92.286 153.605C92.3092 152.993 92.2627 152.382 92.1637 151.8L92.1462 151.689L92.1404 151.66L92.1346 151.643C92.1346 151.631 92.1288 151.619 92.1288 151.614C92.1171 151.579 92.1055 151.555 92.1113 151.567C92.1171 151.579 92.152 151.59 92.152 151.584C92.152 151.584 92.1171 151.59 92.0764 151.608C91.9948 151.643 91.89 151.712 91.7911 151.794C91.6921 151.875 91.5873 151.969 91.4883 152.062C91.0866 152.452 90.7198 152.9 90.3705 153.337C89.6718 154.222 89.0489 155.107 88.4841 155.928C87.3546 157.581 86.458 159.002 85.8292 159.997C85.2005 160.993 84.857 161.569 84.857 161.569C84.7696 161.715 84.595 161.761 84.4669 161.674C84.3504 161.575 84.3155 161.395 84.4028 161.249Z" fill="#97A6B7"/>
<path d="M147.497 181.213C147.497 181.213 147.899 182.831 147.91 183.414C147.922 184.002 141.477 184.817 141.372 184.386C141.273 183.955 142.35 183.169 143.13 182.861C143.911 182.552 146.193 181.708 146.193 181.708L147.497 181.213Z" fill="#FEC7A0"/>
<path d="M145.791 179.705L146.158 181.725C146.158 181.725 146.95 182.162 147.578 181.725L147.73 179.484L145.791 179.705Z" fill="#FFDEB4"/>
<path d="M159.252 182.942C159.252 182.942 159.654 184.561 159.665 185.143C159.677 185.731 153.232 186.546 153.127 186.115C153.028 185.684 154.105 184.898 154.885 184.59C155.665 184.281 157.948 183.437 157.948 183.437L159.252 182.942Z" fill="#FEC7A0"/>
<path d="M157.552 181.434L157.924 183.454C157.924 183.454 158.716 183.891 159.345 183.454L159.496 181.213L157.552 181.434Z" fill="#FFDEB4"/>
<path d="M142.705 126.415C142.076 127.993 141.453 129.571 140.825 131.143C140.918 139.847 141.372 149.279 142.368 159.328C143.113 166.803 144.079 173.865 145.185 180.479C146.199 180.351 147.206 180.223 148.219 180.095C149.453 177.068 150.833 172.521 150.553 167.059C150.262 161.365 148.481 160.754 148.155 155.305C147.73 148.248 150.536 146.129 151.433 137.53C151.776 134.24 151.84 129.973 150.949 124.878C148.201 125.396 145.453 125.909 142.705 126.415Z" fill="#455A64"/>
<path opacity="0.3" d="M150.949 124.884C149.465 125.158 147.98 125.437 146.495 125.711C144.178 130.613 143.817 135.556 144.463 137.675C145.377 140.674 147.223 141.512 147.374 144.586C147.52 147.631 145.797 148.557 144.947 152.225C144.359 154.763 144.749 157.022 145.552 161.441C147.171 170.337 149.558 172.905 147.98 175.991C147.532 176.87 146.682 177.935 144.923 178.843C145.011 179.391 145.098 179.938 145.191 180.479C146.204 180.351 147.211 180.223 148.224 180.095C149.459 177.068 150.839 172.521 150.559 167.059C150.268 161.365 148.486 160.754 148.16 155.305C147.735 148.248 150.542 146.129 151.438 137.53C151.776 134.246 151.846 129.978 150.949 124.884Z" fill="url(#paint1_linear_108_194831)"/>
<path d="M146.95 128.826C148.97 136.371 150.862 144.464 152.527 153.081C154.536 163.479 155.951 173.324 156.935 182.488C158.052 182.43 159.164 182.372 160.282 182.313C163.974 173.283 163.77 167.38 162.832 163.601C162.471 162.146 161.575 159.304 161.08 154.99C160.731 151.986 160.742 149.675 160.76 146.897C160.8 140.808 161.336 139.434 161.057 134.799C160.795 130.45 160.637 128.249 159.293 127.067C155.753 123.953 147.567 128.476 146.95 128.826Z" fill="#455A64"/>
<path d="M114.556 111.295C114.556 111.295 112.104 111.086 111.749 110.69C111.394 110.294 111.167 110.271 111.115 109.91C111.062 109.543 110.032 109.723 110.457 110.509C110.888 111.301 109.915 110.888 109.729 110.864C109.292 110.818 107.627 110.771 107.674 110.876C107.72 110.981 106.929 112.017 108.11 112.553C109.147 113.024 108.844 112.815 109.519 112.85C110.195 112.885 112.279 112.204 112.279 112.204L114.066 112.337L114.556 111.295Z" fill="#FFDEB4"/>
<path d="M113.118 110.154C113.007 110.969 112.902 111.79 112.792 112.605C114.416 113.962 118.002 116.553 122.998 116.943C131.801 117.63 140.534 111.115 142.158 103.785C142.962 100.158 142.304 95.0633 140.051 94.2424C139.422 94.0153 138.484 94.0445 136.546 95.3486C131.37 98.8244 130.933 103.389 128.069 106.48C126.014 108.705 121.967 110.958 113.118 110.154Z" fill="#6E89BE"/>
<path d="M140.097 132.767C138.886 131.085 140.091 129.268 140.126 125.891C140.167 122.066 138.653 121.548 136.703 115.365C135.404 111.255 134.158 107.307 134.886 102.51C135.236 100.21 135.824 96.315 138.845 94.2132C140.406 93.1303 142.641 93.043 147.054 92.9207C152.516 92.7694 155.24 92.6937 157.354 93.5961C157.662 93.73 164.096 96.5887 164.957 102.021C165.836 107.552 159.834 108.786 159.624 116.267C159.531 119.627 160.585 124.698 161.272 127.987C161.93 131.143 162.273 131.94 161.72 132.959C160.387 135.41 155.689 135.119 146.292 134.537C142.6 134.316 140.999 134.025 140.097 132.767Z" fill="#6E89BE"/>
<path opacity="0.3" d="M152.952 115.61C153.459 117.024 154.961 117.991 156.224 121.432C156.498 122.177 158.442 127.463 156.585 128.948C155.514 129.81 154.378 128.43 151.613 128.465C146.821 128.517 144.871 132.703 141.669 131.859C141.116 131.713 140.37 131.364 139.579 130.491C139.503 131.341 139.584 132.069 140.091 132.767C140.993 134.025 142.594 134.316 146.28 134.543C155.677 135.125 160.375 135.416 161.708 132.965C162.262 131.946 161.918 131.155 161.26 127.993C160.573 124.704 159.519 119.633 159.612 116.273C159.828 108.786 165.825 107.558 164.946 102.027C164.713 100.548 164.055 99.2669 163.234 98.1724C155.805 101.899 151.351 111.161 152.952 115.61Z" fill="url(#paint2_linear_108_194831)"/>
<path d="M168.066 132.703C168.066 132.703 169.562 133.204 169.72 135.684C169.475 135.661 168.905 135.672 168.905 135.672C168.905 135.672 169.009 133.868 167.944 133.507C168.031 133.303 168.066 132.703 168.066 132.703Z" fill="#FEC7A0"/>
<path d="M162.512 132.47C162.553 132.925 162.588 133.384 162.629 133.839C163.38 133.646 164.201 133.419 165.086 133.39C166.227 133.35 167.269 133.489 168.195 133.722C168.235 133.664 168.323 133.53 168.363 133.309C168.427 132.948 168.317 132.651 168.299 132.598C167.828 132.424 167.315 132.278 166.768 132.173C165.185 131.871 163.752 132.115 162.512 132.47Z" fill="#FEC7A0"/>
<path d="M162.442 132.866C162.442 132.703 162.46 132.494 162.512 132.47C162.565 132.447 162.634 132.598 162.669 132.68C162.681 132.715 162.71 132.796 162.728 133.064C162.751 133.408 162.722 133.577 162.698 133.681C162.687 133.745 162.664 133.839 162.629 133.839C162.599 133.839 162.576 133.78 162.541 133.664C162.495 133.507 162.436 133.245 162.442 132.866Z" fill="url(#paint3_linear_108_194831)"/>
<path d="M161.045 135.731C161.365 135.795 162.134 135.975 162.134 135.975C162.134 135.975 161.633 134.368 162.576 133.641C162.599 133.518 162.623 133.326 162.594 133.099C162.57 132.919 162.524 132.779 162.483 132.68C162.087 132.895 161.208 133.641 161.045 135.731Z" fill="#FEC7A0"/>
<path d="M154.408 136.086C154.408 136.086 154.448 135.236 155.799 135.248C156.009 135.405 156.02 136.098 156.02 136.098L154.408 136.086Z" fill="url(#paint4_linear_108_194831)"/>
<path d="M153.208 152.854L156.9 155.031L159.118 146.804L155.456 135.789L154.408 136.086L152.812 151.986C152.778 152.347 152.935 152.691 153.208 152.854Z" fill="#FEC7A0"/>
<path opacity="0.3" d="M159.118 146.804L155.456 135.789L154.408 136.086C154.664 137.064 154.792 138.653 154.844 139.538C155.089 143.299 155.91 144.342 155.514 146.967C155.182 149.151 154.46 149.453 154.524 150.921C154.594 152.522 155.52 153.843 156.626 154.874L156.9 155.031L159.118 146.804Z" fill="url(#paint5_linear_108_194831)"/>
<path d="M155.456 135.789L175.099 135.999L178.086 152.912L156.899 155.031L155.456 135.789Z" fill="#FEC7A0"/>
<g opacity="0.2">
<path opacity="0.2" d="M175.1 135.999L168.614 135.929C168.492 136.278 168.311 136.761 168.037 137.309C165.091 143.299 158.239 144.074 158.361 145.075C158.547 146.566 173.598 144.406 173.97 146.409C174.151 147.375 171.036 149.605 167.752 150.484C163.77 151.544 160.812 150.303 158.833 152.621C158.157 153.407 157.86 154.321 157.715 154.944L178.081 152.923L175.1 135.999Z" fill="#FEC7A0"/>
</g>
<path d="M155.799 135.253C155.572 135.253 155.252 135.218 154.903 135.422C154.827 135.463 154.763 135.51 154.705 135.562L154.862 135.51C155.118 135.434 155.473 135.539 155.607 135.801C155.77 136.121 155.828 136.854 155.863 137.221C155.962 138.258 156.585 144.703 156.585 144.703C156.632 145.244 157.039 145.657 157.523 145.64L175.717 144.604C175.851 144.598 175.984 144.557 176.095 144.47C176.328 144.283 176.433 143.969 176.375 143.666L175.478 136.22C175.402 135.789 175.076 135.48 174.698 135.475L155.799 135.253Z" fill="url(#paint6_linear_108_194831)"/>
<path d="M156.003 135.253C155.776 135.253 155.502 135.218 155.205 135.294C155.124 135.317 154.996 135.352 154.938 135.405C154.938 135.405 155.578 135.259 155.817 135.795C155.962 136.121 156.038 136.849 156.073 137.215C156.172 138.252 156.795 144.697 156.795 144.697C156.841 145.238 157.249 145.646 157.732 145.634L176.118 145.151C176.252 145.145 176.386 145.104 176.497 145.017C176.73 144.831 176.829 144.516 176.776 144.214L175.682 136.214C175.606 135.783 175.28 135.475 174.902 135.469L156.003 135.253Z" fill="#FEC7A0"/>
<path opacity="0.1" d="M176.77 144.208L175.676 136.208C175.6 135.777 175.274 135.469 174.896 135.463L155.997 135.248C155.77 135.248 155.496 135.213 155.199 135.288C155.118 135.312 154.99 135.347 154.932 135.399C154.932 135.399 155.572 135.253 155.811 135.789C155.834 135.841 155.857 135.905 155.875 135.969C157.72 136.063 159.554 136.028 161.377 136.167C164.951 136.429 168.526 136.464 171.827 137.937C172.875 138.403 173.591 140.062 173.312 140.825C173.108 141.372 172.41 141.332 172.165 142.054C171.909 142.816 172.526 143.334 172.264 143.864C171.99 144.423 171.169 144.161 169.83 144.563C169.091 144.784 168.52 145.116 168.165 145.349L176.118 145.139C176.252 145.133 176.386 145.093 176.497 145.005C176.718 144.831 176.823 144.511 176.77 144.208Z" fill="url(#paint7_linear_108_194831)"/>
<path d="M168.125 146.688L165.825 147.27L165.58 147.294C165.336 147.317 165.12 147.102 165.109 146.816L165.01 144.126C164.998 143.841 165.196 143.603 165.441 143.603L165.685 143.597L168.002 143.894C168.224 143.888 168.41 143.771 168.416 144.033L168.509 146.543C168.52 146.805 168.34 146.671 168.125 146.688Z" fill="url(#paint8_linear_108_194831)"/>
<path d="M168.299 147.061L165.749 147.293C165.505 147.317 165.289 147.101 165.284 146.816L165.185 144.126C165.173 143.841 165.371 143.608 165.615 143.602L168.171 143.562C168.393 143.556 168.579 143.771 168.591 144.039L168.684 146.548C168.689 146.804 168.515 147.037 168.299 147.061Z" fill="black"/>
<path d="M165.214 129.035C165.214 129.035 164.998 130.456 164.783 130.59C164.567 130.724 163.898 131.475 164.032 131.958C164.166 132.441 163.659 133.542 164.608 133.809C165.557 134.077 166.652 134.362 166.762 133.507C166.873 132.651 166.605 131.69 166.628 130.968C166.657 130.246 167.03 129.519 167.03 129.519L165.214 129.035Z" fill="url(#paint9_linear_108_194831)"/>
<path d="M156.224 93.177C154.955 99.3775 156.049 103.395 157.377 105.968C160.061 111.185 164.678 112.413 165.446 117.036C165.999 120.372 166.244 126.951 164.614 129.088C166.081 129.676 166.232 129.641 167.344 129.641C168.829 128.791 171.99 123.132 173.329 115.912C174.942 107.156 168.171 96.81 156.224 93.177Z" fill="#6E89BE"/>
<path d="M152.265 93.1071C151.636 92.8509 148.58 92.228 147.899 90.9005C147.148 89.4334 146.897 87.4131 146.897 87.4131C146.897 87.4131 144.79 87.972 145.098 89.0607C145.407 90.1495 144.883 92.6472 143.672 93.2061C142.822 93.5962 141.774 93.7534 141.547 94.0153C141.523 94.0212 141.506 94.0212 141.5 94.027C141.326 94.1376 141.867 94.976 144.05 96.187C151.572 95.0517 152.364 93.765 152.399 93.3225C152.422 93.2352 152.388 93.1595 152.265 93.1071Z" fill="#FFDEB4"/>
<path d="M144.073 86.9065C143.095 86.0856 142.961 85.9925 142.839 85.6955C142.344 84.4904 143.165 82.7204 144.394 82.2023C144.458 82.1732 145.279 81.8355 145.628 82.179C145.925 82.4701 145.558 82.93 145.797 83.5122C146.018 84.0595 146.513 84.0595 147.468 84.7232C148.26 85.2705 148.749 85.6082 148.9 86.1322C149.209 87.2093 148.009 88.8919 146.839 88.9443C146.414 88.9617 146.28 88.7579 144.073 86.9065Z" fill="#263238"/>
<path d="M146.734 89.1247C146.734 89.1247 145.855 90.295 144.359 90.0504C143.02 89.835 143.113 86.7901 144.033 86.2253C144.341 86.039 144.923 86.0041 145.383 86.1787C145.651 86.2835 145.733 86.4058 146.181 86.5688C146.588 86.7202 146.711 86.6853 146.827 86.8017C146.973 86.9473 147.054 87.2849 146.705 88.1466C146.99 87.9079 147.305 87.838 147.514 87.9661C147.549 87.9836 147.636 88.0593 147.677 88.1582C147.834 88.525 147.479 88.9326 146.734 89.1247Z" fill="#FFDEB4"/>
<path d="M146.106 95.9425C146.106 95.9425 145.681 98.2131 145.017 98.2538C144.353 98.3004 143.864 98.3878 143.864 98.3878L143.119 95.6106C143.119 95.6106 144.086 96.4024 146.106 95.9425Z" fill="white"/>
<path d="M145.331 98.0675C145.331 98.0675 146.81 114.666 151.992 117.327C151.858 117.857 151.992 122.177 151.992 122.177C151.992 122.177 147.159 120.721 146.886 120.82C146.612 120.919 141.034 111.674 143.864 98.3935L145.331 98.0675Z" fill="white"/>
<path d="M105.648 111.807C105.648 111.807 108.035 110.008 108.827 109.904C109.095 109.869 109.223 109.764 109.508 110.09C109.822 110.457 113.816 109.671 112.733 110.736C111.651 111.802 110.87 112.809 109.415 112.873C107.959 112.943 106.242 113.379 105.945 113.577C105.648 113.775 105.648 111.807 105.648 111.807Z" fill="#FFDEB4"/>
<path d="M65.9062 99.4822C65.4113 99.6685 57.895 102.661 56.3463 110.509C56.224 111.144 55.013 117.886 59.5834 122.648C64.7126 127.987 74.5811 127.859 78.5052 123.394C79.4193 122.351 79.9025 121.199 80.1703 120.226L79.1398 117.484C77.8822 115.965 76.1647 115.604 75.2507 115.377C72.9917 114.818 71.2858 115.825 69.9933 114.736C69.2772 114.136 69.1374 113.269 69.0094 112.489C68.5785 109.851 70.069 108.227 70.1738 106.597C70.2553 105.38 70.6803 102.713 69.0909 100.978C68.0836 99.8781 66.6922 99.5812 65.9062 99.4822Z" fill="#FBC1A0"/>
<path d="M62.9778 186.948C62.8905 186.464 61.3301 186.028 60.5558 186.674C60.1715 186.994 59.9095 187.646 60.1308 187.943C60.2123 188.048 59.8804 188.24 60.1948 188.24C61.2486 188.252 63.0651 187.425 62.9778 186.948Z" fill="#FEC7A0"/>
<path d="M61.3418 187.122L59.7349 186.895C60.4801 185.999 60.3404 183.152 60.3404 183.152L62.0462 183.53C62.0462 183.53 61.8541 184.31 61.5223 185.469C61.4116 185.865 61.3592 186.482 61.3418 187.122Z" fill="#FFDEB4"/>
<path d="M61.4814 186.924C61.4814 186.924 59.5485 186.482 59.3389 186.86C59.1293 187.244 58.9663 188.269 60.1947 188.234C61.4232 188.205 61.592 187.25 61.4814 186.924Z" fill="#FEC7A0"/>
<path d="M84.9908 188.758C84.8336 188.293 83.2326 188.077 82.5572 188.828C82.2195 189.201 82.0507 189.882 82.3127 190.144C82.4058 190.237 82.1089 190.47 82.4233 190.429C83.4654 190.29 85.148 189.218 84.9908 188.758Z" fill="#FEC7A0"/>
<path d="M83.4017 189.16H81.7832C82.3945 188.17 81.8589 185.364 81.8589 185.364L83.5997 185.504C83.5997 185.504 83.5182 186.307 83.3493 187.495C83.2911 187.902 83.3261 188.525 83.4017 189.16Z" fill="#FFDEB4"/>
<path d="M87.5995 127.877C88.3506 130.357 89.4218 134.357 90.1147 139.375C92.0825 153.692 87.8964 154.152 88.6824 170.017C88.9328 175.082 84.2926 186.761 83.885 187.018C83.6871 187.035 83.4716 187.052 83.2446 187.041C82.8429 187.029 82.2723 186.965 81.6086 186.767C80.875 186.639 78.2259 179.466 78.8372 175.204C79.2739 172.189 79.1458 168.946 78.8955 162.466C78.8547 161.418 76.1707 142.042 76.1707 142.042C75.3556 149.215 74.4124 155.305 73.5974 160.032C70.9774 175.21 62.4713 184.398 62.0288 184.543C61.9415 184.578 61.1439 184.869 60.4918 184.438C60.2007 184.246 60.1017 184.002 60.1017 184.002C59.8747 183.821 60.1716 168.847 62.7624 157.575C66.5293 141.215 64.8875 137.39 66.081 130.083C67.1115 123.766 87.5995 127.877 87.5995 127.877Z" fill="#455A64"/>
<path d="M88.6063 130.351C86.3415 131.51 80.5194 133.588 73.5736 132.558C70.4005 132.086 67.8621 131.032 66.0805 130.089C66.296 129.431 66.4706 128.808 66.5987 128.22C67.5477 123.935 66.3891 121.391 65.8011 119.027C64.8521 115.19 64.8346 115.481 64.0544 112.431C62.7619 107.4 62.5523 102.265 63.4373 101.211C65.8302 98.376 70.1444 98.277 72.3859 98.2071C74.8836 98.1314 80.6358 97.2523 83.803 100.099C83.8554 100.152 83.2092 100.495 83.5294 100.868C83.8263 101.217 84.8452 102.434 85.7651 104.076C86.4346 105.269 87.0343 106.655 87.6456 108.722C88.484 111.58 88.8566 114.107 89.0254 115.714C89.072 116.162 89.1011 116.535 89.1244 116.832C89.7008 124.447 89.1244 127.964 88.6063 130.351Z" fill="#FEC7A0"/>
<path d="M83.5123 188.945C83.5123 188.945 81.5387 188.776 81.3815 189.183C81.2301 189.591 81.2126 190.633 82.4178 190.423C83.6288 190.22 83.6637 189.253 83.5123 188.945Z" fill="#FEC7A0"/>
<path d="M78.7844 95.3776C79.5121 94.1433 79.1861 92.7343 79.1162 92.4316C78.8077 91.1566 78.6971 90.9644 78.4583 90.6966L78.1265 90.3415C78.1265 90.3415 78.1032 90.324 78.0857 90.3123C77.8528 90.1552 76.9854 89.8932 76.799 89.8815C76.1994 89.8524 74.9826 92.0008 74.2839 95.3077C74.2257 95.4242 74.1733 95.5464 74.1151 95.6687C73.7716 96.4197 73.4746 97.1591 73.2185 97.8753C69.1721 98.2188 68.6074 98.6904 68.5899 98.964C68.5491 99.5404 70.8605 100.21 72.5897 100.46C76.374 101.013 80.2574 100.018 80.2399 99.3133C80.2341 99.0047 79.483 98.6088 76.2751 98.1838C76.3507 97.654 76.4264 97.1242 76.5021 96.5944C76.7583 96.5362 78.2487 96.2858 78.7844 95.3776Z" fill="#FFDEB4"/>
<path d="M79.5469 89.7243C79.2733 90.7315 78.5106 91.6864 78.2195 91.797C78.1846 91.8086 77.9691 91.9018 77.7479 92.0997C77.7188 92.1288 77.6897 92.1579 77.6606 92.2045C77.2705 92.7809 78.0798 93.7998 77.8119 94.0327C77.614 94.2015 77.0027 93.7416 76.8688 93.8988C76.7465 94.0443 77.2239 94.545 77.0842 94.7255C76.9794 94.8594 76.665 94.6265 76.3797 94.8012C76.24 94.8885 76.2458 94.9875 76.0362 95.3135C75.9139 95.494 75.7626 95.692 75.6578 95.7968C75.1512 96.2975 74.1033 96.2509 73.9752 95.9598C73.9402 95.8783 73.9985 95.8375 74.0043 95.5988C74.0043 95.5988 74.0101 95.3776 73.9286 95.1039C73.8122 94.708 73.3871 94.3354 72.9796 93.8405C72.2344 92.9323 72.1354 92.2977 72.1121 92.0823C72.1063 92.0066 72.1005 91.9483 72.1005 91.9134C72.0597 91.1041 72.3508 90.0096 72.8632 89.4274C73.7248 88.4493 74.8485 89.3226 76.1818 88.4784C77.7188 87.5061 77.4801 85.5557 78.1787 85.5324C78.9473 85.5091 80.0476 87.8612 79.5469 89.7243Z" fill="#263238"/>
<path d="M77.5096 93.7008C77.3524 93.2933 76.8343 93.4971 76.712 93.9395C76.5898 94.382 76.8983 94.9526 77.335 94.9759C77.7658 94.9992 77.7192 94.2481 77.5096 93.7008Z" fill="url(#paint10_linear_108_194831)"/>
<path d="M66.8787 126.671C66.8729 126.671 66.8729 126.671 66.8671 126.671C66.8088 126.666 66.7681 126.613 66.7739 126.555C67.0708 123.9 66.5177 121.973 66.0345 120.267C65.9122 119.848 65.8016 119.452 65.7026 119.05C65.1612 116.873 64.9283 116.034 64.678 115.144C64.5149 114.561 64.3461 113.962 64.0841 112.96C64.0666 112.902 64.1016 112.844 64.1598 112.832C64.218 112.815 64.2762 112.85 64.2879 112.908C64.5499 113.909 64.7187 114.509 64.8817 115.085C65.1321 115.976 65.3708 116.82 65.9122 118.998C66.0112 119.394 66.1218 119.79 66.2441 120.209C66.7332 121.932 67.2921 123.883 66.9893 126.578C66.9777 126.631 66.9311 126.671 66.8787 126.671Z" fill="url(#paint11_linear_108_194831)"/>
<path d="M77.5035 92.9091L77.8761 93.8115C77.8761 93.8115 78.2487 94.8944 78.7494 94.4869C79.157 94.155 79.2269 94.1841 79.2443 94.2074C79.2443 94.2132 79.2443 94.219 79.2501 94.219C79.256 94.219 79.2618 94.0036 79.2676 93.8115C79.3608 94.0735 79.4772 94.4868 79.4772 94.9992C79.4772 95.4999 79.4772 96.0297 79.0871 96.4431C79.0638 96.4664 78.6388 96.8972 78.0683 96.8797C78.0683 96.8797 77.8412 96.8739 76.9854 96.4722C76.9854 96.4722 78.1556 96.0239 78.2196 95.855C78.3827 95.4067 77.8121 94.9875 77.5908 93.9163C77.4919 93.5029 77.4919 93.1478 77.5035 92.9091Z" fill="#263238"/>
<path opacity="0.3" d="M88.6068 130.351C86.342 131.509 80.5199 133.588 73.5741 132.557C70.4011 132.086 67.8626 131.032 66.0811 130.089C66.2965 129.431 66.4711 128.808 66.5992 128.22C71.2162 131.457 73.1491 128.307 76.13 127.568C79.2332 126.799 83.2213 128.4 80.7935 121.233C78.3599 114.066 82.3946 114.59 82.3946 114.59L89.0201 115.726C89.0667 116.174 89.0958 116.547 89.1191 116.844C89.7013 124.447 89.1249 127.964 88.6068 130.351Z" fill="url(#paint12_linear_108_194831)"/>
<path d="M105.688 111.534C106.591 112.168 107.08 113.024 107.33 113.577C106.667 115.138 105.159 118.037 102.032 120.174C96.9145 123.679 89.4098 123.795 84.1816 119.801C77.9345 115.027 76.8923 105.881 79.5181 101.962C79.8208 101.514 80.8106 100.029 82.3535 99.8606C83.3257 99.7558 84.6532 100.152 86.7433 102.603C91.1041 107.709 89.567 110.899 92.1404 112.39C96.0063 114.625 101.747 108.774 105.688 111.534Z" fill="#FEC7A0"/>
<path d="M88.1058 121.99C88.1 121.99 88.0883 121.99 88.0825 121.99C88.0184 121.979 81.8761 120.564 79.1107 112.949C79.0932 112.89 79.1165 112.832 79.1747 112.809C79.2329 112.791 79.2911 112.815 79.3144 112.873C82.0333 120.372 88.065 121.769 88.1291 121.781C88.1873 121.792 88.2222 121.851 88.2106 121.909C88.1989 121.955 88.1582 121.99 88.1058 121.99Z" fill="black"/>
<path d="M111.493 110.212C111.493 110.212 111.039 109.339 110.405 109.764C109.77 110.195 108.879 110.486 109.473 110.637C110.061 110.795 111.493 110.212 111.493 110.212Z" fill="#FFDEB4"/>
<path d="M171.373 52.923C171.373 63.5774 163.042 71.9555 152.399 71.6294C141.32 71.2917 132.004 61.7202 132.004 50.2681C132.004 38.816 141.32 30.5079 152.399 31.6607C163.042 32.7669 171.373 42.2685 171.373 52.923Z" fill="url(#paint13_linear_108_194831)"/>
<path d="M174.249 52.003C174.249 62.6575 165.918 71.0355 155.275 70.7095C144.196 70.3718 134.88 60.8002 134.88 49.3482C134.88 37.8961 144.196 29.588 155.275 30.7407C165.918 31.8469 174.249 41.3486 174.249 52.003Z" fill="url(#paint14_linear_108_194831)"/>
<path d="M173.411 51.9449C173.411 62.1278 165.441 70.1273 155.27 69.7955C144.703 69.452 135.835 60.3229 135.835 49.4123C135.835 38.5017 144.708 30.5661 155.275 31.649C165.441 32.6912 173.411 41.762 173.411 51.9449Z" fill="url(#paint15_linear_108_194831)"/>
<path d="M172.812 51.904C172.812 61.7492 165.097 69.4751 155.27 69.1433C145.069 68.7998 136.522 59.9793 136.522 49.4588C136.522 38.9382 145.075 31.2647 155.27 32.301C165.103 33.2966 172.812 42.0589 172.812 51.904Z" fill="url(#paint16_linear_108_194831)"/>
<path d="M155.17 35.6488C155.694 35.7012 156.119 36.167 156.119 36.7026V38.5133C157.167 38.6297 158.215 38.8102 159.263 39.0605C160.038 39.241 160.806 39.4564 161.569 39.7068C162.029 39.8582 162.337 40.3181 162.291 40.7955L162.07 43.0662C162.011 43.6717 161.412 44.021 160.853 43.7706C160.352 43.5494 159.834 43.3573 159.304 43.1942C158.384 42.9148 157.412 42.7343 156.387 42.647L156.119 42.6237V47.817C158.85 48.5797 160.853 49.6102 162.145 50.8969C163.432 52.1836 164.078 53.7846 164.078 55.7059C164.078 57.7844 163.368 59.4495 161.942 60.7071C160.509 61.9705 158.501 62.6808 155.898 62.8322V64.835C155.898 65.3648 155.473 65.7782 154.949 65.7607H154.932C154.408 65.7374 153.983 65.2891 153.983 64.7593V62.7856L153.564 62.7681C152.347 62.7157 151.176 62.5877 150.064 62.3955C149.238 62.25 148.434 62.0695 147.648 61.8366C147.171 61.6969 146.845 61.2486 146.891 60.7595L147.153 57.8368C147.212 57.2022 147.846 56.8354 148.446 57.0741C149.145 57.3478 149.855 57.5807 150.571 57.7728C151.689 58.0697 152.824 58.256 153.971 58.3433L153.989 52.5678C151.369 51.9216 149.407 50.9609 148.12 49.6859C146.827 48.4108 146.175 46.7748 146.175 44.7837C146.175 42.7285 146.88 41.139 148.283 40.027C149.68 38.9208 151.666 38.3677 154.221 38.3677V36.5163C154.221 35.9923 154.646 35.6022 155.17 35.6488ZM154.221 42.5829C153.412 42.6411 152.783 42.8624 152.329 43.2525C151.875 43.6367 151.648 44.1607 151.648 44.8128C151.648 45.4299 151.858 45.9481 152.277 46.3615C152.696 46.7748 153.342 47.1067 154.221 47.3512V42.5829ZM155.904 53.0394V58.3375C156.783 58.3375 157.459 58.1279 157.93 57.7087C158.402 57.2895 158.635 56.6957 158.635 55.9272C158.635 55.2285 158.419 54.6463 157.977 54.1864C157.54 53.7148 156.847 53.3363 155.904 53.0394Z" fill="url(#paint17_linear_108_194831)"/>
<path opacity="0.3" d="M152.097 54.3144C152.69 48.4632 158.07 45.983 157.366 40.5975C156.935 37.2789 154.42 34.4843 151.613 32.301C143.101 33.1918 136.522 40.2424 136.522 49.4587C136.522 59.9851 145.075 68.8056 155.27 69.1433C156.259 69.1782 157.226 69.1258 158.169 69.0035C154.123 64.9746 151.59 59.3447 152.097 54.3144Z" fill="url(#paint18_linear_108_194831)"/>
<defs>
<linearGradient id="paint0_linear_108_194831" x1="85.2799" y1="45.05" x2="142.527" y2="45.05" gradientUnits="userSpaceOnUse">
<stop stop-color="#444B8C"/>
<stop offset="0.9964" stop-color="#26264F"/>
</linearGradient>
<linearGradient id="paint1_linear_108_194831" x1="140.825" y1="152.684" x2="151.67" y2="152.684" gradientUnits="userSpaceOnUse">
<stop stop-color="#444B8C"/>
<stop offset="0.9964" stop-color="#26264F"/>
</linearGradient>
<linearGradient id="paint2_linear_108_194831" x1="180.035" y1="156.186" x2="143.293" y2="103.437" gradientUnits="userSpaceOnUse">
<stop stop-color="#AA80F9"/>
<stop offset="0.9964" stop-color="#6165D7"/>
</linearGradient>
<linearGradient id="paint3_linear_108_194831" x1="162.723" y1="133.232" x2="167.594" y2="135.843" gradientUnits="userSpaceOnUse">
<stop offset="0.0999605" stop-color="#311944"/>
<stop offset="0.267" stop-color="#371B47"/>
<stop offset="0.4803" stop-color="#462150"/>
<stop offset="0.7186" stop-color="#612A5F"/>
<stop offset="0.9736" stop-color="#853774"/>
<stop offset="1" stop-color="#893976"/>
</linearGradient>
<linearGradient id="paint4_linear_108_194831" x1="155.8" y1="141.385" x2="153.015" y2="115.934" gradientUnits="userSpaceOnUse">
<stop offset="0.0999605" stop-color="#311944"/>
<stop offset="0.6853" stop-color="#6D2F66"/>
<stop offset="1" stop-color="#893976"/>
</linearGradient>
<linearGradient id="paint5_linear_108_194831" x1="151.275" y1="137.661" x2="156.835" y2="146.985" gradientUnits="userSpaceOnUse">
<stop stop-color="#311944"/>
<stop offset="1" stop-color="#893976"/>
</linearGradient>
<linearGradient id="paint6_linear_108_194831" x1="157.994" y1="140.384" x2="164.282" y2="140.14" gradientUnits="userSpaceOnUse">
<stop offset="0.0999605" stop-color="#311944"/>
<stop offset="0.6853" stop-color="#6D2F66"/>
<stop offset="1" stop-color="#893976"/>
</linearGradient>
<linearGradient id="paint7_linear_108_194831" x1="168.845" y1="167.168" x2="165.142" y2="133.318" gradientUnits="userSpaceOnUse">
<stop stop-color="#311944"/>
<stop offset="1" stop-color="#893976"/>
</linearGradient>
<linearGradient id="paint8_linear_108_194831" x1="174.067" y1="149.33" x2="162.901" y2="143.493" gradientUnits="userSpaceOnUse">
<stop stop-color="#FFC444"/>
<stop offset="0.9964" stop-color="#F36F56"/>
</linearGradient>
<linearGradient id="paint9_linear_108_194831" x1="166.379" y1="140.843" x2="165.427" y2="130.146" gradientUnits="userSpaceOnUse">
<stop stop-color="#FFC444"/>
<stop offset="0.9964" stop-color="#F36F56"/>
</linearGradient>
<linearGradient id="paint10_linear_108_194831" x1="81.1378" y1="89.3264" x2="65.4283" y2="109.091" gradientUnits="userSpaceOnUse">
<stop stop-color="#FFC444"/>
<stop offset="0.9964" stop-color="#F36F56"/>
</linearGradient>
<linearGradient id="paint11_linear_108_194831" x1="64.0756" y1="119.749" x2="67.0679" y2="119.749" gradientUnits="userSpaceOnUse">
<stop stop-color="#FF9085"/>
<stop offset="1" stop-color="#FB6FBB"/>
</linearGradient>
<linearGradient id="paint12_linear_108_194831" x1="66.0799" y1="123.707" x2="89.3652" y2="123.707" gradientUnits="userSpaceOnUse">
<stop stop-color="#FF9085"/>
<stop offset="1" stop-color="#FB6FBB"/>
</linearGradient>
<linearGradient id="paint13_linear_108_194831" x1="144.938" y1="53.7539" x2="121.977" y2="61.1227" gradientUnits="userSpaceOnUse">
<stop stop-color="#FCB148"/>
<stop offset="0.0520724" stop-color="#FDBA46"/>
<stop offset="0.1424" stop-color="#FFC244"/>
<stop offset="0.3183" stop-color="#FFC444"/>
<stop offset="0.4849" stop-color="#FDB946"/>
<stop offset="0.7754" stop-color="#F99C4D"/>
<stop offset="0.8658" stop-color="#F8924F"/>
<stop offset="1" stop-color="#F8924F"/>
</linearGradient>
<linearGradient id="paint14_linear_108_194831" x1="163.512" y1="30.8985" x2="143.014" y2="76.1211" gradientUnits="userSpaceOnUse">
<stop stop-color="#FFDB44"/>
<stop offset="1" stop-color="#FEEF06"/>
</linearGradient>
<linearGradient id="paint15_linear_108_194831" x1="159.742" y1="78.6487" x2="155.786" y2="57.0419" gradientUnits="userSpaceOnUse">
<stop stop-color="#FCB148"/>
<stop offset="0.0520724" stop-color="#FDBA46"/>
<stop offset="0.1424" stop-color="#FFC244"/>
<stop offset="0.3183" stop-color="#FFC444"/>
<stop offset="0.4849" stop-color="#FDB946"/>
<stop offset="0.7754" stop-color="#F99C4D"/>
<stop offset="0.8658" stop-color="#F8924F"/>
<stop offset="1" stop-color="#F8924F"/>
</linearGradient>
<linearGradient id="paint16_linear_108_194831" x1="151.356" y1="43.6756" x2="167.656" y2="78.2767" gradientUnits="userSpaceOnUse">
<stop stop-color="#FCB148"/>
<stop offset="0.0520724" stop-color="#FDBA46"/>
<stop offset="0.1424" stop-color="#FFC244"/>
<stop offset="0.3183" stop-color="#FFC444"/>
<stop offset="0.4849" stop-color="#FDB946"/>
<stop offset="0.7754" stop-color="#F99C4D"/>
<stop offset="0.8658" stop-color="#F8924F"/>
<stop offset="1" stop-color="#F8924F"/>
</linearGradient>
<linearGradient id="paint17_linear_108_194831" x1="150.706" y1="36.2299" x2="158.902" y2="66.9472" gradientUnits="userSpaceOnUse">
<stop stop-color="#FFDB44"/>
<stop offset="1" stop-color="#FEEF06"/>
</linearGradient>
<linearGradient id="paint18_linear_108_194831" x1="146.561" y1="45.9148" x2="162.827" y2="80.4461" gradientUnits="userSpaceOnUse">
<stop stop-color="#FCB148"/>
<stop offset="0.0520724" stop-color="#FDBA46"/>
<stop offset="0.1424" stop-color="#FFC244"/>
<stop offset="0.3183" stop-color="#FFC444"/>
<stop offset="0.4849" stop-color="#FDB946"/>
<stop offset="0.7754" stop-color="#F99C4D"/>
<stop offset="0.8658" stop-color="#F8924F"/>
<stop offset="1" stop-color="#F8924F"/>
</linearGradient>
</defs>
</svg>
