<svg width="375" height="1051" viewBox="0 0 375 1051" fill="none" xmlns="http://www.w3.org/2000/svg">
<path d="M-619.943 63.7529C-489.48 -52.3711 -416.443 126.411 -227.721 63.7529C-39 1.09459 -29.5 114.868 164.5 63.7529C358.5 12.6378 421 110.897 572.5 63.7529C724 16.6085 818.48 -52.3711 948.943 63.7529C1161.02 252.52 1161.02 797.509 948.943 986.277C818.48 1102.4 837 902.238 556.721 986.277C276.443 1070.32 218 1012.14 164.5 986.277C111 960.418 -47.5 935.853 -227.721 986.277C-407.943 1036.7 -489.48 1102.4 -619.943 986.277C-832.019 797.509 -832.019 252.52 -619.943 63.7529Z" fill="#F1F6F9"/>
</svg>
