<svg width="216" height="190" viewBox="0 0 216 190" fill="none" xmlns="http://www.w3.org/2000/svg">
<path d="M109.91 173.591C148.334 173.591 179.483 170.286 179.483 166.208C179.483 162.131 148.334 158.826 109.91 158.826C71.4851 158.826 40.3359 162.131 40.3359 166.208C40.3359 170.286 71.4851 173.591 109.91 173.591Z" fill="#EBEBEB"/>
<path d="M144.919 140.231H118.8V141.746H144.919V140.231Z" fill="#455A64"/>
<path d="M120.761 87.5189L120.636 94.6969L119.841 140.231L119.815 141.746L119.465 161.72H118.134L117.784 141.746L117.759 140.231L116.964 94.6969L116.838 87.5189H120.761Z" fill="#455A64"/>
<path d="M116.838 87.5189H120.761L120.636 94.6969H116.964L116.838 87.5189Z" fill="#263238"/>
<path d="M146.876 87.5189L146.75 94.6969L145.58 161.72H144.249L143.899 141.746L143.873 140.231L143.078 94.6969L142.953 87.5189H146.876Z" fill="#455A64"/>
<path d="M146.876 87.5189L146.75 94.6969H143.078L142.953 87.5189H146.876Z" fill="#263238"/>
<path d="M132.736 140.231H106.618V141.746H132.736V140.231Z" fill="#37474F"/>
<path d="M108.579 87.5189L108.454 94.6969L107.659 140.231L107.633 141.746L107.283 161.72H105.952L104.782 94.6969L104.656 87.5189H108.579Z" fill="#37474F"/>
<path d="M104.656 87.5189H108.579L108.454 94.6969H104.782L104.656 87.5189Z" fill="#263238"/>
<path d="M134.697 87.5189L134.572 94.6969L133.777 140.231L133.751 141.746L133.401 161.72H132.071L131.721 141.746L131.695 140.231L130.9 94.6969L130.775 87.5189H134.697Z" fill="#37474F"/>
<path d="M130.775 87.5189H134.697L134.572 94.6969H130.9L130.775 87.5189Z" fill="#263238"/>
<path d="M148.915 84.178H103.097V88.1098H148.915V84.178Z" fill="#FEC7A0"/>
<path opacity="0.1" d="M139.981 84.178H103.097V88.1098H139.981V84.178Z" fill="#263238"/>
<path d="M151.83 49.5644L148.906 84.178H121.578L121.331 80.856L118.968 49.2689L148.167 49.5303L151.83 49.5644Z" fill="#FEC7A0"/>
<path opacity="0.1" d="M148.167 49.5303L146.158 84.178H121.578L121.331 80.856L118.968 49.2689L148.167 49.5303Z" fill="#263238"/>
<path d="M149.187 80.856L148.906 84.178H121.578L121.332 80.856H149.187Z" fill="#263238"/>
<path d="M116.087 30.7576C110.722 35.7727 110.225 48.1136 117.595 56.1098C123.833 62.8788 137.532 63.6553 143.165 59.2386C149.144 54.553 148.163 47.0265 143.126 44.0871C138.262 41.25 132.68 41.8636 129.673 38.7651C128.231 37.2803 127.552 34.0417 125.535 31.7689C123.284 29.2386 118.835 28.1856 116.087 30.7576Z" fill="#263238"/>
<path d="M122.532 49.7235C121.137 57.8333 119.91 64.1174 117.543 65.8788C115.633 67.2879 112.838 68.428 109.926 69.3257C106.809 70.2493 103.625 70.992 100.396 71.5492C99.4029 71.7272 98.5734 71.8598 97.9859 71.9583C96.5301 72.1932 92.979 63.9507 93.8776 62.8068C94.085 62.5454 95.0267 62.2613 96.3616 61.9697C100.859 60.9924 109.831 59.9394 110.307 59.4356C110.782 58.9318 113.24 55.2462 116.571 50.4166C118.869 47.0795 120.968 45.9507 121.992 46.7045C122.567 47.1326 122.8 48.1591 122.532 49.7235Z" fill="#EB9481"/>
<path d="M100.397 71.5492C98.952 72.3068 97.451 72.9787 95.9039 73.5605C94.6598 73.9772 91.0439 75.0757 90.3873 73.9393C89.9553 73.1515 91.9771 72.2802 93.4113 71.6363C94.163 71.2954 95.0572 70.4999 94.7851 70.0909C94.3142 69.3333 92.3831 70.2651 91.1303 71.0303C88.7068 72.5075 85.5143 75.0871 83.8727 74.0606C83.2463 73.6818 83.8727 72.8446 84.7799 72.0113C83.2463 73.0189 81.5832 73.8712 80.892 73.4659C80.7093 73.3615 80.5784 73.2004 80.5255 73.0149C80.4726 72.8295 80.5017 72.6333 80.6068 72.4659C80.4103 72.564 80.1849 72.6085 79.9594 72.5936C79.734 72.5788 79.5186 72.5053 79.3411 72.3825C78.7708 71.9356 78.9609 71.2045 79.4664 70.4318C79.3672 70.4299 79.2699 70.4073 79.1828 70.3658C79.0956 70.3243 79.021 70.2651 78.9652 70.1931C77.7081 68.7803 82.8921 64.1022 84.7886 63.5644C90.3571 61.9734 96.4526 61.9734 96.4526 61.9734C98.7681 63.375 100.401 71.5454 100.397 71.5492Z" fill="#EB9481"/>
<path d="M91.6139 67.5037C90.2757 67.7757 89.023 68.3048 87.9463 69.0529C86.6935 69.9469 85.7431 71.1098 84.6026 72.0832C84.5998 72.086 84.5976 72.0892 84.5961 72.0927C84.5947 72.0961 84.5941 72.0998 84.5943 72.1035C84.5945 72.1072 84.5955 72.1108 84.5973 72.1142C84.5991 72.1175 84.6016 72.1205 84.6047 72.123C84.6079 72.1255 84.6115 72.1274 84.6155 72.1287C84.6195 72.1299 84.6237 72.1305 84.6279 72.1303C84.6321 72.1301 84.6362 72.1292 84.64 72.1276C84.6438 72.1261 84.6473 72.1239 84.6501 72.1211C85.1815 71.6135 85.7776 71.1514 86.3349 70.6628C86.8922 70.1742 87.4063 69.6893 87.9851 69.2461C89.0312 68.431 90.2751 67.8351 91.6226 67.5037C91.6226 67.5037 91.6269 67.4999 91.6139 67.5037Z" fill="#263238"/>
<path d="M90.3614 65.4659C88.8727 65.889 87.4369 66.4436 86.076 67.1212C84.6245 67.9053 83.5401 69.0947 82.4731 70.2424C81.828 70.9293 81.2045 71.6287 80.6025 72.3409C80.5766 72.3712 80.6025 72.4128 80.6501 72.3825C81.7301 71.2007 82.8518 70.0479 84.0153 68.9242C85.0855 67.8756 86.382 67.0234 87.8299 66.4166C88.655 66.0681 89.5147 65.7803 90.3657 65.4886C90.383 65.4848 90.3744 65.4621 90.3614 65.4659Z" fill="#263238"/>
<path d="M88.5943 63.7348C87.1687 64.1136 85.9245 64.4128 84.7063 65.1856C83.3434 66.128 82.12 67.216 81.0645 68.4242C80.4856 69.0643 79.9284 69.7234 79.384 70.3863C79.3624 70.4128 79.4143 70.4469 79.4402 70.4204C80.691 68.9558 82.0489 67.564 83.5053 66.2537C84.1865 65.6207 84.9766 65.0852 85.8468 64.6666C86.7322 64.2871 87.6528 63.9741 88.5986 63.731C88.5986 63.731 88.5986 63.731 88.5943 63.7348Z" fill="#263238"/>
<path d="M122.533 49.7234C121.137 57.8333 119.91 64.1173 117.543 65.8787C115.633 67.2878 112.838 68.4279 109.927 69.3257L121.993 46.7045C122.567 47.1325 122.8 48.159 122.533 49.7234Z" fill="#263238"/>
<path d="M123.12 48.3219C123.12 48.4469 123.12 48.5795 123.12 48.7007C123.12 48.8219 123.12 48.9129 123.094 49.0265C122.897 51.051 122.517 53.0586 121.958 55.0303H121.578H121.206L118.182 55.1174H117.75L114.752 55.2045H114.367L113.266 55.2348L112.402 55.2613C112.402 55.2613 115.426 50.178 118.882 47.1098C119.205 46.8159 119.571 46.5611 119.97 46.3522C121.534 45.6212 123.09 46.053 123.12 48.3219Z" fill="#6E89BE"/>
<path d="M121.4 46.531C121.524 46.531 121.625 46.4427 121.625 46.3337C121.625 46.2247 121.524 46.1364 121.4 46.1364C121.276 46.1364 121.176 46.2247 121.176 46.3337C121.176 46.4427 121.276 46.531 121.4 46.531Z" fill="white"/>
<path d="M118.204 50.7579C118.204 50.7971 118.19 50.8354 118.165 50.8679C118.141 50.9004 118.105 50.9257 118.064 50.9405C118.023 50.9553 117.977 50.959 117.934 50.9511C117.89 50.9432 117.85 50.924 117.819 50.896C117.787 50.868 117.766 50.8325 117.758 50.794C117.75 50.7555 117.755 50.7157 117.773 50.6797C117.79 50.6437 117.82 50.6132 117.857 50.592C117.895 50.5708 117.939 50.5598 117.983 50.5606C118.013 50.5606 118.042 50.5657 118.069 50.5757C118.096 50.5856 118.12 50.6002 118.141 50.6186C118.161 50.637 118.177 50.6588 118.188 50.6827C118.199 50.7066 118.204 50.7322 118.204 50.7579Z" fill="white"/>
<path d="M121.4 50.9476C121.524 50.9476 121.625 50.8593 121.625 50.7503C121.625 50.6413 121.524 50.553 121.4 50.553C121.276 50.553 121.176 50.6413 121.176 50.7503C121.176 50.8593 121.276 50.9476 121.4 50.9476Z" fill="white"/>
<path d="M119.69 48.7128C119.814 48.7128 119.915 48.6244 119.915 48.5154C119.915 48.4065 119.814 48.3181 119.69 48.3181C119.566 48.3181 119.465 48.4065 119.465 48.5154C119.465 48.6244 119.566 48.7128 119.69 48.7128Z" fill="white"/>
<path d="M123.12 48.322C123.12 48.4472 123.12 48.58 123.12 48.7014C123.086 48.7098 123.051 48.7113 123.017 48.7057C122.983 48.7001 122.951 48.6876 122.923 48.6692C122.895 48.6508 122.873 48.627 122.857 48.5997C122.842 48.5724 122.833 48.5423 122.833 48.5117C122.833 48.4812 122.842 48.451 122.857 48.4237C122.873 48.3964 122.895 48.3726 122.923 48.3542C122.951 48.3358 122.983 48.3233 123.017 48.3177C123.051 48.3121 123.086 48.3136 123.12 48.322Z" fill="white"/>
<path d="M114.787 55.163C114.787 55.1948 114.778 55.2261 114.761 55.2539H114.376C114.354 55.2234 114.342 55.1879 114.342 55.1516C114.355 55.1104 114.384 55.0742 114.423 55.0484C114.461 55.0226 114.509 55.0086 114.558 55.0086C114.607 55.0086 114.654 55.0226 114.693 55.0484C114.732 55.0742 114.76 55.1104 114.774 55.1516L114.787 55.163Z" fill="white"/>
<path d="M118.203 55.1516H117.771C117.785 55.1104 117.813 55.0742 117.852 55.0484C117.891 55.0226 117.939 55.0086 117.987 55.0086C118.036 55.0086 118.084 55.0226 118.123 55.0484C118.162 55.0742 118.19 55.1104 118.203 55.1516Z" fill="white"/>
<path d="M121.582 55.0541H121.21C121.23 55.0248 121.258 55.0006 121.291 54.9838C121.324 54.967 121.362 54.9582 121.401 54.9583C121.437 54.9598 121.473 54.9694 121.505 54.9861C121.536 55.0028 121.563 55.0261 121.582 55.0541Z" fill="white"/>
<path d="M116.272 53.1294C116.397 53.1294 116.497 53.0411 116.497 52.9321C116.497 52.8231 116.397 52.7348 116.272 52.7348C116.148 52.7348 116.048 52.8231 116.048 52.9321C116.048 53.0411 116.148 53.1294 116.272 53.1294Z" fill="white"/>
<path d="M119.69 53.1294C119.814 53.1294 119.915 53.0411 119.915 52.9321C119.915 52.8231 119.814 52.7348 119.69 52.7348C119.566 52.7348 119.465 52.8231 119.465 52.9321C119.465 53.0411 119.566 53.1294 119.69 53.1294Z" fill="white"/>
<path d="M123.12 48.3219C123.12 48.4469 123.12 48.5795 123.12 48.7007C123.12 48.8219 123.12 48.9128 123.094 49.0265C122.898 51.051 122.518 53.0586 121.958 55.0303H121.578H121.206L118.182 55.1174H117.75L114.752 55.2045H114.368L113.266 55.2348L119.949 46.3598C121.535 45.6212 123.09 46.053 123.12 48.3219Z" fill="#263238"/>
<path d="M101.758 145.53C102.825 145.371 128.745 133.22 129.406 132.208C129.656 131.829 127.859 128.42 125.552 124.341C125.051 123.462 124.533 122.557 123.997 121.64C120.541 115.686 116.705 109.439 116.705 109.439L99.3384 117.526L107.114 129.504L108.816 132.136C108.816 132.136 101.261 140.682 100.678 141.856C100.094 143.03 100.691 145.689 101.758 145.53Z" fill="#EB9481"/>
<path d="M101.758 145.53C102.825 145.371 128.745 133.22 129.406 132.208C129.708 131.739 126.991 126.799 123.997 121.64L107.11 129.504L108.812 132.136C108.812 132.136 101.261 140.682 100.678 141.856C100.094 143.03 100.691 145.689 101.758 145.53Z" fill="white"/>
<path d="M101.758 145.53C102.825 145.371 128.745 133.22 129.406 132.208C129.656 131.829 127.859 128.42 125.552 124.341L108.812 132.136C108.812 132.136 101.261 140.682 100.678 141.856C100.094 143.03 100.691 145.689 101.758 145.53Z" fill="#FEC7A0"/>
<path d="M101.576 144.447C105.866 142.318 123.388 134.076 127.812 132.257C127.846 132.257 127.859 132.257 127.812 132.28C123.617 134.473 106.017 142.587 101.602 144.511C101.52 144.549 101.486 144.492 101.576 144.447Z" fill="#263238"/>
<path d="M101.844 140.258C102.32 140.02 102.848 139.871 103.393 139.822C103.938 139.772 104.489 139.823 105.01 139.97C105.953 140.225 106.746 140.791 107.222 141.549C107.222 141.572 107.188 141.595 107.17 141.572C106.563 140.887 105.718 140.393 104.763 140.165C103.808 139.936 102.794 139.986 101.874 140.307C101.84 140.318 101.809 140.276 101.844 140.258Z" fill="#263238"/>
<path d="M107.356 133.303C109.084 132.466 111.426 132.061 113.266 132.799C113.34 132.829 113.292 132.917 113.223 132.92C111.277 132.935 109.338 133.13 107.439 133.504C107.408 133.513 107.375 133.512 107.346 133.5C107.316 133.488 107.294 133.466 107.283 133.439C107.272 133.413 107.274 133.383 107.288 133.358C107.301 133.332 107.326 133.313 107.356 133.303Z" fill="#263238"/>
<path d="M106.293 134.394C108.021 133.557 110.363 133.148 112.203 133.89C112.277 133.917 112.229 134.008 112.16 134.008C110.213 134.021 108.274 134.218 106.376 134.595C106.361 134.599 106.345 134.601 106.329 134.601C106.313 134.6 106.297 134.597 106.283 134.591C106.268 134.585 106.255 134.576 106.244 134.566C106.234 134.556 106.225 134.543 106.22 134.53C106.215 134.517 106.212 134.503 106.213 134.489C106.214 134.475 106.218 134.461 106.225 134.449C106.231 134.436 106.241 134.425 106.253 134.415C106.265 134.406 106.278 134.399 106.293 134.394Z" fill="#263238"/>
<path d="M105.231 135.481C106.959 134.644 109.3 134.239 111.141 134.977C111.214 135.007 111.167 135.095 111.098 135.095C109.151 135.108 107.212 135.305 105.313 135.682C105.283 135.691 105.249 135.69 105.22 135.678C105.191 135.666 105.168 135.644 105.158 135.617C105.147 135.591 105.148 135.561 105.162 135.536C105.176 135.51 105.201 135.491 105.231 135.481Z" fill="#263238"/>
<path d="M104.168 136.568C105.896 135.731 108.238 135.326 110.078 136.064C110.151 136.095 110.104 136.182 110.035 136.186C108.088 136.199 106.149 136.396 104.25 136.773C104.221 136.777 104.191 136.773 104.165 136.759C104.14 136.746 104.12 136.726 104.11 136.701C104.1 136.676 104.101 136.65 104.111 136.625C104.122 136.601 104.142 136.581 104.168 136.568Z" fill="#263238"/>
<path d="M124.498 129.167C126.451 128.257 128.066 130.92 126.109 131.818C124.152 132.716 122.541 130.068 124.498 129.167Z" fill="#263238"/>
<path d="M104.496 132.288C106.082 132.909 107.918 132.905 109.616 133.076C109.654 133.077 109.691 133.071 109.726 133.057C109.76 133.043 109.79 133.022 109.814 132.995C109.837 132.969 109.853 132.938 109.86 132.905C109.866 132.872 109.864 132.839 109.853 132.807C109.861 132.804 109.867 132.801 109.873 132.796C109.879 132.791 109.883 132.785 109.885 132.778C109.888 132.772 109.888 132.765 109.887 132.758C109.886 132.751 109.883 132.744 109.879 132.739C108.898 131.4 107.534 130.311 105.922 129.58C104.976 129.17 103.486 129.064 102.993 130.117C102.501 131.17 103.568 131.924 104.496 132.288ZM103.632 131.061C102.794 129.322 105.278 129.795 105.961 130.121C106.401 130.339 106.824 130.583 107.227 130.852C108.069 131.398 108.808 132.038 109.581 132.651C108.756 132.523 107.922 132.458 107.093 132.356C106.112 132.235 104.112 132.019 103.645 131.061H103.632Z" fill="#263238"/>
<path d="M115.465 128.867C114.722 127.935 113.305 128.329 112.471 128.913C111.084 129.938 110.028 131.265 109.408 132.761C109.406 132.768 109.405 132.775 109.406 132.781C109.406 132.788 109.409 132.795 109.413 132.801C109.417 132.807 109.423 132.812 109.43 132.815C109.436 132.819 109.444 132.821 109.452 132.822C109.45 132.855 109.457 132.888 109.472 132.919C109.488 132.949 109.511 132.976 109.54 132.998C109.57 133.019 109.604 133.034 109.641 133.042C109.678 133.049 109.717 133.049 109.754 133.042C111.365 132.545 113.158 132.189 114.545 131.276C115.344 130.742 116.165 129.75 115.465 128.867ZM112.009 131.852C111.223 132.113 110.428 132.337 109.65 132.61C110.251 131.852 110.812 131.095 111.499 130.398C111.823 130.058 112.172 129.738 112.545 129.439C113.128 128.989 115.435 128.045 115.055 129.905C114.856 130.943 112.955 131.542 112.022 131.852H112.009Z" fill="#263238"/>
<path d="M111.456 95.8333C111.888 100.269 123.526 119.697 123.526 119.697L108.229 126.42L105.166 127.769C105.166 127.769 91.0094 105.886 91.774 96.0378C92.4264 87.6818 108.924 77.1515 119.072 66.8712H132.749C128.429 78.5265 112.601 91.3939 111.495 95.3219C111.453 95.4898 111.44 95.6621 111.456 95.8333Z" fill="#455A64"/>
<path d="M105.149 124.542C108.173 123.129 107.27 123.5 110.294 122.117C111.776 121.439 119.206 118.026 120.705 117.595C120.713 117.593 120.721 117.593 120.728 117.596C120.735 117.599 120.741 117.604 120.745 117.61C120.748 117.617 120.749 117.624 120.748 117.63C120.746 117.637 120.742 117.643 120.735 117.648C119.439 118.458 111.944 121.735 110.45 122.386C107.4 123.72 108.259 123.311 105.192 124.614C105.187 124.618 105.18 124.62 105.173 124.622C105.166 124.624 105.159 124.624 105.152 124.623C105.145 124.622 105.139 124.619 105.133 124.615C105.127 124.612 105.123 124.607 105.119 124.601C105.116 124.596 105.114 124.59 105.114 124.583C105.114 124.577 105.115 124.571 105.118 124.565C105.121 124.559 105.125 124.554 105.13 124.55C105.136 124.546 105.142 124.543 105.149 124.542Z" fill="#263238"/>
<path d="M131.142 68.6818C126.803 75.1191 121.892 81.2466 116.454 87.0075C115.124 88.4091 113.75 89.7727 112.372 91.1401C111.206 92.2765 110.026 93.5757 109.802 95.1591C109.555 96.9242 110.432 98.6401 111.137 100.246C111.914 102.019 112.7 103.788 113.521 105.549C114.411 107.443 115.34 109.337 116.372 111.159C116.902 112.098 117.457 113.026 118.036 113.943C118.324 114.4 118.622 114.855 118.93 115.307C119.081 115.534 120.152 117.083 120.308 117.311C120.36 117.383 120.489 117.47 120.36 117.28C120.066 116.856 118.869 115.098 118.593 114.667C117.504 112.962 116.532 111.208 115.612 109.428C114.692 107.648 113.811 105.799 112.981 103.962C112.152 102.125 111.296 100.322 110.592 98.4848C110.176 97.5444 109.969 96.5428 109.983 95.5341C110.074 94.5604 110.469 93.6274 111.124 92.8371C112.299 91.3219 113.871 90.0038 115.223 88.606C118.034 85.7045 120.704 82.7045 123.233 79.606C126.108 76.1013 128.772 72.4676 131.216 68.7197C131.216 68.678 131.164 68.6553 131.142 68.6818Z" fill="#263238"/>
<path d="M123.526 119.697L108.229 126.42L111.456 95.8333C111.888 100.269 123.526 119.697 123.526 119.697Z" fill="#263238"/>
<path d="M117.776 169.318C118.861 169.318 146.75 161.174 147.584 160.276C147.904 159.936 146.789 156.307 145.299 151.943C144.979 151.004 144.638 150.049 144.288 149.053C142.024 142.674 139.45 135.947 139.45 135.947L120.774 141.348L126.131 154.303L127.302 157.148C127.302 157.148 118.23 164.454 117.413 165.526C116.597 166.598 116.696 169.295 117.776 169.318Z" fill="#EB9481"/>
<path d="M117.776 169.318C118.86 169.318 146.75 161.174 147.584 160.276C147.973 159.86 146.245 154.595 144.288 149.061L126.144 154.311L127.314 157.155C127.314 157.155 118.242 164.462 117.426 165.534C116.61 166.606 116.696 169.295 117.776 169.318Z" fill="white"/>
<path d="M117.776 169.318C118.861 169.318 146.75 161.174 147.584 160.276C147.904 159.936 146.789 156.307 145.299 151.943L127.302 157.148C127.302 157.148 118.23 164.454 117.413 165.526C116.597 166.598 116.696 169.295 117.776 169.318Z" fill="#FEC7A0"/>
<path d="M117.806 168.201C122.442 166.739 141.303 161.208 146.011 160.072C146.05 160.072 146.059 160.072 146.011 160.095C141.454 161.636 122.545 167.03 117.823 168.269C117.733 168.295 117.707 168.235 117.806 168.201Z" fill="#263238"/>
<path d="M118.878 164.114C119.393 163.95 119.941 163.881 120.487 163.912C121.034 163.944 121.567 164.074 122.053 164.295C122.935 164.69 123.609 165.369 123.932 166.189C123.932 166.212 123.889 166.227 123.876 166.189C123.409 165.424 122.672 164.812 121.775 164.445C120.877 164.078 119.868 163.976 118.9 164.155C118.861 164.17 118.839 164.125 118.878 164.114Z" fill="#263238"/>
<path d="M125.647 158.076C127.509 157.504 129.898 157.451 131.57 158.454C131.635 158.492 131.57 158.572 131.505 158.564C129.584 158.289 127.634 158.195 125.69 158.284C125.66 158.287 125.629 158.28 125.604 158.264C125.579 158.248 125.562 158.224 125.557 158.198C125.551 158.171 125.557 158.144 125.574 158.121C125.591 158.098 125.617 158.082 125.647 158.076Z" fill="#263238"/>
<path d="M124.39 158.989C126.252 158.42 128.641 158.367 130.313 159.367C130.378 159.409 130.313 159.489 130.248 159.477C128.327 159.203 126.377 159.111 124.433 159.201C124.404 159.2 124.377 159.191 124.354 159.174C124.332 159.158 124.318 159.135 124.312 159.11C124.307 159.085 124.312 159.059 124.327 159.037C124.341 159.015 124.363 158.998 124.39 158.989Z" fill="#263238"/>
<path d="M123.12 159.905C124.982 159.337 127.371 159.28 129.043 160.284C129.108 160.322 129.043 160.401 128.982 160.394C127.06 160.12 125.109 160.027 123.163 160.117C123.134 160.117 123.106 160.108 123.084 160.091C123.062 160.075 123.048 160.052 123.042 160.027C123.037 160.002 123.042 159.976 123.057 159.954C123.071 159.932 123.093 159.914 123.12 159.905Z" fill="#263238"/>
<path d="M121.876 160.822C123.737 160.25 126.126 160.197 127.798 161.201C127.863 161.239 127.798 161.318 127.738 161.311C125.815 161.035 123.864 160.941 121.919 161.03C121.888 161.034 121.857 161.026 121.832 161.01C121.808 160.994 121.791 160.971 121.785 160.944C121.78 160.917 121.786 160.89 121.803 160.867C121.82 160.845 121.846 160.828 121.876 160.822Z" fill="#263238"/>
<path d="M143.342 156.523C145.446 155.917 146.526 158.795 144.418 159.386C142.309 159.977 141.238 157.133 143.342 156.523Z" fill="#263238"/>
<path d="M123.025 156.648C124.468 157.496 126.282 157.765 127.919 158.186C128.088 158.227 128.209 158.083 128.204 157.954C128.212 157.953 128.22 157.95 128.226 157.946C128.233 157.942 128.239 157.937 128.243 157.931C128.247 157.925 128.249 157.918 128.25 157.911C128.251 157.904 128.25 157.897 128.248 157.89C127.537 156.425 126.401 155.149 124.951 154.189C124.087 153.648 122.649 153.322 121.962 154.288C121.275 155.254 122.182 156.151 123.025 156.648ZM122.424 155.303C121.932 153.462 124.286 154.299 124.9 154.723C125.291 155.003 125.66 155.306 126.005 155.629C126.705 156.307 127.364 157.016 127.98 157.754C127.189 157.504 126.381 157.314 125.582 157.091C124.627 156.837 122.688 156.329 122.424 155.303Z" fill="#263238"/>
<path d="M134.495 154.924C133.942 153.894 132.46 154.068 131.535 154.523C129.971 155.329 128.675 156.481 127.777 157.864C127.773 157.87 127.77 157.876 127.769 157.884C127.769 157.891 127.77 157.898 127.773 157.904C127.776 157.911 127.78 157.917 127.786 157.922C127.792 157.926 127.799 157.93 127.807 157.932C127.786 158.057 127.885 158.216 128.062 158.189C129.747 157.939 131.579 157.856 133.125 157.159C134.028 156.735 135.017 155.875 134.495 154.924ZM130.525 157.352C129.699 157.492 128.874 157.598 128.054 157.765C128.792 157.114 129.492 156.439 130.3 155.871C130.684 155.584 131.091 155.32 131.518 155.083C132.179 154.723 134.633 154.133 133.903 155.913C133.488 156.856 131.51 157.167 130.525 157.333V157.352Z" fill="#263238"/>
<path d="M124.075 152.894L144.288 147.053C144.288 147.053 134.576 122.534 132.265 110.227C131.047 103.754 136.788 85.3673 138.827 83.5075C144.037 78.7537 144.271 73.7802 140.499 66.8408H123.439C123.439 66.8408 124.485 74.1817 124.338 74.4734C120.528 82.0454 109.469 99.0302 111.266 111.742C114.195 132.496 124.075 152.894 124.075 152.894Z" fill="#455A64"/>
<path d="M123.474 149.242C127.63 147.78 140.892 143.981 142.365 143.761C142.4 143.761 142.417 143.803 142.387 143.814C141.091 144.443 134.127 146.53 123.504 149.322C123.498 149.324 123.492 149.324 123.486 149.324C123.48 149.324 123.473 149.322 123.468 149.32C123.462 149.317 123.457 149.314 123.453 149.31C123.449 149.305 123.446 149.301 123.444 149.295C123.442 149.29 123.441 149.285 123.442 149.279C123.442 149.274 123.444 149.268 123.446 149.263C123.449 149.258 123.453 149.254 123.458 149.25C123.463 149.247 123.468 149.244 123.474 149.242Z" fill="#263238"/>
<path d="M123.012 67.1401C123.288 69.0605 123.375 72.3522 124.649 72.3522C125.924 72.3522 125.487 68.3371 125.474 67.428C125.474 66.5871 125.794 66.6893 125.885 67.678C126.122 70.3522 126.17 72.7196 124.537 72.678C122.904 72.6363 122.688 68.4621 122.688 67.5113C122.688 67.0189 122.926 66.534 123.012 67.1401Z" fill="#263238"/>
<path d="M124.571 72.481C124.686 73.1531 124.705 73.8351 124.628 74.5113C124.628 74.5681 124.364 74.5341 124.338 74.4924C124.17 74.2197 124.221 72.8977 124.161 72.5454C124.151 72.4977 124.164 72.4485 124.195 72.4088C124.227 72.369 124.275 72.3418 124.329 72.3333C124.384 72.3248 124.44 72.3355 124.485 72.3632C124.531 72.3909 124.562 72.4333 124.571 72.481Z" fill="#263238"/>
<path d="M124.338 74.4924C121.211 79.2613 116.64 88.2575 116.325 89.9166C116.325 89.9999 116.411 90.0416 116.45 89.9583C117.163 88.4431 121.928 79.3863 124.628 74.5113C124.684 74.4166 124.39 74.409 124.338 74.4924Z" fill="#263238"/>
<path d="M132.952 95.6666C134.309 91.0719 135.898 86.4507 138.663 82.337C139.428 81.2007 140.352 80.1439 141.074 78.9886C141.757 77.9147 142.131 76.7105 142.162 75.481C142.219 72.8295 140.931 70.3143 139.683 67.9621C139.648 67.8939 139.532 67.9621 139.57 68.0264C140.771 70.2992 142.024 72.7575 142.003 75.3181C141.991 76.5762 141.613 77.8109 140.905 78.9052C140.266 79.9166 139.471 80.8446 138.789 81.8295C136.006 85.8219 134.343 90.3143 132.982 94.8143C131.535 99.6136 129.812 104.549 130.498 109.561C130.908 112.037 131.516 114.485 132.317 116.886C133.09 119.432 133.898 121.97 134.719 124.507C136.559 130.189 138.404 135.909 140.547 141.523C140.547 141.542 140.594 141.523 140.586 141.523C138.888 136.432 137.082 131.375 135.441 126.269C134.628 123.731 133.833 121.189 133.056 118.644C132.283 116.106 131.445 113.572 130.939 110.981C130.418 108.357 130.427 105.674 130.965 103.053C131.475 100.557 132.231 98.106 132.952 95.6666Z" fill="#263238"/>
<path d="M141.19 67.2613C140.39 67.674 139.56 68.0409 138.706 68.3598L138.3 68.5037C135.923 69.3212 133.433 69.8624 130.896 70.1136C123.305 70.9242 116.143 69.5378 115.538 68.6742L116.346 61.9507L116.389 61.5719L116.497 60.659C116.497 60.659 114.622 58.553 114.523 56.1136C114.518 55.8502 114.547 55.5872 114.609 55.3295C114.631 55.2159 114.661 55.0984 114.696 54.9734C115.249 53.0037 117.037 50.0871 118.562 48.0643C119.054 47.3839 119.607 46.7391 120.217 46.1363C121.945 44.5416 123.876 44.178 125.772 44.6212C126.64 44.8421 127.461 45.1877 128.2 45.6439C130.008 46.7946 131.547 48.2402 132.732 49.9015C134.097 51.731 135.548 54.4128 136.853 57.1212C136.901 57.2159 136.944 57.3105 136.987 57.4052C139.333 62.3522 141.19 67.2613 141.19 67.2613Z" fill="#6E89BE"/>
<path d="M121.625 46.3333C121.625 46.3855 121.602 46.4356 121.56 46.4725C121.517 46.5095 121.46 46.5302 121.401 46.5302C121.356 46.5302 121.313 46.5187 121.276 46.497C121.239 46.4754 121.21 46.4446 121.193 46.4086C121.176 46.3726 121.172 46.333 121.18 46.2948C121.189 46.2566 121.21 46.2215 121.242 46.194C121.273 46.1664 121.313 46.1477 121.357 46.1401C121.4 46.1325 121.446 46.1364 121.487 46.1513C121.528 46.1662 121.563 46.1914 121.587 46.2238C121.612 46.2562 121.625 46.2943 121.625 46.3333ZM124.818 46.1401C124.773 46.1401 124.73 46.1517 124.693 46.1736C124.656 46.1954 124.627 46.2264 124.61 46.2626C124.593 46.2988 124.589 46.3386 124.598 46.3769C124.607 46.4152 124.629 46.4503 124.661 46.4777C124.692 46.5051 124.733 46.5235 124.777 46.5307C124.821 46.5379 124.866 46.5334 124.907 46.5179C124.948 46.5024 124.983 46.4766 125.007 46.4437C125.031 46.4108 125.043 46.3724 125.042 46.3333C125.042 46.3076 125.037 46.2821 125.025 46.2584C125.014 46.2348 124.997 46.2133 124.976 46.1953C124.955 46.1773 124.931 46.1632 124.903 46.1537C124.876 46.1442 124.847 46.1396 124.818 46.1401ZM128.239 46.1401C128.194 46.1393 128.15 46.1503 128.113 46.1717C128.075 46.193 128.046 46.2238 128.028 46.2599C128.011 46.296 128.006 46.336 128.014 46.3745C128.023 46.4131 128.044 46.4485 128.076 46.4763C128.108 46.5041 128.148 46.5229 128.192 46.5304C128.236 46.5379 128.282 46.5336 128.323 46.5183C128.364 46.5029 128.399 46.4771 128.423 46.4441C128.448 46.4111 128.46 46.3725 128.46 46.3333C128.46 46.282 128.436 46.2329 128.395 46.1967C128.354 46.1604 128.298 46.1401 128.239 46.1401ZM117.984 50.553C117.954 50.553 117.925 50.5581 117.898 50.568C117.87 50.5779 117.846 50.5924 117.825 50.6106C117.804 50.6289 117.787 50.6507 117.776 50.6746C117.765 50.6984 117.759 50.7241 117.759 50.7499C117.749 50.7792 117.748 50.8101 117.754 50.8401C117.76 50.87 117.775 50.8983 117.796 50.9226C117.817 50.947 117.844 50.9667 117.875 50.9803C117.906 50.9939 117.94 51.001 117.975 51.001C118.01 51.001 118.044 50.9939 118.075 50.9803C118.106 50.9667 118.133 50.947 118.154 50.9226C118.175 50.8983 118.189 50.87 118.196 50.8401C118.202 50.8101 118.2 50.7792 118.191 50.7499C118.192 50.6999 118.171 50.6515 118.133 50.6148C118.094 50.578 118.04 50.5559 117.984 50.553ZM121.401 50.553C121.371 50.553 121.342 50.5581 121.315 50.568C121.287 50.5779 121.263 50.5924 121.242 50.6106C121.221 50.6289 121.204 50.6507 121.193 50.6746C121.182 50.6984 121.176 50.7241 121.176 50.7499C121.176 50.8022 121.2 50.8523 121.242 50.8892C121.284 50.9261 121.341 50.9469 121.401 50.9469C121.46 50.9459 121.516 50.9249 121.558 50.8881C121.6 50.8514 121.624 50.8019 121.625 50.7499C121.625 50.7234 121.619 50.6972 121.607 50.6728C121.596 50.6484 121.578 50.6263 121.557 50.6079C121.535 50.5895 121.509 50.5752 121.481 50.5657C121.452 50.5563 121.422 50.5519 121.392 50.553H121.401ZM124.818 50.553C124.788 50.553 124.759 50.5581 124.732 50.568C124.705 50.578 124.681 50.5925 124.66 50.6109C124.64 50.6292 124.624 50.651 124.613 50.6748C124.602 50.6987 124.597 50.7242 124.597 50.7499C124.597 50.789 124.611 50.8273 124.636 50.8597C124.661 50.8922 124.696 50.9174 124.737 50.9322C124.778 50.947 124.824 50.9507 124.868 50.9428C124.911 50.9349 124.951 50.9157 124.982 50.8878C125.014 50.8599 125.035 50.8244 125.043 50.786C125.051 50.7475 125.046 50.7078 125.028 50.6719C125.011 50.636 124.981 50.6055 124.944 50.5843C124.906 50.5631 124.862 50.5522 124.818 50.553ZM128.239 50.553C128.21 50.553 128.181 50.5581 128.153 50.568C128.126 50.5779 128.101 50.5924 128.08 50.6106C128.06 50.6289 128.043 50.6507 128.032 50.6746C128.02 50.6984 128.015 50.7241 128.015 50.7499C128.005 50.7792 128.003 50.8101 128.01 50.8401C128.016 50.87 128.03 50.8983 128.051 50.9226C128.072 50.947 128.099 50.9667 128.13 50.9803C128.162 50.9939 128.196 51.001 128.231 51.001C128.265 51.001 128.3 50.9939 128.331 50.9803C128.362 50.9667 128.389 50.947 128.41 50.9226C128.431 50.8983 128.445 50.87 128.451 50.8401C128.458 50.8101 128.456 50.7792 128.447 50.7499C128.448 50.6999 128.427 50.6515 128.388 50.6148C128.35 50.578 128.296 50.5559 128.239 50.553ZM131.656 50.553C131.627 50.553 131.598 50.5581 131.57 50.568C131.543 50.5779 131.518 50.5924 131.497 50.6106C131.477 50.6289 131.46 50.6507 131.449 50.6746C131.438 50.6984 131.432 50.7241 131.432 50.7499C131.432 50.8022 131.455 50.8523 131.497 50.8892C131.54 50.9261 131.597 50.9469 131.656 50.9469C131.716 50.9459 131.772 50.9249 131.814 50.8881C131.856 50.8514 131.88 50.8019 131.881 50.7499C131.881 50.7241 131.875 50.6984 131.864 50.6746C131.853 50.6507 131.836 50.6289 131.815 50.6106C131.794 50.5924 131.77 50.5779 131.742 50.568C131.715 50.5581 131.686 50.553 131.656 50.553ZM119.69 48.3219C119.645 48.3219 119.602 48.3336 119.565 48.3554C119.528 48.3772 119.499 48.4082 119.482 48.4444C119.465 48.4806 119.461 48.5204 119.47 48.5587C119.479 48.597 119.501 48.6321 119.533 48.6595C119.565 48.6869 119.605 48.7053 119.649 48.7125C119.693 48.7197 119.738 48.7152 119.779 48.6997C119.82 48.6842 119.855 48.6584 119.879 48.6255C119.903 48.5926 119.915 48.5542 119.915 48.5151C119.915 48.4894 119.909 48.464 119.897 48.4403C119.886 48.4166 119.869 48.3951 119.849 48.3771C119.828 48.3591 119.803 48.345 119.776 48.3355C119.748 48.326 119.719 48.3214 119.69 48.3219ZM123.111 48.3219C123.067 48.3211 123.023 48.3322 122.985 48.3535C122.947 48.3749 122.918 48.4056 122.9 48.4417C122.883 48.4779 122.878 48.5178 122.887 48.5563C122.895 48.5949 122.917 48.6303 122.948 48.6581C122.98 48.6859 123.02 48.7047 123.064 48.7122C123.108 48.7197 123.154 48.7155 123.195 48.7001C123.236 48.6847 123.271 48.6589 123.296 48.6259C123.32 48.5929 123.333 48.5543 123.332 48.5151C123.332 48.4651 123.31 48.4171 123.27 48.3811C123.231 48.3451 123.177 48.3239 123.12 48.3219H123.111ZM126.529 48.3219C126.495 48.3135 126.46 48.3121 126.426 48.3176C126.392 48.3232 126.359 48.3357 126.332 48.354C126.304 48.3724 126.281 48.3962 126.266 48.4234C126.25 48.4507 126.242 48.4808 126.242 48.5113C126.242 48.5418 126.25 48.5718 126.266 48.5991C126.281 48.6264 126.304 48.6502 126.332 48.6685C126.359 48.6869 126.392 48.6994 126.426 48.7049C126.46 48.7105 126.495 48.7091 126.529 48.7007C126.562 48.7091 126.597 48.7105 126.631 48.7049C126.666 48.6994 126.698 48.6869 126.725 48.6685C126.753 48.6502 126.776 48.6264 126.791 48.5991C126.807 48.5718 126.815 48.5418 126.815 48.5113C126.815 48.4808 126.807 48.4507 126.791 48.4234C126.776 48.3962 126.753 48.3724 126.725 48.354C126.698 48.3357 126.666 48.3232 126.631 48.3176C126.597 48.3121 126.562 48.3135 126.529 48.3219ZM129.946 48.3219C129.901 48.3219 129.857 48.3336 129.82 48.3554C129.783 48.3772 129.755 48.4082 129.738 48.4444C129.721 48.4806 129.717 48.5204 129.726 48.5587C129.735 48.597 129.757 48.6321 129.788 48.6595C129.82 48.6869 129.861 48.7053 129.905 48.7125C129.948 48.7197 129.994 48.7152 130.035 48.6997C130.076 48.6842 130.11 48.6584 130.135 48.6255C130.159 48.5926 130.171 48.5542 130.17 48.5151C130.17 48.4894 130.164 48.464 130.153 48.4403C130.142 48.4166 130.125 48.3951 130.104 48.3771C130.083 48.3591 130.058 48.345 130.031 48.3355C130.004 48.326 129.975 48.3214 129.946 48.3219ZM114.683 54.9999C114.649 55.1249 114.618 55.2423 114.597 55.356C114.65 55.3495 114.698 55.3264 114.733 55.2908C114.768 55.2553 114.787 55.2098 114.787 55.1628C114.787 55.1301 114.778 55.0979 114.759 55.0694C114.741 55.0409 114.715 55.0169 114.683 54.9999ZM117.984 54.9696C117.939 54.9689 117.895 54.9799 117.857 55.0012C117.82 55.0226 117.79 55.0533 117.773 55.0894C117.755 55.1256 117.75 55.1655 117.759 55.2041C117.767 55.2426 117.789 55.2781 117.82 55.3058C117.852 55.3336 117.893 55.3524 117.937 55.3599C117.98 55.3674 118.026 55.3632 118.067 55.3478C118.108 55.3324 118.143 55.3066 118.168 55.2736C118.192 55.2407 118.205 55.2021 118.204 55.1628C118.204 55.1116 118.181 55.0624 118.139 55.0262C118.098 54.99 118.042 54.9696 117.984 54.9696ZM121.401 54.9696C121.367 54.9612 121.332 54.9598 121.298 54.9654C121.264 54.971 121.231 54.9834 121.204 55.0018C121.176 55.0201 121.153 55.0439 121.138 55.0712C121.122 55.0985 121.114 55.1285 121.114 55.159C121.114 55.1895 121.122 55.2196 121.138 55.2469C121.153 55.2741 121.176 55.2979 121.204 55.3163C121.231 55.3346 121.264 55.3471 121.298 55.3527C121.332 55.3582 121.367 55.3568 121.401 55.3484C121.434 55.3568 121.469 55.3582 121.503 55.3527C121.538 55.3471 121.57 55.3346 121.598 55.3163C121.625 55.2979 121.648 55.2741 121.663 55.2469C121.679 55.2196 121.687 55.1895 121.687 55.159C121.687 55.1285 121.679 55.0985 121.663 55.0712C121.648 55.0439 121.625 55.0201 121.598 55.0018C121.57 54.9834 121.538 54.971 121.503 54.9654C121.469 54.9598 121.434 54.9612 121.401 54.9696ZM124.818 54.9696C124.773 54.9696 124.73 54.9813 124.693 55.0031C124.656 55.0249 124.627 55.0559 124.61 55.0921C124.593 55.1283 124.589 55.1681 124.598 55.2064C124.607 55.2447 124.629 55.2798 124.661 55.3072C124.692 55.3346 124.733 55.3531 124.777 55.3602C124.821 55.3674 124.866 55.363 124.907 55.3475C124.948 55.332 124.983 55.3061 125.007 55.2732C125.031 55.2404 125.043 55.2019 125.042 55.1628C125.042 55.1371 125.037 55.1117 125.025 55.088C125.014 55.0643 124.997 55.0428 124.976 55.0248C124.955 55.0069 124.931 54.9927 124.903 54.9832C124.876 54.9737 124.847 54.9691 124.818 54.9696ZM128.239 54.9696C128.194 54.9689 128.15 54.9799 128.113 55.0012C128.075 55.0226 128.046 55.0533 128.028 55.0894C128.011 55.1256 128.006 55.1655 128.014 55.2041C128.023 55.2426 128.044 55.2781 128.076 55.3058C128.108 55.3336 128.148 55.3524 128.192 55.3599C128.236 55.3674 128.282 55.3632 128.323 55.3478C128.364 55.3324 128.399 55.3066 128.423 55.2736C128.448 55.2407 128.46 55.2021 128.46 55.1628C128.46 55.1116 128.436 55.0624 128.395 55.0262C128.354 54.99 128.298 54.9696 128.239 54.9696ZM131.656 54.9696C131.623 54.9612 131.588 54.9598 131.554 54.9654C131.519 54.971 131.487 54.9834 131.459 55.0018C131.432 55.0201 131.409 55.0439 131.394 55.0712C131.378 55.0985 131.37 55.1285 131.37 55.159C131.37 55.1895 131.378 55.2196 131.394 55.2469C131.409 55.2741 131.432 55.2979 131.459 55.3163C131.487 55.3346 131.519 55.3471 131.554 55.3527C131.588 55.3582 131.623 55.3568 131.656 55.3484C131.69 55.3568 131.725 55.3582 131.759 55.3527C131.793 55.3471 131.826 55.3346 131.853 55.3163C131.881 55.2979 131.904 55.2741 131.919 55.2469C131.935 55.2196 131.943 55.1895 131.943 55.159C131.943 55.1285 131.935 55.0985 131.919 55.0712C131.904 55.0439 131.881 55.0201 131.853 55.0018C131.826 54.9834 131.793 54.971 131.759 54.9654C131.725 54.9598 131.69 54.9612 131.656 54.9696ZM135.073 54.9696C135.029 54.9696 134.985 54.9813 134.948 55.0031C134.911 55.0249 134.882 55.0559 134.866 55.0921C134.849 55.1283 134.844 55.1681 134.854 55.2064C134.863 55.2447 134.884 55.2798 134.916 55.3072C134.948 55.3346 134.988 55.3531 135.032 55.3602C135.076 55.3674 135.121 55.363 135.162 55.3475C135.203 55.332 135.238 55.3061 135.262 55.2732C135.287 55.2404 135.299 55.2019 135.298 55.1628C135.298 55.1371 135.292 55.1117 135.281 55.088C135.27 55.0643 135.253 55.0428 135.232 55.0248C135.211 55.0069 135.186 54.9927 135.159 54.9832C135.132 54.9737 135.103 54.9691 135.073 54.9696ZM116.273 52.7348C116.213 52.7348 116.156 52.7555 116.114 52.7925C116.072 52.8294 116.048 52.8795 116.048 52.9317C116.048 52.984 116.072 53.0341 116.114 53.071C116.156 53.108 116.213 53.1287 116.273 53.1287C116.332 53.1277 116.389 53.1067 116.43 53.0699C116.472 53.0332 116.496 52.9837 116.497 52.9317C116.497 52.9059 116.492 52.8803 116.48 52.8564C116.469 52.8325 116.453 52.8108 116.432 52.7925C116.411 52.7742 116.386 52.7597 116.359 52.7498C116.332 52.7399 116.302 52.7348 116.273 52.7348ZM119.69 52.7348C119.661 52.7348 119.632 52.7399 119.605 52.7498C119.578 52.7598 119.553 52.7743 119.533 52.7927C119.512 52.811 119.496 52.8328 119.485 52.8567C119.474 52.8805 119.469 52.9061 119.47 52.9317C119.47 52.9709 119.483 53.0091 119.508 53.0416C119.533 53.074 119.568 53.0993 119.609 53.1141C119.651 53.1288 119.696 53.1325 119.74 53.1246C119.783 53.1167 119.823 53.0976 119.855 53.0696C119.886 53.0417 119.907 53.0062 119.915 52.9678C119.923 52.9293 119.918 52.8896 119.901 52.8537C119.883 52.8178 119.853 52.7873 119.816 52.7661C119.778 52.7449 119.735 52.734 119.69 52.7348ZM123.111 52.7348C123.052 52.7348 122.995 52.7555 122.953 52.7925C122.91 52.8294 122.887 52.8795 122.887 52.9317C122.877 52.9611 122.876 52.9919 122.882 53.0219C122.888 53.0519 122.902 53.0801 122.923 53.1045C122.944 53.1288 122.971 53.1485 123.003 53.1621C123.034 53.1757 123.068 53.1828 123.103 53.1828C123.138 53.1828 123.172 53.1757 123.203 53.1621C123.234 53.1485 123.261 53.1288 123.282 53.1045C123.303 53.0801 123.317 53.0519 123.324 53.0219C123.33 52.9919 123.328 52.9611 123.319 52.9317C123.32 52.883 123.3 52.8356 123.264 52.799C123.227 52.7625 123.175 52.7395 123.12 52.7348H123.111ZM126.529 52.7348C126.469 52.7348 126.412 52.7555 126.37 52.7925C126.328 52.8294 126.304 52.8795 126.304 52.9317C126.304 52.984 126.328 53.0341 126.37 53.071C126.412 53.108 126.469 53.1287 126.529 53.1287C126.588 53.1277 126.644 53.1067 126.686 53.0699C126.728 53.0332 126.752 52.9837 126.753 52.9317C126.753 52.9059 126.747 52.8803 126.736 52.8564C126.725 52.8325 126.708 52.8108 126.687 52.7925C126.666 52.7742 126.642 52.7597 126.614 52.7498C126.587 52.7399 126.558 52.7348 126.529 52.7348ZM129.946 52.7348C129.916 52.7348 129.887 52.7399 129.86 52.7498C129.833 52.7598 129.809 52.7743 129.788 52.7927C129.768 52.811 129.752 52.8328 129.741 52.8567C129.73 52.8805 129.725 52.9061 129.725 52.9317C129.725 52.9709 129.739 53.0091 129.763 53.0416C129.788 53.074 129.824 53.0993 129.865 53.1141C129.906 53.1288 129.952 53.1325 129.995 53.1246C130.039 53.1167 130.079 53.0976 130.11 53.0696C130.142 53.0417 130.163 53.0062 130.171 52.9678C130.179 52.9293 130.174 52.8896 130.156 52.8537C130.139 52.8178 130.109 52.7873 130.072 52.7661C130.034 52.7449 129.99 52.734 129.946 52.7348ZM133.367 52.7348C133.307 52.7348 133.25 52.7555 133.208 52.7925C133.166 52.8294 133.142 52.8795 133.142 52.9317C133.133 52.9611 133.131 52.9919 133.138 53.0219C133.144 53.0519 133.158 53.0801 133.179 53.1045C133.2 53.1288 133.227 53.1485 133.258 53.1621C133.289 53.1757 133.324 53.1828 133.358 53.1828C133.393 53.1828 133.427 53.1757 133.459 53.1621C133.49 53.1485 133.517 53.1288 133.538 53.1045C133.559 53.0801 133.573 53.0519 133.579 53.0219C133.586 52.9919 133.584 52.9611 133.574 52.9317C133.576 52.8818 133.555 52.8333 133.516 52.7966C133.477 52.7599 133.424 52.7377 133.367 52.7348ZM117.984 59.3825C117.924 59.3825 117.867 59.4033 117.825 59.4402C117.783 59.4771 117.759 59.5272 117.759 59.5795C117.749 59.6088 117.748 59.6396 117.754 59.6696C117.76 59.6996 117.775 59.7279 117.796 59.7522C117.817 59.7765 117.844 59.7963 117.875 59.8099C117.906 59.8235 117.94 59.8305 117.975 59.8305C118.01 59.8305 118.044 59.8235 118.075 59.8099C118.106 59.7963 118.133 59.7765 118.154 59.7522C118.175 59.7279 118.189 59.6996 118.196 59.6696C118.202 59.6396 118.2 59.6088 118.191 59.5795C118.192 59.5295 118.171 59.481 118.133 59.4443C118.094 59.4076 118.04 59.3854 117.984 59.3825ZM121.401 59.3825C121.341 59.3825 121.284 59.4033 121.242 59.4402C121.2 59.4771 121.176 59.5272 121.176 59.5795C121.176 59.6317 121.2 59.6818 121.242 59.7187C121.284 59.7557 121.341 59.7764 121.401 59.7764C121.46 59.7755 121.516 59.7544 121.558 59.7177C121.6 59.6809 121.624 59.6314 121.625 59.5795C121.625 59.5529 121.619 59.5267 121.607 59.5023C121.596 59.4779 121.578 59.4558 121.557 59.4374C121.535 59.4191 121.509 59.4047 121.481 59.3953C121.452 59.3858 121.422 59.3815 121.392 59.3825H121.401ZM124.818 59.3825C124.788 59.3825 124.759 59.3876 124.732 59.3976C124.705 59.4075 124.681 59.4221 124.66 59.4404C124.64 59.4588 124.624 59.4805 124.613 59.5044C124.602 59.5283 124.597 59.5538 124.597 59.5795C124.597 59.6186 124.611 59.6568 124.636 59.6893C124.661 59.7218 124.696 59.747 124.737 59.7618C124.778 59.7766 124.824 59.7802 124.868 59.7723C124.911 59.7644 124.951 59.7453 124.982 59.7174C125.014 59.6894 125.035 59.654 125.043 59.6155C125.051 59.5771 125.046 59.5374 125.028 59.5014C125.011 59.4655 124.981 59.435 124.944 59.4138C124.906 59.3927 124.862 59.3817 124.818 59.3825ZM128.239 59.3825C128.18 59.3825 128.123 59.4033 128.08 59.4402C128.038 59.4771 128.015 59.5272 128.015 59.5795C128.005 59.6088 128.003 59.6396 128.01 59.6696C128.016 59.6996 128.03 59.7279 128.051 59.7522C128.072 59.7765 128.099 59.7963 128.13 59.8099C128.162 59.8235 128.196 59.8305 128.231 59.8305C128.265 59.8305 128.3 59.8235 128.331 59.8099C128.362 59.7963 128.389 59.7765 128.41 59.7522C128.431 59.7279 128.445 59.6996 128.451 59.6696C128.458 59.6396 128.456 59.6088 128.447 59.5795C128.448 59.5295 128.427 59.481 128.388 59.4443C128.35 59.4076 128.296 59.3854 128.239 59.3825ZM131.656 59.3825C131.597 59.3825 131.54 59.4033 131.497 59.4402C131.455 59.4771 131.432 59.5272 131.432 59.5795C131.432 59.6317 131.455 59.6818 131.497 59.7187C131.54 59.7557 131.597 59.7764 131.656 59.7764C131.716 59.7755 131.772 59.7544 131.814 59.7177C131.856 59.6809 131.88 59.6314 131.881 59.5795C131.881 59.5536 131.875 59.528 131.864 59.5041C131.853 59.4802 131.836 59.4585 131.815 59.4402C131.794 59.4219 131.77 59.4074 131.742 59.3975C131.715 59.3876 131.686 59.3825 131.656 59.3825ZM135.073 59.3825C135.044 59.3825 135.015 59.3876 134.988 59.3976C134.961 59.4075 134.937 59.4221 134.916 59.4404C134.896 59.4588 134.879 59.4805 134.869 59.5044C134.858 59.5283 134.853 59.5538 134.853 59.5795C134.853 59.6186 134.866 59.6568 134.891 59.6893C134.916 59.7218 134.952 59.747 134.993 59.7618C135.034 59.7766 135.08 59.7802 135.123 59.7723C135.167 59.7644 135.207 59.7453 135.238 59.7174C135.269 59.6894 135.29 59.654 135.299 59.6155C135.307 59.5771 135.302 59.5374 135.284 59.5014C135.266 59.4655 135.237 59.435 135.199 59.4138C135.162 59.3927 135.118 59.3817 135.073 59.3825ZM116.273 57.1514C116.239 57.1431 116.204 57.1416 116.17 57.1472C116.136 57.1528 116.104 57.1652 116.076 57.1836C116.048 57.2019 116.026 57.2257 116.01 57.253C115.995 57.2803 115.987 57.3103 115.987 57.3408C115.987 57.3713 115.995 57.4014 116.01 57.4287C116.026 57.456 116.048 57.4797 116.076 57.4981C116.104 57.5164 116.136 57.5289 116.17 57.5345C116.204 57.5401 116.239 57.5386 116.273 57.5302C116.306 57.5386 116.341 57.5401 116.376 57.5345C116.41 57.5289 116.442 57.5164 116.47 57.4981C116.498 57.4797 116.52 57.456 116.536 57.4287C116.551 57.4014 116.559 57.3713 116.559 57.3408C116.559 57.3103 116.551 57.2803 116.536 57.253C116.52 57.2257 116.498 57.2019 116.47 57.1836C116.442 57.1652 116.41 57.1528 116.376 57.1472C116.341 57.1416 116.306 57.1431 116.273 57.1514ZM119.69 57.1514C119.645 57.1514 119.602 57.1631 119.565 57.1849C119.528 57.2067 119.499 57.2377 119.482 57.2739C119.465 57.3101 119.461 57.3499 119.47 57.3883C119.479 57.4266 119.501 57.4616 119.533 57.489C119.565 57.5164 119.605 57.5349 119.649 57.542C119.693 57.5492 119.738 57.5448 119.779 57.5293C119.82 57.5138 119.855 57.4879 119.879 57.4551C119.903 57.4222 119.915 57.3837 119.915 57.3446C119.915 57.3189 119.909 57.2935 119.897 57.2698C119.886 57.2461 119.869 57.2247 119.849 57.2067C119.828 57.1887 119.803 57.1745 119.776 57.165C119.748 57.1556 119.719 57.1509 119.69 57.1514ZM123.111 57.1514C123.067 57.1507 123.023 57.1617 122.985 57.1831C122.947 57.2044 122.918 57.2351 122.9 57.2713C122.883 57.3074 122.878 57.3473 122.887 57.3859C122.895 57.4244 122.917 57.4599 122.948 57.4877C122.98 57.5154 123.02 57.5343 123.064 57.5417C123.108 57.5492 123.154 57.545 123.195 57.5296C123.236 57.5142 123.271 57.4884 123.296 57.4555C123.32 57.4225 123.333 57.3839 123.332 57.3446C123.332 57.2947 123.31 57.2467 123.27 57.2106C123.231 57.1746 123.177 57.1534 123.12 57.1514H123.111ZM126.529 57.1514C126.495 57.1431 126.46 57.1416 126.426 57.1472C126.392 57.1528 126.359 57.1652 126.332 57.1836C126.304 57.2019 126.281 57.2257 126.266 57.253C126.25 57.2803 126.242 57.3103 126.242 57.3408C126.242 57.3713 126.25 57.4014 126.266 57.4287C126.281 57.456 126.304 57.4797 126.332 57.4981C126.359 57.5164 126.392 57.5289 126.426 57.5345C126.46 57.5401 126.495 57.5386 126.529 57.5302C126.562 57.5386 126.597 57.5401 126.631 57.5345C126.666 57.5289 126.698 57.5164 126.725 57.4981C126.753 57.4797 126.776 57.456 126.791 57.4287C126.807 57.4014 126.815 57.3713 126.815 57.3408C126.815 57.3103 126.807 57.2803 126.791 57.253C126.776 57.2257 126.753 57.2019 126.725 57.1836C126.698 57.1652 126.666 57.1528 126.631 57.1472C126.597 57.1416 126.562 57.1431 126.529 57.1514ZM129.946 57.1514C129.901 57.1514 129.857 57.1631 129.82 57.1849C129.783 57.2067 129.755 57.2377 129.738 57.2739C129.721 57.3101 129.717 57.3499 129.726 57.3883C129.735 57.4266 129.757 57.4616 129.788 57.489C129.82 57.5164 129.861 57.5349 129.905 57.542C129.948 57.5492 129.994 57.5448 130.035 57.5293C130.076 57.5138 130.11 57.4879 130.135 57.4551C130.159 57.4222 130.171 57.3837 130.17 57.3446C130.17 57.3189 130.164 57.2935 130.153 57.2698C130.142 57.2461 130.125 57.2247 130.104 57.2067C130.083 57.1887 130.058 57.1745 130.031 57.165C130.004 57.1556 129.975 57.1509 129.946 57.1514ZM133.367 57.1514C133.322 57.1507 133.278 57.1617 133.241 57.1831C133.203 57.2044 133.174 57.2351 133.156 57.2713C133.139 57.3074 133.134 57.3473 133.142 57.3859C133.151 57.4244 133.172 57.4599 133.204 57.4877C133.236 57.5154 133.276 57.5343 133.32 57.5417C133.364 57.5492 133.41 57.545 133.451 57.5296C133.492 57.5142 133.527 57.4884 133.551 57.4555C133.576 57.4225 133.588 57.3839 133.587 57.3446C133.587 57.3193 133.582 57.2941 133.571 57.2707C133.56 57.2473 133.543 57.226 133.523 57.208C133.502 57.1901 133.478 57.1759 133.451 57.1661C133.425 57.1564 133.396 57.1514 133.367 57.1514ZM136.823 57.1514H136.763C136.723 57.151 136.684 57.1599 136.649 57.1771C136.615 57.1943 136.586 57.2193 136.566 57.2494C136.546 57.2795 136.535 57.3138 136.535 57.3486C136.535 57.3835 136.546 57.4177 136.566 57.4478C136.586 57.4779 136.615 57.5028 136.65 57.5199C136.684 57.537 136.723 57.5458 136.763 57.5453C136.803 57.5449 136.842 57.5352 136.876 57.5172C136.91 57.4992 136.938 57.4737 136.957 57.4431C136.944 57.3484 136.892 57.2537 136.845 57.159L136.823 57.1514ZM117.962 63.7916C117.917 63.7908 117.873 63.8018 117.836 63.8232C117.798 63.8446 117.769 63.8753 117.751 63.9114C117.733 63.9476 117.729 63.9875 117.737 64.026C117.746 64.0646 117.767 64.1 117.799 64.1278C117.831 64.1556 117.871 64.1744 117.915 64.1819C117.959 64.1894 118.004 64.1851 118.046 64.1698C118.087 64.1544 118.122 64.1286 118.146 64.0956C118.171 64.0626 118.183 64.024 118.182 63.9848C118.18 63.938 118.159 63.8934 118.123 63.8592C118.086 63.8251 118.037 63.8037 117.984 63.7992L117.962 63.7916ZM121.379 63.7916C121.346 63.7832 121.31 63.7818 121.276 63.7873C121.242 63.7929 121.21 63.8054 121.182 63.8237C121.154 63.8421 121.132 63.8659 121.116 63.8931C121.101 63.9204 121.093 63.9505 121.093 63.981C121.093 64.0115 121.101 64.0415 121.116 64.0688C121.132 64.0961 121.154 64.1199 121.182 64.1382C121.21 64.1566 121.242 64.169 121.276 64.1746C121.31 64.1802 121.346 64.1788 121.379 64.1704C121.413 64.1788 121.448 64.1802 121.482 64.1746C121.516 64.169 121.548 64.1566 121.576 64.1382C121.604 64.1199 121.626 64.0961 121.642 64.0688C121.657 64.0415 121.665 64.0115 121.665 63.981C121.665 63.9505 121.657 63.9204 121.642 63.8931C121.626 63.8659 121.604 63.8421 121.576 63.8237C121.548 63.8054 121.516 63.7929 121.482 63.7873C121.448 63.7818 121.413 63.7832 121.379 63.7916ZM124.796 63.7916C124.752 63.7916 124.708 63.8033 124.671 63.8251C124.634 63.8469 124.605 63.8779 124.588 63.9141C124.571 63.9503 124.567 63.9901 124.576 64.0284C124.585 64.0667 124.607 64.1018 124.639 64.1292C124.671 64.1566 124.711 64.175 124.755 64.1822C124.799 64.1894 124.844 64.1849 124.885 64.1694C124.926 64.1539 124.961 64.1281 124.985 64.0952C125.009 64.0623 125.022 64.0239 125.021 63.9848C125.019 63.9374 124.997 63.8923 124.96 63.858C124.922 63.8238 124.872 63.8029 124.818 63.7992L124.796 63.7916ZM128.218 63.7916C128.173 63.7908 128.129 63.8018 128.091 63.8232C128.054 63.8446 128.024 63.8753 128.007 63.9114C127.989 63.9476 127.984 63.9875 127.993 64.026C128.001 64.0646 128.023 64.1 128.055 64.1278C128.086 64.1556 128.127 64.1744 128.171 64.1819C128.215 64.1894 128.26 64.1851 128.301 64.1698C128.343 64.1544 128.378 64.1286 128.402 64.0956C128.426 64.0626 128.439 64.024 128.438 63.9848C128.436 63.938 128.415 63.8934 128.378 63.8592C128.342 63.8251 128.292 63.8037 128.239 63.7992L128.218 63.7916ZM131.635 63.7916C131.601 63.7832 131.566 63.7818 131.532 63.7873C131.498 63.7929 131.466 63.8054 131.438 63.8237C131.41 63.8421 131.387 63.8659 131.372 63.8931C131.356 63.9204 131.348 63.9505 131.348 63.981C131.348 64.0115 131.356 64.0415 131.372 64.0688C131.387 64.0961 131.41 64.1199 131.438 64.1382C131.466 64.1566 131.498 64.169 131.532 64.1746C131.566 64.1802 131.601 64.1788 131.635 64.1704C131.668 64.1788 131.703 64.1802 131.738 64.1746C131.772 64.169 131.804 64.1566 131.832 64.1382C131.859 64.1199 131.882 64.0961 131.898 64.0688C131.913 64.0415 131.921 64.0115 131.921 63.981C131.921 63.9505 131.913 63.9204 131.898 63.8931C131.882 63.8659 131.859 63.8421 131.832 63.8237C131.804 63.8054 131.772 63.7929 131.738 63.7873C131.703 63.7818 131.668 63.7832 131.635 63.7916ZM135.052 63.7916C135.007 63.7916 134.964 63.8033 134.927 63.8251C134.89 63.8469 134.861 63.8779 134.844 63.9141C134.827 63.9503 134.823 63.9901 134.832 64.0284C134.841 64.0667 134.863 64.1018 134.895 64.1292C134.926 64.1566 134.967 64.175 135.011 64.1822C135.055 64.1894 135.1 64.1849 135.141 64.1694C135.182 64.1539 135.217 64.1281 135.241 64.0952C135.265 64.0623 135.277 64.0239 135.277 63.9848C135.275 63.9374 135.253 63.8923 135.215 63.858C135.178 63.8238 135.127 63.8029 135.073 63.7992L135.052 63.7916ZM138.473 63.7916C138.429 63.7908 138.384 63.8018 138.347 63.8232C138.309 63.8446 138.28 63.8753 138.262 63.9114C138.245 63.9476 138.24 63.9875 138.248 64.026C138.257 64.0646 138.278 64.1 138.31 64.1278C138.342 64.1556 138.382 64.1744 138.426 64.1819C138.47 64.1894 138.516 64.1851 138.557 64.1698C138.598 64.1544 138.633 64.1286 138.658 64.0956C138.682 64.0626 138.694 64.024 138.694 63.9848C138.692 63.938 138.671 63.8934 138.634 63.8592C138.598 63.8251 138.548 63.8037 138.495 63.7992L138.473 63.7916ZM116.251 61.5567C116.192 61.5567 116.135 61.5775 116.092 61.6144C116.05 61.6514 116.027 61.7015 116.027 61.7537C116.027 61.806 116.05 61.856 116.092 61.893C116.135 61.9299 116.192 61.9507 116.251 61.9507C116.31 61.9497 116.367 61.9286 116.409 61.8919C116.451 61.8552 116.475 61.8056 116.476 61.7537C116.474 61.7059 116.452 61.6603 116.415 61.6255C116.378 61.5906 116.327 61.5689 116.273 61.5643L116.251 61.5567ZM119.668 61.5567C119.639 61.5567 119.61 61.5619 119.583 61.5718C119.556 61.5817 119.532 61.5963 119.511 61.6147C119.491 61.633 119.474 61.6547 119.464 61.6786C119.453 61.7025 119.447 61.728 119.448 61.7537C119.448 61.7928 119.461 61.8311 119.486 61.8635C119.511 61.896 119.546 61.9212 119.588 61.936C119.629 61.9508 119.674 61.9545 119.718 61.9466C119.762 61.9387 119.802 61.9195 119.833 61.8916C119.864 61.8637 119.885 61.8282 119.894 61.7898C119.902 61.7513 119.897 61.7116 119.879 61.6757C119.861 61.6398 119.832 61.6093 119.794 61.5881C119.757 61.5669 119.713 61.556 119.668 61.5567ZM123.09 61.5567C123.03 61.5567 122.973 61.5775 122.931 61.6144C122.889 61.6514 122.865 61.7015 122.865 61.7537C122.856 61.783 122.854 61.8139 122.86 61.8439C122.867 61.8738 122.881 61.9021 122.902 61.9264C122.923 61.9508 122.95 61.9705 122.981 61.9841C123.012 61.9977 123.046 62.0048 123.081 62.0048C123.116 62.0048 123.15 61.9977 123.181 61.9841C123.212 61.9705 123.24 61.9508 123.26 61.9264C123.281 61.9021 123.296 61.8738 123.302 61.8439C123.308 61.8139 123.307 61.783 123.297 61.7537C123.297 61.7091 123.279 61.6658 123.247 61.6313C123.215 61.5967 123.17 61.5731 123.12 61.5643L123.09 61.5567ZM126.507 61.5567C126.447 61.5567 126.39 61.5775 126.348 61.6144C126.306 61.6514 126.282 61.7015 126.282 61.7537C126.282 61.806 126.306 61.856 126.348 61.893C126.39 61.9299 126.447 61.9507 126.507 61.9507C126.566 61.9497 126.623 61.9286 126.665 61.8919C126.706 61.8552 126.73 61.8056 126.732 61.7537C126.73 61.7059 126.708 61.6603 126.671 61.6255C126.633 61.5906 126.583 61.5689 126.529 61.5643L126.507 61.5567ZM129.924 61.5567C129.895 61.5567 129.866 61.5619 129.839 61.5718C129.812 61.5817 129.787 61.5963 129.767 61.6147C129.746 61.633 129.73 61.6547 129.719 61.6786C129.708 61.7025 129.703 61.728 129.704 61.7537C129.704 61.7928 129.717 61.8311 129.742 61.8635C129.767 61.896 129.802 61.9212 129.843 61.936C129.885 61.9508 129.93 61.9545 129.974 61.9466C130.017 61.9387 130.057 61.9195 130.089 61.8916C130.12 61.8637 130.141 61.8282 130.149 61.7898C130.157 61.7513 130.152 61.7116 130.135 61.6757C130.117 61.6398 130.087 61.6093 130.05 61.5881C130.012 61.5669 129.969 61.556 129.924 61.5567ZM133.345 61.5567C133.286 61.5567 133.229 61.5775 133.187 61.6144C133.144 61.6514 133.121 61.7015 133.121 61.7537C133.111 61.783 133.11 61.8139 133.116 61.8439C133.122 61.8738 133.137 61.9021 133.157 61.9264C133.178 61.9508 133.206 61.9705 133.237 61.9841C133.268 61.9977 133.302 62.0048 133.337 62.0048C133.372 62.0048 133.406 61.9977 133.437 61.9841C133.468 61.9705 133.495 61.9508 133.516 61.9264C133.537 61.9021 133.551 61.8738 133.558 61.8439C133.564 61.8139 133.562 61.783 133.553 61.7537C133.552 61.708 133.534 61.6638 133.5 61.6291C133.466 61.5945 133.419 61.5715 133.367 61.5643L133.345 61.5567ZM136.763 61.5567C136.703 61.5567 136.646 61.5775 136.604 61.6144C136.562 61.6514 136.538 61.7015 136.538 61.7537C136.538 61.806 136.562 61.856 136.604 61.893C136.646 61.9299 136.703 61.9507 136.763 61.9507C136.822 61.9497 136.878 61.9286 136.92 61.8919C136.962 61.8552 136.986 61.8056 136.987 61.7537C136.985 61.7059 136.964 61.6603 136.926 61.6255C136.889 61.5906 136.838 61.5689 136.784 61.5643L136.763 61.5567ZM117.962 68.2045C117.932 68.2045 117.903 68.2096 117.876 68.2195C117.849 68.2294 117.824 68.2439 117.803 68.2622C117.782 68.2805 117.766 68.3022 117.754 68.3261C117.743 68.35 117.737 68.3756 117.737 68.4014C117.728 68.4307 117.726 68.4616 117.732 68.4916C117.739 68.5216 117.753 68.5498 117.774 68.5742C117.795 68.5985 117.822 68.6182 117.853 68.6318C117.884 68.6454 117.919 68.6525 117.953 68.6525C117.988 68.6525 118.022 68.6454 118.054 68.6318C118.085 68.6182 118.112 68.5985 118.133 68.5742C118.154 68.5498 118.168 68.5216 118.174 68.4916C118.181 68.4616 118.179 68.4307 118.169 68.4014C118.169 68.3557 118.15 68.3116 118.116 68.2769C118.082 68.2422 118.035 68.2192 117.984 68.212L117.962 68.2045ZM121.379 68.2045C121.319 68.2045 121.262 68.2252 121.22 68.2622C121.178 68.2991 121.154 68.3492 121.154 68.4014C121.154 68.4537 121.178 68.5038 121.22 68.5407C121.262 68.5777 121.319 68.5984 121.379 68.5984C121.438 68.5974 121.495 68.5764 121.537 68.5396C121.579 68.5029 121.603 68.4534 121.604 68.4014C121.602 68.3524 121.579 68.3059 121.54 68.2708C121.501 68.2358 121.448 68.2148 121.392 68.212L121.379 68.2045ZM124.796 68.2045C124.767 68.2045 124.738 68.2096 124.711 68.2195C124.684 68.2295 124.659 68.244 124.639 68.2624C124.618 68.2807 124.602 68.3025 124.591 68.3263C124.581 68.3502 124.575 68.3758 124.576 68.4014C124.576 68.4406 124.589 68.4788 124.614 68.5112C124.639 68.5437 124.674 68.569 124.716 68.5837C124.757 68.5985 124.802 68.6022 124.846 68.5943C124.89 68.5864 124.93 68.5672 124.961 68.5393C124.992 68.5114 125.013 68.4759 125.021 68.4375C125.03 68.399 125.024 68.3593 125.007 68.3234C124.989 68.2875 124.96 68.257 124.922 68.2358C124.885 68.2146 124.841 68.2037 124.796 68.2045ZM128.218 68.2045C128.188 68.2045 128.159 68.2096 128.132 68.2195C128.104 68.2294 128.08 68.2439 128.059 68.2622C128.038 68.2805 128.021 68.3022 128.01 68.3261C127.999 68.35 127.993 68.3756 127.993 68.4014C127.983 68.4307 127.982 68.4616 127.988 68.4916C127.994 68.5216 128.009 68.5498 128.03 68.5742C128.051 68.5985 128.078 68.6182 128.109 68.6318C128.14 68.6454 128.174 68.6525 128.209 68.6525C128.244 68.6525 128.278 68.6454 128.309 68.6318C128.34 68.6182 128.367 68.5985 128.388 68.5742C128.409 68.5498 128.423 68.5216 128.43 68.4916C128.436 68.4616 128.435 68.4307 128.425 68.4014C128.425 68.3557 128.406 68.3116 128.372 68.2769C128.338 68.2422 128.291 68.2192 128.239 68.212L128.218 68.2045ZM131.635 68.2045C131.605 68.2045 131.576 68.2096 131.549 68.2195C131.522 68.2294 131.497 68.2439 131.476 68.2622C131.455 68.2805 131.438 68.3022 131.427 68.3261C131.416 68.35 131.41 68.3756 131.41 68.4014C131.41 68.4537 131.434 68.5038 131.476 68.5407C131.518 68.5777 131.575 68.5984 131.635 68.5984C131.694 68.5974 131.75 68.5764 131.792 68.5396C131.834 68.5029 131.858 68.4534 131.859 68.4014C131.858 68.3536 131.836 68.3081 131.799 68.2732C131.761 68.2384 131.711 68.2166 131.656 68.212L131.635 68.2045ZM135.052 68.2045C135.023 68.2045 134.994 68.2096 134.967 68.2195C134.94 68.2295 134.915 68.244 134.895 68.2624C134.874 68.2807 134.858 68.3025 134.847 68.3263C134.836 68.3502 134.831 68.3758 134.832 68.4014C134.832 68.4406 134.845 68.4788 134.87 68.5112C134.895 68.5437 134.93 68.569 134.971 68.5837C135.013 68.5985 135.058 68.6022 135.102 68.5943C135.145 68.5864 135.185 68.5672 135.217 68.5393C135.248 68.5114 135.269 68.4759 135.277 68.4375C135.285 68.399 135.28 68.3593 135.262 68.3234C135.245 68.2875 135.215 68.257 135.178 68.2358C135.14 68.2146 135.096 68.2037 135.052 68.2045ZM138.473 68.2045C138.414 68.2045 138.357 68.2252 138.314 68.2622C138.272 68.2991 138.249 68.3492 138.249 68.4014C138.248 68.4349 138.258 68.4679 138.279 68.4961L138.685 68.3522C138.674 68.3145 138.649 68.2808 138.615 68.2558C138.581 68.2307 138.539 68.2154 138.495 68.212L138.473 68.2045ZM116.251 65.9734C116.218 65.965 116.183 65.9636 116.148 65.9692C116.114 65.9747 116.082 65.9872 116.054 66.0056C116.026 66.0239 116.004 66.0477 115.988 66.075C115.973 66.1022 115.965 66.1323 115.965 66.1628C115.965 66.1933 115.973 66.2234 115.988 66.2506C116.004 66.2779 116.026 66.3017 116.054 66.32C116.082 66.3384 116.114 66.3509 116.148 66.3564C116.183 66.362 116.218 66.3606 116.251 66.3522C116.285 66.3606 116.32 66.362 116.354 66.3564C116.388 66.3509 116.42 66.3384 116.448 66.32C116.476 66.3017 116.499 66.2779 116.514 66.2506C116.53 66.2234 116.538 66.1933 116.538 66.1628C116.538 66.1323 116.53 66.1022 116.514 66.075C116.499 66.0477 116.476 66.0239 116.448 66.0056C116.42 65.9872 116.388 65.9747 116.354 65.9692C116.32 65.9636 116.285 65.965 116.251 65.9734ZM119.668 65.9734C119.624 65.9734 119.58 65.9851 119.543 66.0069C119.506 66.0287 119.477 66.0597 119.46 66.0959C119.444 66.1321 119.439 66.1719 119.448 66.2102C119.457 66.2485 119.479 66.2836 119.511 66.311C119.543 66.3384 119.583 66.3568 119.627 66.364C119.671 66.3712 119.716 66.3667 119.757 66.3512C119.798 66.3357 119.833 66.3099 119.857 66.277C119.881 66.2441 119.894 66.2057 119.893 66.1666C119.891 66.1192 119.869 66.0741 119.832 66.0399C119.794 66.0056 119.744 65.9847 119.69 65.981L119.668 65.9734ZM123.09 65.9734C123.045 65.9727 123.001 65.9837 122.963 66.005C122.926 66.0264 122.896 66.0571 122.879 66.0932C122.861 66.1294 122.856 66.1693 122.865 66.2078C122.874 66.2464 122.895 66.2818 122.927 66.3096C122.958 66.3374 122.999 66.3562 123.043 66.3637C123.087 66.3712 123.132 66.367 123.173 66.3516C123.215 66.3362 123.25 66.3104 123.274 66.2774C123.298 66.2445 123.311 66.2059 123.31 66.1666C123.309 66.1209 123.289 66.0773 123.254 66.0433C123.219 66.0093 123.172 65.9872 123.12 65.981L123.09 65.9734ZM126.507 65.9734C126.473 65.965 126.438 65.9636 126.404 65.9692C126.37 65.9747 126.338 65.9872 126.31 66.0056C126.282 66.0239 126.26 66.0477 126.244 66.075C126.229 66.1022 126.221 66.1323 126.221 66.1628C126.221 66.1933 126.229 66.2234 126.244 66.2506C126.26 66.2779 126.282 66.3017 126.31 66.32C126.338 66.3384 126.37 66.3509 126.404 66.3564C126.438 66.362 126.473 66.3606 126.507 66.3522C126.54 66.3606 126.576 66.362 126.61 66.3564C126.644 66.3509 126.676 66.3384 126.704 66.32C126.732 66.3017 126.754 66.2779 126.77 66.2506C126.785 66.2234 126.793 66.1933 126.793 66.1628C126.793 66.1323 126.785 66.1022 126.77 66.075C126.754 66.0477 126.732 66.0239 126.704 66.0056C126.676 65.9872 126.644 65.9747 126.61 65.9692C126.576 65.9636 126.54 65.965 126.507 65.9734ZM129.924 65.9734C129.879 65.9734 129.836 65.9851 129.799 66.0069C129.762 66.0287 129.733 66.0597 129.716 66.0959C129.699 66.1321 129.695 66.1719 129.704 66.2102C129.713 66.2485 129.735 66.2836 129.767 66.311C129.799 66.3384 129.839 66.3568 129.883 66.364C129.927 66.3712 129.972 66.3667 130.013 66.3512C130.054 66.3357 130.089 66.3099 130.113 66.277C130.137 66.2441 130.15 66.2057 130.149 66.1666C130.147 66.1192 130.125 66.0741 130.087 66.0399C130.05 66.0056 130 65.9847 129.946 65.981L129.924 65.9734ZM133.345 65.9734C133.301 65.9727 133.257 65.9837 133.219 66.005C133.181 66.0264 133.152 66.0571 133.134 66.0932C133.117 66.1294 133.112 66.1693 133.121 66.2078C133.129 66.2464 133.151 66.2818 133.182 66.3096C133.214 66.3374 133.254 66.3562 133.298 66.3637C133.342 66.3712 133.388 66.367 133.429 66.3516C133.47 66.3362 133.505 66.3104 133.53 66.2774C133.554 66.2445 133.567 66.2059 133.566 66.1666C133.564 66.1198 133.543 66.0752 133.506 66.041C133.47 66.0069 133.42 65.9855 133.367 65.981L133.345 65.9734ZM136.763 65.9734C136.729 65.965 136.694 65.9636 136.66 65.9692C136.626 65.9747 136.593 65.9872 136.566 66.0056C136.538 66.0239 136.515 66.0477 136.5 66.075C136.484 66.1022 136.476 66.1323 136.476 66.1628C136.476 66.1933 136.484 66.2234 136.5 66.2506C136.515 66.2779 136.538 66.3017 136.566 66.32C136.593 66.3384 136.626 66.3509 136.66 66.3564C136.694 66.362 136.729 66.3606 136.763 66.3522C136.796 66.3606 136.831 66.362 136.865 66.3564C136.9 66.3509 136.932 66.3384 136.96 66.32C136.987 66.3017 137.01 66.2779 137.025 66.2506C137.041 66.2234 137.049 66.1933 137.049 66.1628C137.049 66.1323 137.041 66.1022 137.025 66.075C137.01 66.0477 136.987 66.0239 136.96 66.0056C136.932 65.9872 136.9 65.9747 136.865 65.9692C136.831 65.9636 136.796 65.965 136.763 65.9734ZM140.18 65.9734C140.135 65.9734 140.091 65.9851 140.054 66.0069C140.017 66.0287 139.989 66.0597 139.972 66.0959C139.955 66.1321 139.951 66.1719 139.96 66.2102C139.969 66.2485 139.991 66.2836 140.022 66.311C140.054 66.3384 140.095 66.3568 140.139 66.364C140.182 66.3712 140.228 66.3667 140.269 66.3512C140.31 66.3357 140.344 66.3099 140.369 66.277C140.393 66.2441 140.405 66.2057 140.404 66.1666C140.402 66.1192 140.381 66.0741 140.343 66.0399C140.306 66.0056 140.255 65.9847 140.201 65.981L140.18 65.9734Z" fill="white"/>
<path d="M141.19 67.2613C138.08 68.8787 134.434 69.7386 130.883 70.1136C129.233 62.7197 126.425 48.1098 125.764 44.6591C126.632 44.88 127.452 45.2256 128.192 45.6818C130 46.8325 131.539 48.2781 132.723 49.9394C136.611 55.1553 141.19 67.2613 141.19 67.2613Z" fill="#263238"/>
<path d="M131.185 47.5909C136.858 53.2727 144.698 63.0341 141.718 65.4773C136.814 69.4886 121.846 72.4848 118.411 73.053C116.925 73.2954 113.301 64.8826 114.221 63.7197C115.141 62.5568 131.069 60.8712 131.112 60.0038C131.142 59.5151 128.922 55.4053 126.982 50.2879C124.74 44.3788 129.561 45.9583 131.185 47.5909Z" fill="#EB9481"/>
<path d="M116.787 62.856C116.787 62.856 112.199 63.0833 109.205 63.356C107.533 63.5075 104.699 63.9924 103.529 64.5947C101.801 65.4962 95.1306 70.2499 96.4093 71.6893C97.5671 72.9924 102.691 68.2803 102.691 68.2803C102.691 68.2803 97.04 72.6439 98.768 73.9848C100.496 75.3257 105.468 69.3181 105.468 69.3181C105.468 69.3181 99.7789 73.9128 101.805 75.053C103.339 75.9128 108.199 70.6931 108.199 70.6931C108.199 70.6931 103.339 74.6742 104.872 75.6174C106.566 76.659 111.395 72.0909 111.395 72.0909C115.75 73.9166 118.679 73.2272 120.692 72.5113C121.18 72.3484 116.787 62.856 116.787 62.856Z" fill="#EB9481"/>
<path d="M104.544 66.6666C103.861 67.1553 103.161 67.6515 102.531 68.1818C101.9 68.7121 101.287 69.2879 100.712 69.8788C99.9482 70.6412 99.2859 71.4774 98.7378 72.3712C99.8437 70.856 102.073 68.8712 102.708 68.3295C103.343 67.7879 103.939 67.2159 104.57 66.6742C104.578 66.6666 104.544 66.6439 104.544 66.6666Z" fill="#263238"/>
<path d="M106.816 68.6212C105.952 69.2841 105.088 69.9091 104.298 70.606C103.507 71.303 102.794 72.0113 102.043 72.75C101.987 72.8068 102.043 72.8144 102.099 72.75C102.881 72.0416 103.667 71.4356 104.462 70.7348C105.257 70.0341 106.017 69.303 106.834 68.6288C106.847 68.6288 106.829 68.6098 106.816 68.6212Z" fill="#263238"/>
<path d="M109.115 70.0037C107.794 70.9885 106.592 72.0903 105.529 73.2916C105.473 73.3522 105.529 73.356 105.607 73.2916C106.773 72.178 107.68 71.2954 109.154 70.0341C109.179 70.0227 109.145 69.981 109.115 70.0037Z" fill="#263238"/>
<path d="M113.681 62.9999C111.586 63.106 109.439 63.2158 107.361 63.4734C105.558 63.6495 103.833 64.2186 102.345 65.1287C100.943 66.0819 99.6415 67.1443 98.4572 68.303C97.7762 68.8882 97.1706 69.5373 96.6515 70.2386C96.362 70.6666 95.9387 71.3408 96.4009 71.7537C96.9625 72.2727 98.8547 71.6287 100.768 69.8977C100.838 69.8371 100.79 69.803 100.717 69.8598C98.0123 72.053 96.8545 71.8825 96.5305 71.5492C96.3231 71.3371 96.4787 70.9355 96.6299 70.6287C96.8782 70.1841 97.1903 69.7691 97.5587 69.3939C98.7753 68.0865 100.142 66.8921 101.637 65.8295C103.239 64.6472 105.191 63.8868 107.266 63.6363C109.391 63.3636 111.586 63.3863 113.694 63.0871C113.737 63.0643 113.724 62.9999 113.681 62.9999Z" fill="#263238"/>
<path d="M137.938 54.4545L128.196 54.9583C127.415 53.002 126.813 50.9944 126.394 48.9545C126.369 48.8333 126.347 48.7121 126.325 48.5984C126.325 48.5606 126.325 48.5265 126.325 48.4924C125.777 45.3484 126.896 44.4772 130.365 46.9166C132.008 48.0879 133.52 49.3944 134.879 50.8181L135.004 50.9469C135.661 51.6287 136.214 52.2613 136.659 52.7954C136.75 52.9053 136.84 53.0113 136.918 53.1136C137.575 53.9242 137.938 54.4545 137.938 54.4545Z" fill="#6E89BE"/>
<path d="M128.459 46.3336C128.46 46.373 128.448 46.4116 128.423 46.4447C128.399 46.4777 128.364 46.5036 128.323 46.519C128.282 46.5344 128.236 46.5386 128.192 46.5311C128.148 46.5236 128.108 46.5047 128.076 46.4769C128.044 46.4491 128.023 46.4136 128.014 46.375C128.006 46.3363 128.011 46.2964 128.028 46.2602C128.046 46.2239 128.075 46.1932 128.113 46.1718C128.15 46.1504 128.194 46.1394 128.239 46.1401C128.298 46.1401 128.354 46.1605 128.395 46.1968C128.436 46.2331 128.459 46.2823 128.459 46.3336Z" fill="white"/>
<path d="M128.46 50.7579C128.46 50.7971 128.446 50.8354 128.421 50.8679C128.396 50.9004 128.361 50.9257 128.32 50.9405C128.279 50.9553 128.233 50.959 128.189 50.9511C128.146 50.9432 128.106 50.924 128.075 50.896C128.043 50.868 128.022 50.8325 128.014 50.794C128.006 50.7555 128.011 50.7157 128.029 50.6797C128.046 50.6437 128.076 50.6132 128.113 50.592C128.151 50.5708 128.195 50.5598 128.239 50.5606C128.269 50.5606 128.298 50.5657 128.325 50.5757C128.352 50.5856 128.376 50.6002 128.397 50.6186C128.417 50.637 128.433 50.6588 128.444 50.6827C128.455 50.7066 128.46 50.7322 128.46 50.7579Z" fill="white"/>
<path d="M131.656 50.9476C131.78 50.9476 131.881 50.8593 131.881 50.7503C131.881 50.6413 131.78 50.553 131.656 50.553C131.532 50.553 131.432 50.6413 131.432 50.7503C131.432 50.8593 131.532 50.9476 131.656 50.9476Z" fill="white"/>
<path d="M126.528 48.7128C126.652 48.7128 126.753 48.6244 126.753 48.5154C126.753 48.4065 126.652 48.3181 126.528 48.3181C126.404 48.3181 126.304 48.4065 126.304 48.5154C126.304 48.6244 126.404 48.7128 126.528 48.7128Z" fill="white"/>
<path d="M129.946 48.7128C130.07 48.7128 130.17 48.6244 130.17 48.5154C130.17 48.4065 130.07 48.3181 129.946 48.3181C129.822 48.3181 129.721 48.4065 129.721 48.5154C129.721 48.6244 129.822 48.7128 129.946 48.7128Z" fill="white"/>
<path d="M129.946 53.1294C130.07 53.1294 130.17 53.0411 130.17 52.9321C130.17 52.8231 130.07 52.7348 129.946 52.7348C129.822 52.7348 129.721 52.8231 129.721 52.9321C129.721 53.0411 129.822 53.1294 129.946 53.1294Z" fill="white"/>
<path d="M133.367 53.1294C133.491 53.1294 133.592 53.0411 133.592 52.9321C133.592 52.8231 133.491 52.7348 133.367 52.7348C133.243 52.7348 133.143 52.8231 133.143 52.9321C133.143 53.0411 133.243 53.1294 133.367 53.1294Z" fill="white"/>
<path d="M136.901 53.099C136.866 53.1188 136.826 53.1293 136.784 53.1294C136.725 53.1294 136.668 53.1086 136.625 53.0716C136.583 53.0346 136.56 52.9844 136.56 52.9321C136.559 52.9029 136.566 52.8741 136.58 52.8478C136.595 52.8214 136.616 52.7983 136.642 52.7803C136.732 52.8903 136.823 52.9966 136.901 53.099Z" fill="white"/>
<path d="M122.498 31.0606C121.958 30.8825 121.439 28.2272 123.435 26.9621C125.431 25.6969 127.975 27.1401 126.891 29.3182C126.23 30.6818 123.647 31.4394 122.498 31.0606Z" fill="#263238"/>
<path d="M128.192 45.6818L128.162 45.7121C126.572 47.2045 123.371 49.9129 121.228 49.678C120.594 49.5872 119.988 49.38 119.452 49.07C118.915 48.7599 118.459 48.354 118.113 47.8788C118.747 47.1771 119.437 46.5163 120.178 45.9015C122.688 43.6174 125.57 44.1174 128.192 45.6818Z" fill="#EB9481"/>
<path d="M125.116 45.2689C125.081 45.6742 123.388 48.5113 121.344 48.7083C120.675 48.7689 120.118 45.5795 120.118 45.5795L120.014 45.3522L118.584 42.1666L122.563 39.0719L123.142 38.6553C123.142 38.6553 123.47 39.5492 123.863 40.6666C123.863 40.7197 123.898 40.7689 123.919 40.8257C123.941 40.8825 123.967 40.9469 123.984 41.0075C124.044 41.1704 124.105 41.3409 124.165 41.5113C124.226 41.6818 124.252 41.7689 124.295 41.8901C124.338 42.0113 124.377 42.1591 124.425 42.2992C124.731 43.2744 124.961 44.2666 125.116 45.2689Z" fill="#EB9481"/>
<path d="M123.863 40.6666C123.648 41.6459 123.192 42.5722 122.527 43.3814C121.863 44.1906 121.005 44.8631 120.014 45.3522L118.584 42.1666L122.563 39.0719L123.142 38.6553C123.142 38.6553 123.47 39.5492 123.863 40.6666Z" fill="#263238"/>
<path d="M112.519 37.5947C112.951 43.5909 117.107 44.0341 118.567 43.9507C119.906 43.875 124.451 43.4621 124.718 37.4621C124.986 31.4621 121.669 29.7424 118.597 29.7765C115.525 29.8106 112.078 31.6023 112.519 37.5947Z" fill="#EB9481"/>
<path d="M113.715 36.6136C113.871 36.5758 114.009 36.5227 114.147 36.4735C114.315 36.4439 114.467 36.3667 114.579 36.2538C114.606 36.2131 114.617 36.1658 114.61 36.1192C114.603 36.0725 114.578 36.0293 114.54 35.9962C114.452 35.9414 114.349 35.9077 114.242 35.8984C114.134 35.8891 114.026 35.9045 113.927 35.9432C113.715 35.9983 113.534 36.1196 113.417 36.2841C113.394 36.3236 113.384 36.368 113.389 36.4121C113.394 36.4563 113.414 36.4982 113.445 36.533C113.477 36.5677 113.519 36.5938 113.567 36.6081C113.615 36.6224 113.666 36.6243 113.715 36.6136Z" fill="#263238"/>
<path d="M118.433 36.1818C118.274 36.1792 118.115 36.1691 117.958 36.1515C117.791 36.1617 117.625 36.1231 117.487 36.0416C117.447 36.0084 117.422 35.9647 117.414 35.9174C117.406 35.8701 117.417 35.8219 117.443 35.7803C117.512 35.7069 117.601 35.6507 117.702 35.6175C117.802 35.5842 117.912 35.575 118.018 35.5909C118.238 35.5906 118.449 35.6637 118.61 35.7954C118.645 35.827 118.669 35.8668 118.679 35.9102C118.689 35.9535 118.684 35.9984 118.665 36.0394C118.647 36.0804 118.615 36.1157 118.573 36.141C118.532 36.1663 118.483 36.1804 118.433 36.1818Z" fill="#263238"/>
<path d="M117.759 37.7916C117.759 37.7916 117.798 37.7916 117.798 37.8219C117.836 38.231 117.957 38.6931 118.394 38.7878V38.8106C117.871 38.7954 117.72 38.1818 117.759 37.7916Z" fill="#263238"/>
<path d="M118.118 37.3257C118.856 37.2045 119.085 38.5075 118.398 38.6212C117.711 38.7348 117.504 37.428 118.118 37.3257Z" fill="#263238"/>
<path d="M118.424 37.356C118.567 37.4129 118.713 37.5265 118.856 37.5189C118.999 37.5113 119.154 37.356 119.249 37.2083C119.249 37.2083 119.275 37.2083 119.279 37.2083C119.327 37.4583 119.279 37.731 118.96 37.8068C118.64 37.8826 118.45 37.6856 118.333 37.428C118.329 37.4091 118.368 37.3333 118.424 37.356Z" fill="#263238"/>
<path d="M114.838 37.9886C114.838 37.9886 114.804 38.0151 114.808 38.0303C114.895 38.4318 114.92 38.9053 114.527 39.0984C114.527 39.0984 114.527 39.1249 114.527 39.1212C115.033 38.9848 114.994 38.3598 114.838 37.9886Z" fill="#263238"/>
<path d="M114.35 37.6249C113.599 37.678 113.78 38.9924 114.471 38.9393C115.162 38.8863 114.977 37.5795 114.35 37.6249Z" fill="#263238"/>
<path d="M114.048 37.7462C113.94 37.8257 113.84 37.9659 113.702 37.9886C113.564 38.0113 113.4 37.8863 113.27 37.7613C113.296 38.0113 113.426 38.2651 113.702 38.2841C113.978 38.303 114.112 38.0681 114.134 37.8106C114.143 37.7765 114.091 37.7121 114.048 37.7462Z" fill="#263238"/>
<path d="M116.156 39.3674C115.906 39.4199 115.665 39.5001 115.439 39.606C115.396 38.3219 115.586 37.0416 115.521 35.7613C115.521 35.7513 115.516 35.7416 115.508 35.7345C115.5 35.7274 115.489 35.7234 115.478 35.7234C115.466 35.7234 115.455 35.7274 115.447 35.7345C115.439 35.7416 115.434 35.7513 115.434 35.7613C115.179 37.128 115.082 38.5139 115.145 39.8977C115.145 40.0378 116.169 39.4356 116.169 39.4356C116.169 39.4356 116.165 39.3674 116.156 39.3674Z" fill="#263238"/>
<path d="M124.295 37.9735C122.597 38.1288 121.379 33.6363 121.236 33.0833C121.306 33.4356 121.668 35.303 121.513 35.3977C121.331 35.4166 121.147 35.409 120.969 35.375C120.932 35.1506 120.875 34.929 120.8 34.7121C120.77 34.6098 120.8 34.9432 120.8 35.356L120.476 35.3182C120.418 34.8367 120.287 34.3641 120.087 33.9129C120.01 33.7424 120.087 34.5454 120.001 35.2651C118.501 35.0723 116.981 35.0253 115.469 35.125C115.037 35.1629 114.683 35.2121 114.363 35.2651C114.273 34.7121 114.251 34.1288 114.225 34.2462C114.152 34.596 114.119 34.9513 114.126 35.3068L113.651 35.3977C113.482 34.6401 113.707 33.3219 113.594 33.5303C113.265 34.1703 113.078 34.8593 113.041 35.5606C112.45 35.7386 112.298 35.8636 112.259 35.7273C112.197 34.1654 112.77 32.635 113.875 31.4091C115.707 29.4053 119.85 28.4507 122.653 30.8447C122.653 30.8447 124.787 31.7235 125.384 33.4962C125.98 35.2689 125.28 37.8788 124.295 37.9735Z" fill="#263238"/>
<path d="M123.677 37.981C123.677 37.981 124.835 35.9318 125.872 36.2651C126.909 36.5985 126.269 39.4356 125.207 39.9545C125.075 40.0287 124.928 40.0788 124.774 40.102C124.62 40.1252 124.463 40.1209 124.311 40.0894C124.159 40.058 124.015 40 123.89 39.9188C123.764 39.8377 123.658 39.7352 123.578 39.6174L123.677 37.981Z" fill="#EB9481"/>
<path d="M125.665 37.0757V37.0985C124.922 37.4773 124.619 38.1818 124.442 38.8863C124.476 38.8109 124.528 38.7429 124.595 38.6869C124.662 38.6309 124.742 38.5883 124.829 38.562C124.917 38.5357 125.01 38.5264 125.102 38.5346C125.194 38.5429 125.283 38.5686 125.362 38.6098C125.367 38.6116 125.371 38.6145 125.373 38.6182C125.376 38.6219 125.378 38.6262 125.378 38.6307C125.378 38.6351 125.376 38.6394 125.373 38.6431C125.371 38.6468 125.367 38.6497 125.362 38.6515C125.217 38.6299 125.067 38.649 124.934 38.7061C124.802 38.7632 124.693 38.8554 124.623 38.9697C124.506 39.1593 124.413 39.3601 124.347 39.5682C124.321 39.6363 124.187 39.6174 124.2 39.5454V39.5265C124.032 38.6363 124.602 37.3068 125.665 37.0757Z" fill="#263238"/>
<path d="M116.135 40.3977C116.343 40.621 116.612 40.7943 116.917 40.9015C117.087 40.9488 117.269 40.9488 117.439 40.9015C117.815 40.8068 117.815 40.5227 117.737 40.2462C117.695 40.1144 117.636 39.9873 117.56 39.8674C117.161 40.1721 116.662 40.3578 116.135 40.3977Z" fill="#263238"/>
<path d="M116.917 40.9091C117.087 40.9564 117.269 40.9564 117.439 40.9091C117.815 40.8144 117.815 40.5303 117.737 40.2538C117.536 40.2653 117.345 40.3364 117.196 40.4555C117.047 40.5745 116.948 40.7345 116.917 40.9091Z" fill="#FF9CBD"/>
<path d="M111.564 74.4393H77.6606V75.7727H111.564V74.4393Z" fill="#455A64"/>
<path d="M94.7246 74.4393H77.6606V75.7727H94.7246V74.4393Z" fill="#263238"/>
<path d="M92.8887 75.7727H59.8493L55.5293 56.0947H88.5687L92.8887 75.7727Z" fill="#455A64"/>
<path d="M76.2179 65.9318C76.2469 66.1563 76.2208 66.3836 76.1415 66.5985C76.0622 66.8135 75.9315 67.0111 75.7581 67.1782C75.5847 67.3453 75.3727 67.478 75.1361 67.5674C74.8995 67.6569 74.6439 67.701 74.3863 67.6969C73.8379 67.6891 73.3119 67.5051 72.9082 67.1797C72.5044 66.8543 72.251 66.4102 72.196 65.9318C72.1684 65.7074 72.1956 65.4804 72.2757 65.2659C72.3558 65.0514 72.487 64.8544 72.6607 64.6878C72.8343 64.5212 73.0464 64.3889 73.2828 64.2997C73.5193 64.2105 73.7747 64.1664 74.032 64.1704C74.5792 64.1782 75.1041 64.3619 75.507 64.6866C75.91 65.0112 76.163 65.4543 76.2179 65.9318Z" fill="#A6A6A6"/>
<path d="M134.836 72.6667C134.559 73.255 134.058 73.7414 133.419 74.0437C132.78 74.346 132.042 74.4456 131.328 74.3257C131.031 74.2757 130.742 74.1969 130.464 74.0909L130.978 73.0454C131.129 73.1051 131.285 73.152 131.445 73.1856C131.889 73.2824 132.359 73.2353 132.767 73.053C133.175 72.8707 133.494 72.5654 133.665 72.1932C134.231 71.1174 134.041 68.9053 133.082 68.2008C133.017 68.1477 132.771 68.0871 131.903 68.4053C131.743 68.4659 131.562 68.5341 131.359 68.6212C131.203 68.6984 131.038 68.7594 130.866 68.803L130.724 68.25L130.542 67.7045C130.598 67.6856 130.685 67.6477 130.797 67.5985C131.192 67.4224 131.602 67.2742 132.024 67.1553C132.676 66.9848 133.389 66.9394 133.916 67.3295C135.467 68.4811 135.545 71.3182 134.836 72.6667Z" fill="#FEC7A0"/>
<path d="M130.97 73.0454C131.12 73.105 131.276 73.152 131.436 73.1856L131.328 74.3219C131.031 74.2719 130.742 74.1931 130.464 74.0871L130.97 73.0454Z" fill="#263238"/>
<path d="M132.015 67.1553L131.894 68.4053C131.734 68.4659 131.553 68.5341 131.35 68.6213C131.194 68.6984 131.029 68.7595 130.857 68.8031L130.715 68.25L130.533 67.7046C130.589 67.6856 130.676 67.6478 130.788 67.5985C131.183 67.4224 131.593 67.2742 132.015 67.1553Z" fill="#263238"/>
<path d="M131.32 64.75L131.276 65.7614L131.251 66.3788L131.238 66.75L130.862 75.6402H122.114L121.738 66.75L121.725 66.3788L121.699 65.7614L121.656 64.75H131.32Z" fill="#FEC7A0"/>
<path d="M131.32 64.75L131.276 65.7614H121.699L121.656 64.75H131.32Z" fill="#455A64"/>
<path d="M131.251 66.3788L131.238 66.7506H121.738L121.725 66.3788H131.251Z" fill="#455A64"/>
<path d="M71.0294 78.1591L70.9214 85.625L69.7334 167.511H68.3985L67.2105 85.625L67.1025 78.1591H71.0294Z" fill="#455A64"/>
<path d="M67.1025 78.1591H71.0294L70.9214 85.625H67.2105L67.1025 78.1591Z" fill="#263238"/>
<path d="M165.72 78.1591L165.612 85.625L164.424 167.511H163.089L161.901 85.625L161.793 78.1591H165.72Z" fill="#455A64"/>
<path d="M165.72 78.1591L165.612 85.625H161.901L161.793 78.1591H165.72Z" fill="#263238"/>
<path d="M57.4088 78.1591L57.3008 85.625L56.1128 167.511H54.7779L53.5899 85.625L53.4819 78.1591H57.4088Z" fill="#37474F"/>
<path d="M53.4819 78.1591H57.4088L57.3008 85.625H53.5899L53.4819 78.1591Z" fill="#263238"/>
<path d="M152.094 78.1591L151.986 85.625L150.798 167.511H149.463L148.275 85.625L148.167 78.1591H152.094Z" fill="#37474F"/>
<path d="M148.167 78.1591H152.094L151.986 85.625H148.275L148.167 78.1591Z" fill="#263238"/>
<path d="M149.152 141.602H55.4473V143.117H149.152V141.602Z" fill="#37474F"/>
<path d="M168.052 75.6401H155.913V79.9621H168.052V75.6401Z" fill="#455A64"/>
<path d="M155.913 75.6401H49.1963V79.9621H155.913V75.6401Z" fill="#37474F"/>
<path d="M71.0464 120.591C64.0955 129.371 56.8768 139.53 55.395 150.364C55.395 150.526 55.6801 150.572 55.7147 150.409C56.4511 147.448 57.4255 144.537 58.6307 141.697C63.3525 140.428 67.9921 139.367 70.3552 135.163C72.7614 130.841 72.256 125.314 71.6166 120.674C71.5734 120.424 71.189 120.424 71.0464 120.591Z" fill="#FEC7A0"/>
<path d="M58.4753 141.496C61.6765 135.076 65.7977 128.617 71.0638 123.314C71.0984 123.28 71.1545 123.314 71.1243 123.367C67.6683 127.136 65.0763 131.235 62.5275 135.405C64.9078 133.254 67.5171 131.326 69.7721 129.049C69.8153 129.008 69.8845 129.049 69.8456 129.114C67.6078 131.5 65.167 134.095 62.2424 135.867C61.4648 137.148 60.68 138.429 59.888 139.712C60.0824 139.617 60.2854 139.53 60.4885 139.439C60.523 139.439 60.5533 139.47 60.5187 139.485C60.2941 139.587 60.0867 139.693 59.8448 139.78C59.4689 140.386 59.0931 140.996 58.7086 141.602C58.6222 141.746 58.4062 141.632 58.4753 141.496Z" fill="#263238"/>
<path d="M60.8773 139.246C62.8165 138.28 64.6655 137.18 66.4069 135.958C66.4545 135.924 66.5236 135.985 66.4761 136.019C64.7891 137.316 62.9381 138.44 60.9594 139.367C60.8687 139.394 60.7866 139.292 60.8773 139.246Z" fill="#263238"/>
<path d="M54.5139 151.375C54.5139 151.508 54.7861 151.496 54.7774 151.375C54.6997 147.822 54.5485 144.258 54.488 140.689C55.4643 138.83 57.6589 137.758 59.1579 136.246C60.2363 135.144 61.1656 133.937 61.927 132.648C63.6887 129.57 64.7176 126.21 64.951 122.773C65.2534 118.966 63.1971 106.485 61.3827 106.958C60.4453 107.208 57.5854 113.492 56.8424 115.564C55.6379 118.981 54.7892 122.487 54.3066 126.038C53.1056 134.413 53.5117 142.989 54.5139 151.375Z" fill="#FEC7A0"/>
<path d="M53.9998 136.064C54.0733 131.568 55.0798 127.004 56.0129 122.621C57.0238 117.898 58.2377 113.443 60.8557 109.189C60.9032 109.11 61.0371 109.189 60.9939 109.258C59.2709 112.559 57.9671 116.017 57.1059 119.568C57.283 119.311 57.499 119.068 57.6848 118.811C57.7539 118.716 57.9353 118.811 57.8662 118.898C57.6327 119.283 57.3564 119.647 57.0411 119.985C57.0283 119.988 57.015 119.988 57.0022 119.985C56.1685 123.364 55.5982 126.803 55.1317 130.25C55.1705 130.204 55.2137 130.155 55.2569 130.114C55.3001 130.072 55.3347 130.114 55.3174 130.151C55.2483 130.269 55.1705 130.383 55.0971 130.496C54.8595 132.242 54.6651 133.981 54.4275 135.708C57.8835 132.973 60.7779 129.784 62.3504 125.901C62.3504 125.883 62.3893 125.901 62.3849 125.901C60.8513 129.928 58.3414 133.534 54.3843 136.053C54.3238 136.519 54.2677 136.985 54.2072 137.447C54.2072 137.542 54.0171 137.523 54.0171 137.447C54.0171 137.038 54.0171 136.629 54.0171 136.216C54.0026 136.208 53.9903 136.198 53.9812 136.185C53.9722 136.173 53.9666 136.159 53.9649 136.144C53.9632 136.129 53.9655 136.114 53.9716 136.1C53.9776 136.087 53.9873 136.074 53.9998 136.064Z" fill="#263238"/>
<path d="M55.4255 129.515C58.0176 125.92 60.4108 122.428 62.2555 118.481C62.2555 118.436 62.3591 118.481 62.3419 118.511C60.8083 122.428 58.6094 126.409 55.5638 129.602C55.5033 129.667 55.3737 129.587 55.4255 129.515Z" fill="#263238"/>
<path d="M58.6225 117.701C59.6809 115.939 60.8041 114.224 61.7934 112.428C61.8236 112.379 61.9014 112.428 61.8798 112.47C61.0795 114.332 60.045 116.111 58.7953 117.773C58.7811 117.787 58.7619 117.797 58.7407 117.801C58.7195 117.805 58.6974 117.802 58.6778 117.794C58.6583 117.786 58.6423 117.772 58.6323 117.756C58.6223 117.739 58.6189 117.72 58.6225 117.701Z" fill="#263238"/>
<path d="M58.2078 118.466C58.2337 118.466 58.2337 118.493 58.2078 118.497C58.1819 118.501 58.1862 118.466 58.2078 118.466Z" fill="#263238"/>
<path d="M52.3798 140.674C52.4029 143.029 52.1627 145.38 51.6627 147.693C51.7145 147.943 51.762 148.193 51.8139 148.451C52.5742 145.883 52.9932 140.811 52.9889 140.379C52.987 136.838 52.5701 133.307 51.7448 129.841C50.276 123.348 47.3297 117.155 41.9816 112.417C41.9376 112.386 41.8861 112.364 41.831 112.353C41.7759 112.342 41.7187 112.342 41.6638 112.353C41.6088 112.365 41.5575 112.387 41.5137 112.418C41.47 112.449 41.435 112.489 41.4113 112.534C39.4716 117.254 40.3875 122.807 42.3228 127.417C43.3749 129.906 44.8345 132.247 46.6558 134.367C48.522 136.515 50.8548 138.314 52.3798 140.674Z" fill="#FEC7A0"/>
<path d="M42.6685 114.564C47.8136 121.436 51.5115 129.648 52.2027 137.901C52.2027 138.049 51.9349 138.095 51.9047 137.943C51.7621 137.205 51.6109 136.473 51.4511 135.742C49.3602 134.087 47.2131 132.333 45.6839 130.239C45.6579 130.205 45.7184 130.159 45.753 130.189C47.5803 131.92 49.2911 133.693 51.3431 135.223C50.9341 133.405 50.4531 131.617 49.9002 129.86L49.4984 129.481C49.412 129.394 49.5503 129.261 49.641 129.348L49.7619 129.458C48.9862 127.042 48.0471 124.667 46.9496 122.348C45.6536 121.072 44.2151 119.977 43.2517 118.42C43.2491 118.413 43.2494 118.405 43.2525 118.398C43.2556 118.391 43.2613 118.385 43.2688 118.381C43.2763 118.377 43.2851 118.375 43.2937 118.376C43.3023 118.377 43.3104 118.381 43.3165 118.386C44.0768 119.269 44.8199 120.159 45.6752 120.973C46.0208 121.299 46.3923 121.602 46.7466 121.92C45.5314 119.412 44.1047 116.986 42.4784 114.663C42.4695 114.641 42.4694 114.618 42.4783 114.596C42.4871 114.574 42.5043 114.556 42.5269 114.544C42.5494 114.533 42.5759 114.528 42.6018 114.532C42.6276 114.536 42.6512 114.547 42.6685 114.564Z" fill="#263238"/>
<path d="M43.9472 123.17C45.5975 125.008 47.468 126.75 49.0103 128.652C49.0535 128.705 48.9627 128.765 48.9066 128.723C46.9583 127.208 45.2821 125.117 43.8392 123.227C43.796 123.17 43.8954 123.106 43.9472 123.17Z" fill="#263238"/>
<path d="M49.2481 129.079L49.3216 129.136C49.3691 129.178 49.2956 129.242 49.2481 129.205L49.179 129.144C49.1272 129.106 49.1963 129.038 49.2481 129.079Z" fill="#263238"/>
<path d="M34.4519 126.136C34.966 129.724 37.2685 133.97 39.9944 136.678C41.1995 137.855 42.6707 138.799 44.3144 139.451C46.1634 140.208 48.1031 141.057 50.0082 141.655C50.97 143.635 51.7051 145.693 52.2028 147.799C52.2546 147.617 52.3108 147.421 52.3669 147.246C50.8549 138.155 43.8695 130.542 35.0869 125.761C35.0175 125.728 34.9392 125.713 34.8604 125.716C34.7816 125.719 34.7053 125.742 34.6399 125.78C34.5745 125.819 34.5223 125.873 34.4892 125.935C34.4561 125.998 34.4431 126.068 34.4519 126.136Z" fill="#FEC7A0"/>
<path d="M37.5147 128.742C37.4542 128.697 37.5147 128.598 37.6011 128.64C42.258 131.485 46.5089 135.701 48.954 140.208C49.0232 140.329 48.8288 140.447 48.7424 140.322C48.3104 139.72 47.8784 139.132 47.4464 138.553C45.4721 138.276 43.5584 137.114 42.0766 136C42.0377 135.97 42.0766 135.917 42.1328 135.947C42.9041 136.527 43.7561 137.02 44.6686 137.413C45.4949 137.718 46.3384 137.986 47.1958 138.216C46.4312 137.223 45.6406 136.273 44.8198 135.348C42.6857 134.773 40.6337 133.686 38.8193 132.591C38.7632 132.557 38.8193 132.473 38.8755 132.504C40.6817 133.399 42.5404 134.211 44.444 134.936C43.199 133.579 41.8617 132.29 40.4393 131.076C39.7611 130.784 39.0742 130.489 38.4176 130.174C38.4084 130.168 38.4019 130.159 38.399 130.149C38.396 130.139 38.3967 130.128 38.401 130.118C38.4053 130.109 38.413 130.1 38.423 130.095C38.4329 130.089 38.4446 130.086 38.4564 130.087C38.9998 130.238 39.5205 130.445 40.0073 130.704C39.2168 130.042 38.396 129.382 37.5147 128.742Z" fill="#263238"/>
<path d="M37.8043 131.883C37.9225 131.942 38.0352 132.009 38.1413 132.083C38.1715 132.106 38.1413 132.144 38.1024 132.129C37.9784 132.085 37.8597 132.031 37.7482 131.966C37.7383 131.958 37.7318 131.948 37.7297 131.937C37.7276 131.925 37.7302 131.914 37.7368 131.904C37.7435 131.894 37.7539 131.886 37.7662 131.883C37.7785 131.879 37.792 131.879 37.8043 131.883Z" fill="#263238"/>
<path d="M62.8341 142.337L62.4885 149.265L61.5381 168.269H46.2237L45.2733 149.265L44.9277 142.337H62.8341Z" fill="#37474F"/>
<path d="M62.8341 142.337L62.4885 149.265H45.2733L44.9277 142.337H62.8341Z" fill="#263238"/>
<path d="M64.152 140.917H43.6104V145.284H64.152V140.917Z" fill="#37474F"/>
</svg>
