<svg width="12" height="432" viewBox="0 0 12 432" fill="none" xmlns="http://www.w3.org/2000/svg">
<path d="M6 0.669873L1.66987 5L6 9.33013L10.3301 5L6 0.669873ZM5.46967 431.53C5.76256 431.823 6.23744 431.823 6.53033 431.53L11.3033 426.757C11.5962 426.464 11.5962 425.99 11.3033 425.697C11.0104 425.404 10.5355 425.404 10.2426 425.697L6 429.939L1.75736 425.697C1.46447 425.404 0.989593 425.404 0.696699 425.697C0.403806 425.99 0.403806 426.464 0.696699 426.757L5.46967 431.53ZM5.25 6.51064C5.25 6.92485 5.58579 7.26064 6 7.26064C6.41421 7.26064 6.75 6.92485 6.75 6.51064H5.25ZM6.75 12.5532C6.75 12.139 6.41421 11.8032 6 11.8032C5.58579 11.8032 5.25 12.139 5.25 12.5532H6.75ZM5.25 15.5745C5.25 15.9887 5.58579 16.3245 6 16.3245C6.41421 16.3245 6.75 15.9887 6.75 15.5745H5.25ZM6.75 21.617C6.75 21.2028 6.41421 20.867 6 20.867C5.58579 20.867 5.25 21.2028 5.25 21.617H6.75ZM5.25 24.6383C5.25 25.0525 5.58579 25.3883 6 25.3883C6.41421 25.3883 6.75 25.0525 6.75 24.6383H5.25ZM6.75 30.6809C6.75 30.2666 6.41421 29.9309 6 29.9309C5.58579 29.9309 5.25 30.2666 5.25 30.6809H6.75ZM5.25 33.7021C5.25 34.1163 5.58579 34.4521 6 34.4521C6.41421 34.4521 6.75 34.1163 6.75 33.7021H5.25ZM6.75 39.7447C6.75 39.3305 6.41421 38.9947 6 38.9947C5.58579 38.9947 5.25 39.3305 5.25 39.7447H6.75ZM5.25 42.766C5.25 43.1802 5.58579 43.516 6 43.516C6.41421 43.516 6.75 43.1802 6.75 42.766H5.25ZM6.75 48.8085C6.75 48.3943 6.41421 48.0585 6 48.0585C5.58579 48.0585 5.25 48.3943 5.25 48.8085H6.75ZM5.25 51.8298C5.25 52.244 5.58579 52.5798 6 52.5798C6.41421 52.5798 6.75 52.244 6.75 51.8298H5.25ZM6.75 57.8723C6.75 57.4581 6.41421 57.1223 6 57.1223C5.58579 57.1223 5.25 57.4581 5.25 57.8723H6.75ZM5.25 60.8936C5.25 61.3078 5.58579 61.6436 6 61.6436C6.41421 61.6436 6.75 61.3078 6.75 60.8936H5.25ZM6.75 66.9362C6.75 66.522 6.41421 66.1862 6 66.1862C5.58579 66.1862 5.25 66.522 5.25 66.9362H6.75ZM5.25 69.9575C5.25 70.3717 5.58579 70.7075 6 70.7075C6.41421 70.7075 6.75 70.3717 6.75 69.9575H5.25ZM6.75 76C6.75 75.5858 6.41421 75.25 6 75.25C5.58579 75.25 5.25 75.5858 5.25 76H6.75ZM5.25 79.0213C5.25 79.4355 5.58579 79.7713 6 79.7713C6.41421 79.7713 6.75 79.4355 6.75 79.0213H5.25ZM6.75 85.0638C6.75 84.6496 6.41421 84.3138 6 84.3138C5.58579 84.3138 5.25 84.6496 5.25 85.0638H6.75ZM5.25 88.0851C5.25 88.4993 5.58579 88.8351 6 88.8351C6.41421 88.8351 6.75 88.4993 6.75 88.0851H5.25ZM6.75 94.1277C6.75 93.7135 6.41421 93.3777 6 93.3777C5.58579 93.3777 5.25 93.7135 5.25 94.1277H6.75ZM5.25 97.149C5.25 97.5632 5.58579 97.899 6 97.899C6.41421 97.899 6.75 97.5632 6.75 97.149H5.25ZM6.75 103.192C6.75 102.777 6.41421 102.442 6 102.442C5.58579 102.442 5.25 102.777 5.25 103.192H6.75ZM5.25 106.213C5.25 106.627 5.58579 106.963 6 106.963C6.41421 106.963 6.75 106.627 6.75 106.213H5.25ZM6.75 112.255C6.75 111.841 6.41421 111.505 6 111.505C5.58579 111.505 5.25 111.841 5.25 112.255H6.75ZM5.25 115.277C5.25 115.691 5.58579 116.027 6 116.027C6.41421 116.027 6.75 115.691 6.75 115.277H5.25ZM6.75 121.319C6.75 120.905 6.41421 120.569 6 120.569C5.58579 120.569 5.25 120.905 5.25 121.319H6.75ZM5.25 124.34C5.25 124.755 5.58579 125.09 6 125.09C6.41421 125.09 6.75 124.755 6.75 124.34H5.25ZM6.75 130.383C6.75 129.969 6.41421 129.633 6 129.633C5.58579 129.633 5.25 129.969 5.25 130.383H6.75ZM5.25 133.404C5.25 133.819 5.58579 134.154 6 134.154C6.41421 134.154 6.75 133.819 6.75 133.404H5.25ZM6.75 139.447C6.75 139.033 6.41421 138.697 6 138.697C5.58579 138.697 5.25 139.033 5.25 139.447H6.75ZM5.25 142.468C5.25 142.882 5.58579 143.218 6 143.218C6.41421 143.218 6.75 142.882 6.75 142.468H5.25ZM6.75 148.511C6.75 148.096 6.41421 147.761 6 147.761C5.58579 147.761 5.25 148.096 5.25 148.511H6.75ZM5.25 151.532C5.25 151.946 5.58579 152.282 6 152.282C6.41421 152.282 6.75 151.946 6.75 151.532H5.25ZM6.75 157.575C6.75 157.16 6.41421 156.825 6 156.825C5.58579 156.825 5.25 157.16 5.25 157.575H6.75ZM5.25 160.596C5.25 161.01 5.58579 161.346 6 161.346C6.41421 161.346 6.75 161.01 6.75 160.596H5.25ZM6.75 166.638C6.75 166.224 6.41421 165.888 6 165.888C5.58579 165.888 5.25 166.224 5.25 166.638H6.75ZM5.25 169.66C5.25 170.074 5.58579 170.41 6 170.41C6.41421 170.41 6.75 170.074 6.75 169.66H5.25ZM6.75 175.702C6.75 175.288 6.41421 174.952 6 174.952C5.58579 174.952 5.25 175.288 5.25 175.702H6.75ZM5.25 178.723C5.25 179.138 5.58579 179.473 6 179.473C6.41421 179.473 6.75 179.138 6.75 178.723H5.25ZM6.75 184.766C6.75 184.352 6.41421 184.016 6 184.016C5.58579 184.016 5.25 184.352 5.25 184.766H6.75ZM5.25 187.787C5.25 188.201 5.58579 188.537 6 188.537C6.41421 188.537 6.75 188.201 6.75 187.787H5.25ZM6.75 193.83C6.75 193.416 6.41421 193.08 6 193.08C5.58579 193.08 5.25 193.416 5.25 193.83H6.75ZM5.25 196.851C5.25 197.265 5.58579 197.601 6 197.601C6.41421 197.601 6.75 197.265 6.75 196.851H5.25ZM6.75 202.894C6.75 202.479 6.41421 202.144 6 202.144C5.58579 202.144 5.25 202.479 5.25 202.894H6.75ZM5.25 205.915C5.25 206.329 5.58579 206.665 6 206.665C6.41421 206.665 6.75 206.329 6.75 205.915H5.25ZM6.75 211.957C6.75 211.543 6.41421 211.207 6 211.207C5.58579 211.207 5.25 211.543 5.25 211.957H6.75ZM5.25 214.979C5.25 215.393 5.58579 215.729 6 215.729C6.41421 215.729 6.75 215.393 6.75 214.979H5.25ZM6.75 221.021C6.75 220.607 6.41421 220.271 6 220.271C5.58579 220.271 5.25 220.607 5.25 221.021H6.75ZM5.25 224.043C5.25 224.457 5.58579 224.793 6 224.793C6.41421 224.793 6.75 224.457 6.75 224.043H5.25ZM6.75 230.085C6.75 229.671 6.41421 229.335 6 229.335C5.58579 229.335 5.25 229.671 5.25 230.085H6.75ZM5.25 233.106C5.25 233.521 5.58579 233.856 6 233.856C6.41421 233.856 6.75 233.521 6.75 233.106H5.25ZM6.75 239.149C6.75 238.735 6.41421 238.399 6 238.399C5.58579 238.399 5.25 238.735 5.25 239.149H6.75ZM5.25 242.17C5.25 242.584 5.58579 242.92 6 242.92C6.41421 242.92 6.75 242.584 6.75 242.17H5.25ZM6.75 248.213C6.75 247.799 6.41421 247.463 6 247.463C5.58579 247.463 5.25 247.799 5.25 248.213H6.75ZM5.25 251.234C5.25 251.648 5.58579 251.984 6 251.984C6.41421 251.984 6.75 251.648 6.75 251.234H5.25ZM6.75 257.277C6.75 256.862 6.41421 256.527 6 256.527C5.58579 256.527 5.25 256.862 5.25 257.277H6.75ZM5.25 260.298C5.25 260.712 5.58579 261.048 6 261.048C6.41421 261.048 6.75 260.712 6.75 260.298H5.25ZM6.75 266.34C6.75 265.926 6.41421 265.59 6 265.59C5.58579 265.59 5.25 265.926 5.25 266.34H6.75ZM5.25 269.362C5.25 269.776 5.58579 270.112 6 270.112C6.41421 270.112 6.75 269.776 6.75 269.362H5.25ZM6.75 275.404C6.75 274.99 6.41421 274.654 6 274.654C5.58579 274.654 5.25 274.99 5.25 275.404H6.75ZM5.25 278.426C5.25 278.84 5.58579 279.176 6 279.176C6.41421 279.176 6.75 278.84 6.75 278.426H5.25ZM6.75 284.468C6.75 284.054 6.41421 283.718 6 283.718C5.58579 283.718 5.25 284.054 5.25 284.468H6.75ZM5.25 287.489C5.25 287.904 5.58579 288.239 6 288.239C6.41421 288.239 6.75 287.904 6.75 287.489H5.25ZM6.75 293.532C6.75 293.118 6.41421 292.782 6 292.782C5.58579 292.782 5.25 293.118 5.25 293.532H6.75ZM5.25 296.553C5.25 296.967 5.58579 297.303 6 297.303C6.41421 297.303 6.75 296.967 6.75 296.553H5.25ZM6.75 302.596C6.75 302.181 6.41421 301.846 6 301.846C5.58579 301.846 5.25 302.181 5.25 302.596H6.75ZM5.25 305.617C5.25 306.031 5.58579 306.367 6 306.367C6.41421 306.367 6.75 306.031 6.75 305.617H5.25ZM6.75 311.659C6.75 311.245 6.41421 310.909 6 310.909C5.58579 310.909 5.25 311.245 5.25 311.659H6.75ZM5.25 314.681C5.25 315.095 5.58579 315.431 6 315.431C6.41421 315.431 6.75 315.095 6.75 314.681H5.25ZM6.75 320.723C6.75 320.309 6.41421 319.973 6 319.973C5.58579 319.973 5.25 320.309 5.25 320.723H6.75ZM5.25 323.745C5.25 324.159 5.58579 324.495 6 324.495C6.41421 324.495 6.75 324.159 6.75 323.745H5.25ZM6.75 329.787C6.75 329.373 6.41421 329.037 6 329.037C5.58579 329.037 5.25 329.373 5.25 329.787H6.75ZM5.25 332.808C5.25 333.223 5.58579 333.558 6 333.558C6.41421 333.558 6.75 333.223 6.75 332.808H5.25ZM6.75 338.851C6.75 338.437 6.41421 338.101 6 338.101C5.58579 338.101 5.25 338.437 5.25 338.851H6.75ZM5.25 341.872C5.25 342.286 5.58579 342.622 6 342.622C6.41421 342.622 6.75 342.286 6.75 341.872H5.25ZM6.75 347.915C6.75 347.501 6.41421 347.165 6 347.165C5.58579 347.165 5.25 347.501 5.25 347.915H6.75ZM5.25 350.936C5.25 351.35 5.58579 351.686 6 351.686C6.41421 351.686 6.75 351.35 6.75 350.936H5.25ZM6.75 356.979C6.75 356.564 6.41421 356.229 6 356.229C5.58579 356.229 5.25 356.564 5.25 356.979H6.75ZM5.25 360C5.25 360.414 5.58579 360.75 6 360.75C6.41421 360.75 6.75 360.414 6.75 360H5.25ZM6.75 366.042C6.75 365.628 6.41421 365.292 6 365.292C5.58579 365.292 5.25 365.628 5.25 366.042H6.75ZM5.25 369.064C5.25 369.478 5.58579 369.814 6 369.814C6.41421 369.814 6.75 369.478 6.75 369.064H5.25ZM6.75 375.106C6.75 374.692 6.41421 374.356 6 374.356C5.58579 374.356 5.25 374.692 5.25 375.106H6.75ZM5.25 378.127C5.25 378.542 5.58579 378.877 6 378.877C6.41421 378.877 6.75 378.542 6.75 378.127H5.25ZM6.75 384.17C6.75 383.756 6.41421 383.42 6 383.42C5.58579 383.42 5.25 383.756 5.25 384.17H6.75ZM5.25 387.191C5.25 387.605 5.58579 387.941 6 387.941C6.41421 387.941 6.75 387.605 6.75 387.191H5.25ZM6.75 393.234C6.75 392.82 6.41421 392.484 6 392.484C5.58579 392.484 5.25 392.82 5.25 393.234H6.75ZM5.25 396.255C5.25 396.669 5.58579 397.005 6 397.005C6.41421 397.005 6.75 396.669 6.75 396.255H5.25ZM6.75 402.298C6.75 401.883 6.41421 401.548 6 401.548C5.58579 401.548 5.25 401.883 5.25 402.298H6.75ZM5.25 405.319C5.25 405.733 5.58579 406.069 6 406.069C6.41421 406.069 6.75 405.733 6.75 405.319H5.25ZM6.75 411.361C6.75 410.947 6.41421 410.611 6 410.611C5.58579 410.611 5.25 410.947 5.25 411.361H6.75ZM5.25 414.383C5.25 414.797 5.58579 415.133 6 415.133C6.41421 415.133 6.75 414.797 6.75 414.383H5.25ZM6.75 420.425C6.75 420.011 6.41421 419.675 6 419.675C5.58579 419.675 5.25 420.011 5.25 420.425H6.75ZM5.25 423.447C5.25 423.861 5.58579 424.197 6 424.197C6.41421 424.197 6.75 423.861 6.75 423.447H5.25ZM6.75 429.489C6.75 429.075 6.41421 428.739 6 428.739C5.58579 428.739 5.25 429.075 5.25 429.489H6.75ZM5.25 5V6.51064H6.75V5H5.25ZM5.25 12.5532L5.25 15.5745H6.75L6.75 12.5532H5.25ZM5.25 21.617V24.6383H6.75V21.617H5.25ZM5.25 30.6809V33.7021H6.75V30.6809H5.25ZM5.25 39.7447L5.25 42.766H6.75L6.75 39.7447H5.25ZM5.25 48.8085V51.8298H6.75V48.8085H5.25ZM5.25 57.8723V60.8936H6.75V57.8723H5.25ZM5.25 66.9362V69.9575H6.75V66.9362H5.25ZM5.25 76V79.0213H6.75V76H5.25ZM5.25 85.0638V88.0851H6.75V85.0638H5.25ZM5.25 94.1277V97.149H6.75V94.1277H5.25ZM5.25 103.192V106.213H6.75V103.192H5.25ZM5.25 112.255L5.25 115.277H6.75L6.75 112.255H5.25ZM5.25 121.319V124.34H6.75V121.319H5.25ZM5.25 130.383V133.404H6.75V130.383H5.25ZM5.25 139.447L5.25 142.468H6.75L6.75 139.447H5.25ZM5.25 148.511V151.532H6.75V148.511H5.25ZM5.25 157.575L5.25 160.596H6.75L6.75 157.575H5.25ZM5.25 166.638V169.66H6.75V166.638H5.25ZM5.25 175.702V178.723H6.75V175.702H5.25ZM5.25 184.766L5.25 187.787H6.75L6.75 184.766H5.25ZM5.25 193.83V196.851H6.75V193.83H5.25ZM5.25 202.894V205.915H6.75V202.894H5.25ZM5.25 211.957V214.979H6.75V211.957H5.25ZM5.25 221.021V224.043H6.75V221.021H5.25ZM5.25 230.085V233.106H6.75V230.085H5.25ZM5.25 239.149V242.17H6.75V239.149H5.25ZM5.25 248.213V251.234H6.75V248.213H5.25ZM5.25 257.277L5.25 260.298H6.75L6.75 257.277H5.25ZM5.25 266.34V269.362H6.75V266.34H5.25ZM5.25 275.404V278.426H6.75V275.404H5.25ZM5.25 284.468L5.25 287.489H6.75L6.75 284.468H5.25ZM5.25 293.532V296.553H6.75V293.532H5.25ZM5.25 302.596L5.25 305.617H6.75L6.75 302.596H5.25ZM5.25 311.659V314.681H6.75V311.659H5.25ZM5.25 320.723V323.745H6.75V320.723H5.25ZM5.25 329.787L5.25 332.808H6.75L6.75 329.787H5.25ZM5.25 338.851V341.872H6.75V338.851H5.25ZM5.25 347.915V350.936H6.75V347.915H5.25ZM5.25 356.979V360H6.75V356.979H5.25ZM5.25 366.042V369.064H6.75V366.042H5.25ZM5.25 375.106V378.127H6.75V375.106H5.25ZM5.25 384.17V387.191H6.75V384.17H5.25ZM5.25 393.234V396.255H6.75V393.234H5.25ZM5.25 402.298L5.25 405.319H6.75L6.75 402.298H5.25ZM5.25 411.361V414.383H6.75V411.361H5.25ZM5.25 420.425V423.447H6.75V420.425H5.25ZM5.25 429.489V431H6.75V429.489H5.25Z" fill="#FFA362"/>
</svg>
