<svg width="12" height="354" viewBox="0 0 12 354" fill="none" xmlns="http://www.w3.org/2000/svg">
<path d="M6 0.669873L1.66987 5L6 9.33013L10.3301 5L6 0.669873ZM5.46967 353.53C5.76256 353.823 6.23744 353.823 6.53033 353.53L11.3033 348.757C11.5962 348.464 11.5962 347.99 11.3033 347.697C11.0104 347.404 10.5355 347.404 10.2426 347.697L6 351.939L1.75736 347.697C1.46447 347.404 0.989593 347.404 0.696699 347.697C0.403806 347.99 0.403806 348.464 0.696699 348.757L5.46967 353.53ZM5.25 6.48718C5.25 6.90139 5.58579 7.23718 6 7.23718C6.41421 7.23718 6.75 6.90139 6.75 6.48718H5.25ZM6.75 12.4359C6.75 12.0217 6.41421 11.6859 6 11.6859C5.58579 11.6859 5.25 12.0217 5.25 12.4359H6.75ZM5.25 15.4103C5.25 15.8245 5.58579 16.1603 6 16.1603C6.41421 16.1603 6.75 15.8245 6.75 15.4103H5.25ZM6.75 21.359C6.75 20.9448 6.41421 20.609 6 20.609C5.58579 20.609 5.25 20.9448 5.25 21.359H6.75ZM5.25 24.3333C5.25 24.7475 5.58579 25.0833 6 25.0833C6.41421 25.0833 6.75 24.7475 6.75 24.3333H5.25ZM6.75 30.2821C6.75 29.8678 6.41421 29.5321 6 29.5321C5.58579 29.5321 5.25 29.8678 5.25 30.2821H6.75ZM5.25 33.2564C5.25 33.6706 5.58579 34.0064 6 34.0064C6.41421 34.0064 6.75 33.6706 6.75 33.2564H5.25ZM6.75 39.2051C6.75 38.7909 6.41421 38.4551 6 38.4551C5.58579 38.4551 5.25 38.7909 5.25 39.2051H6.75ZM5.25 42.1795C5.25 42.5937 5.58579 42.9295 6 42.9295C6.41421 42.9295 6.75 42.5937 6.75 42.1795H5.25ZM6.75 48.1282C6.75 47.714 6.41421 47.3782 6 47.3782C5.58579 47.3782 5.25 47.714 5.25 48.1282H6.75ZM5.25 51.1026C5.25 51.5168 5.58579 51.8526 6 51.8526C6.41421 51.8526 6.75 51.5168 6.75 51.1026H5.25ZM6.75 57.0513C6.75 56.6371 6.41421 56.3013 6 56.3013C5.58579 56.3013 5.25 56.6371 5.25 57.0513H6.75ZM5.25 60.0256C5.25 60.4398 5.58579 60.7756 6 60.7756C6.41421 60.7756 6.75 60.4398 6.75 60.0256H5.25ZM6.75 65.9744C6.75 65.5601 6.41421 65.2244 6 65.2244C5.58579 65.2244 5.25 65.5601 5.25 65.9744H6.75ZM5.25 68.9487C5.25 69.3629 5.58579 69.6987 6 69.6987C6.41421 69.6987 6.75 69.3629 6.75 68.9487H5.25ZM6.75 74.8974C6.75 74.4832 6.41421 74.1474 6 74.1474C5.58579 74.1474 5.25 74.4832 5.25 74.8974H6.75ZM5.25 77.8718C5.25 78.286 5.58579 78.6218 6 78.6218C6.41421 78.6218 6.75 78.286 6.75 77.8718H5.25ZM6.75 83.8205C6.75 83.4063 6.41421 83.0705 6 83.0705C5.58579 83.0705 5.25 83.4063 5.25 83.8205H6.75ZM5.25 86.7949C5.25 87.2091 5.58579 87.5449 6 87.5449C6.41421 87.5449 6.75 87.2091 6.75 86.7949H5.25ZM6.75 92.7436C6.75 92.3294 6.41421 91.9936 6 91.9936C5.58579 91.9936 5.25 92.3294 5.25 92.7436H6.75ZM5.25 95.7179C5.25 96.1321 5.58579 96.4679 6 96.4679C6.41421 96.4679 6.75 96.1321 6.75 95.7179H5.25ZM6.75 101.667C6.75 101.252 6.41421 100.917 6 100.917C5.58579 100.917 5.25 101.252 5.25 101.667H6.75ZM5.25 104.641C5.25 105.055 5.58579 105.391 6 105.391C6.41421 105.391 6.75 105.055 6.75 104.641H5.25ZM6.75 110.59C6.75 110.176 6.41421 109.84 6 109.84C5.58579 109.84 5.25 110.176 5.25 110.59H6.75ZM5.25 113.564C5.25 113.978 5.58579 114.314 6 114.314C6.41421 114.314 6.75 113.978 6.75 113.564H5.25ZM6.75 119.513C6.75 119.099 6.41421 118.763 6 118.763C5.58579 118.763 5.25 119.099 5.25 119.513H6.75ZM5.25 122.487C5.25 122.901 5.58579 123.237 6 123.237C6.41421 123.237 6.75 122.901 6.75 122.487H5.25ZM6.75 128.436C6.75 128.022 6.41421 127.686 6 127.686C5.58579 127.686 5.25 128.022 5.25 128.436H6.75ZM5.25 131.41C5.25 131.824 5.58579 132.16 6 132.16C6.41421 132.16 6.75 131.824 6.75 131.41H5.25ZM6.75 137.359C6.75 136.945 6.41421 136.609 6 136.609C5.58579 136.609 5.25 136.945 5.25 137.359H6.75ZM5.25 140.333C5.25 140.748 5.58579 141.083 6 141.083C6.41421 141.083 6.75 140.748 6.75 140.333H5.25ZM6.75 146.282C6.75 145.868 6.41421 145.532 6 145.532C5.58579 145.532 5.25 145.868 5.25 146.282H6.75ZM5.25 149.256C5.25 149.671 5.58579 150.006 6 150.006C6.41421 150.006 6.75 149.671 6.75 149.256H5.25ZM6.75 155.205C6.75 154.791 6.41421 154.455 6 154.455C5.58579 154.455 5.25 154.791 5.25 155.205H6.75ZM5.25 158.179C5.25 158.594 5.58579 158.929 6 158.929C6.41421 158.929 6.75 158.594 6.75 158.179H5.25ZM6.75 164.128C6.75 163.714 6.41421 163.378 6 163.378C5.58579 163.378 5.25 163.714 5.25 164.128H6.75ZM5.25 167.103C5.25 167.517 5.58579 167.853 6 167.853C6.41421 167.853 6.75 167.517 6.75 167.103H5.25ZM6.75 173.051C6.75 172.637 6.41421 172.301 6 172.301C5.58579 172.301 5.25 172.637 5.25 173.051H6.75ZM5.25 176.026C5.25 176.44 5.58579 176.776 6 176.776C6.41421 176.776 6.75 176.44 6.75 176.026H5.25ZM6.75 181.974C6.75 181.56 6.41421 181.224 6 181.224C5.58579 181.224 5.25 181.56 5.25 181.974H6.75ZM5.25 184.949C5.25 185.363 5.58579 185.699 6 185.699C6.41421 185.699 6.75 185.363 6.75 184.949H5.25ZM6.75 190.897C6.75 190.483 6.41421 190.147 6 190.147C5.58579 190.147 5.25 190.483 5.25 190.897H6.75ZM5.25 193.872C5.25 194.286 5.58579 194.622 6 194.622C6.41421 194.622 6.75 194.286 6.75 193.872H5.25ZM6.75 199.821C6.75 199.406 6.41421 199.071 6 199.071C5.58579 199.071 5.25 199.406 5.25 199.821H6.75ZM5.25 202.795C5.25 203.209 5.58579 203.545 6 203.545C6.41421 203.545 6.75 203.209 6.75 202.795H5.25ZM6.75 208.744C6.75 208.329 6.41421 207.994 6 207.994C5.58579 207.994 5.25 208.329 5.25 208.744H6.75ZM5.25 211.718C5.25 212.132 5.58579 212.468 6 212.468C6.41421 212.468 6.75 212.132 6.75 211.718H5.25ZM6.75 217.667C6.75 217.252 6.41421 216.917 6 216.917C5.58579 216.917 5.25 217.252 5.25 217.667H6.75ZM5.25 220.641C5.25 221.055 5.58579 221.391 6 221.391C6.41421 221.391 6.75 221.055 6.75 220.641H5.25ZM6.75 226.59C6.75 226.176 6.41421 225.84 6 225.84C5.58579 225.84 5.25 226.176 5.25 226.59H6.75ZM5.25 229.564C5.25 229.978 5.58579 230.314 6 230.314C6.41421 230.314 6.75 229.978 6.75 229.564H5.25ZM6.75 235.513C6.75 235.099 6.41421 234.763 6 234.763C5.58579 234.763 5.25 235.099 5.25 235.513H6.75ZM5.25 238.487C5.25 238.901 5.58579 239.237 6 239.237C6.41421 239.237 6.75 238.901 6.75 238.487H5.25ZM6.75 244.436C6.75 244.022 6.41421 243.686 6 243.686C5.58579 243.686 5.25 244.022 5.25 244.436H6.75ZM5.25 247.41C5.25 247.824 5.58579 248.16 6 248.16C6.41421 248.16 6.75 247.824 6.75 247.41H5.25ZM6.75 253.359C6.75 252.945 6.41421 252.609 6 252.609C5.58579 252.609 5.25 252.945 5.25 253.359H6.75ZM5.25 256.333C5.25 256.748 5.58579 257.083 6 257.083C6.41421 257.083 6.75 256.748 6.75 256.333H5.25ZM6.75 262.282C6.75 261.868 6.41421 261.532 6 261.532C5.58579 261.532 5.25 261.868 5.25 262.282H6.75ZM5.25 265.256C5.25 265.671 5.58579 266.006 6 266.006C6.41421 266.006 6.75 265.671 6.75 265.256H5.25ZM6.75 271.205C6.75 270.791 6.41421 270.455 6 270.455C5.58579 270.455 5.25 270.791 5.25 271.205H6.75ZM5.25 274.18C5.25 274.594 5.58579 274.93 6 274.93C6.41421 274.93 6.75 274.594 6.75 274.18H5.25ZM6.75 280.128C6.75 279.714 6.41421 279.378 6 279.378C5.58579 279.378 5.25 279.714 5.25 280.128H6.75ZM5.25 283.103C5.25 283.517 5.58579 283.853 6 283.853C6.41421 283.853 6.75 283.517 6.75 283.103H5.25ZM6.75 289.051C6.75 288.637 6.41421 288.301 6 288.301C5.58579 288.301 5.25 288.637 5.25 289.051H6.75ZM5.25 292.026C5.25 292.44 5.58579 292.776 6 292.776C6.41421 292.776 6.75 292.44 6.75 292.026H5.25ZM6.75 297.974C6.75 297.56 6.41421 297.224 6 297.224C5.58579 297.224 5.25 297.56 5.25 297.974H6.75ZM5.25 300.949C5.25 301.363 5.58579 301.699 6 301.699C6.41421 301.699 6.75 301.363 6.75 300.949H5.25ZM6.75 306.898C6.75 306.483 6.41421 306.148 6 306.148C5.58579 306.148 5.25 306.483 5.25 306.898H6.75ZM5.25 309.872C5.25 310.286 5.58579 310.622 6 310.622C6.41421 310.622 6.75 310.286 6.75 309.872H5.25ZM6.75 315.821C6.75 315.406 6.41421 315.071 6 315.071C5.58579 315.071 5.25 315.406 5.25 315.821H6.75ZM5.25 318.795C5.25 319.209 5.58579 319.545 6 319.545C6.41421 319.545 6.75 319.209 6.75 318.795H5.25ZM6.75 324.744C6.75 324.33 6.41421 323.994 6 323.994C5.58579 323.994 5.25 324.33 5.25 324.744H6.75ZM5.25 327.718C5.25 328.132 5.58579 328.468 6 328.468C6.41421 328.468 6.75 328.132 6.75 327.718H5.25ZM6.75 333.667C6.75 333.253 6.41421 332.917 6 332.917C5.58579 332.917 5.25 333.253 5.25 333.667H6.75ZM5.25 336.641C5.25 337.055 5.58579 337.391 6 337.391C6.41421 337.391 6.75 337.055 6.75 336.641H5.25ZM6.75 342.59C6.75 342.176 6.41421 341.84 6 341.84C5.58579 341.84 5.25 342.176 5.25 342.59H6.75ZM5.25 345.564C5.25 345.979 5.58579 346.314 6 346.314C6.41421 346.314 6.75 345.979 6.75 345.564H5.25ZM6.75 351.513C6.75 351.099 6.41421 350.763 6 350.763C5.58579 350.763 5.25 351.099 5.25 351.513H6.75ZM5.25 5V6.48718H6.75V5H5.25ZM5.25 12.4359L5.25 15.4103H6.75L6.75 12.4359H5.25ZM5.25 21.359V24.3333H6.75V21.359H5.25ZM5.25 30.2821V33.2564H6.75V30.2821H5.25ZM5.25 39.2051L5.25 42.1795H6.75L6.75 39.2051H5.25ZM5.25 48.1282V51.1026H6.75V48.1282H5.25ZM5.25 57.0513V60.0256H6.75V57.0513H5.25ZM5.25 65.9744V68.9487H6.75V65.9744H5.25ZM5.25 74.8974V77.8718H6.75V74.8974H5.25ZM5.25 83.8205L5.25 86.7949H6.75L6.75 83.8205H5.25ZM5.25 92.7436V95.7179H6.75V92.7436H5.25ZM5.25 101.667V104.641H6.75V101.667H5.25ZM5.25 110.59L5.25 113.564H6.75L6.75 110.59H5.25ZM5.25 119.513V122.487H6.75V119.513H5.25ZM5.25 128.436L5.25 131.41H6.75L6.75 128.436H5.25ZM5.25 137.359V140.333H6.75V137.359H5.25ZM5.25 146.282V149.256H6.75V146.282H5.25ZM5.25 155.205V158.179H6.75V155.205H5.25ZM5.25 164.128V167.103H6.75V164.128H5.25ZM5.25 173.051V176.026H6.75V173.051H5.25ZM5.25 181.974V184.949H6.75V181.974H5.25ZM5.25 190.897V193.872H6.75V190.897H5.25ZM5.25 199.821L5.25 202.795H6.75L6.75 199.821H5.25ZM5.25 208.744V211.718H6.75V208.744H5.25ZM5.25 217.667V220.641H6.75V217.667H5.25ZM5.25 226.59L5.25 229.564H6.75L6.75 226.59H5.25ZM5.25 235.513V238.487H6.75V235.513H5.25ZM5.25 244.436L5.25 247.41H6.75L6.75 244.436H5.25ZM5.25 253.359V256.333H6.75V253.359H5.25ZM5.25 262.282V265.256H6.75V262.282H5.25ZM5.25 271.205V274.18H6.75V271.205H5.25ZM5.25 280.128V283.103H6.75V280.128H5.25ZM5.25 289.051V292.026H6.75V289.051H5.25ZM5.25 297.974V300.949H6.75V297.974H5.25ZM5.25 306.898V309.872H6.75V306.898H5.25ZM5.25 315.821L5.25 318.795H6.75L6.75 315.821H5.25ZM5.25 324.744V327.718H6.75V324.744H5.25ZM5.25 333.667V336.641H6.75V333.667H5.25ZM5.25 342.59L5.25 345.564H6.75L6.75 342.59H5.25ZM5.25 351.513V353H6.75V351.513H5.25Z" fill="#FFA362"/>
</svg>
