<svg width="149" height="21" viewBox="0 0 149 21" fill="none" xmlns="http://www.w3.org/2000/svg">
<path d="M4.29119 12.1165C4.30007 10.3587 5.37429 9.32884 6.91903 9.32884C8.4549 9.32884 9.36044 10.3143 9.35156 11.9922V20H13.1335V11.3175C13.1424 8.12145 11.2603 6.18608 8.41939 6.18608C6.35085 6.18608 4.96591 7.16264 4.34446 8.76953H4.18466V1.81818H0.509233V20H4.29119V12.1165ZM16.1098 20H19.8918V6.36364H16.1098V20ZM18.0097 4.60582C19.1372 4.60582 20.0605 3.74467 20.0605 2.68821C20.0605 1.64062 19.1372 0.779473 18.0097 0.779473C16.8911 0.779473 15.9678 1.64062 15.9678 2.68821C15.9678 3.74467 16.8911 4.60582 18.0097 4.60582ZM22.9213 20H26.7033V12.2852C26.7033 10.6072 27.9284 9.45312 29.5975 9.45312C30.1213 9.45312 30.8404 9.5419 31.1955 9.65731V6.30149C30.8581 6.22159 30.3876 6.16832 30.0059 6.16832C28.4789 6.16832 27.2271 7.05611 26.7299 8.7429H26.5879V6.36364H22.9213V20ZM38.7306 20.2663C42.1041 20.2663 44.3769 18.6239 44.9095 16.0938L41.4117 15.8629C41.0299 16.9016 40.0534 17.4432 38.7927 17.4432C36.9017 17.4432 35.7032 16.1914 35.7032 14.1584V14.1495H44.9894V13.1108C44.9894 8.47656 42.184 6.18608 38.5796 6.18608C34.5669 6.18608 31.9656 9.03587 31.9656 13.244C31.9656 17.5675 34.5313 20.2663 38.7306 20.2663ZM35.7032 11.8058C35.7831 10.2521 36.9639 9.00923 38.6418 9.00923C40.2842 9.00923 41.4205 10.1811 41.4294 11.8058H35.7032ZM54.7906 6.36364H52.0828V5.44922C52.0828 4.52592 52.4557 3.98438 53.5654 3.98438C54.0182 3.98438 54.4798 4.08203 54.7817 4.17969L55.4475 1.33878C54.977 1.19673 53.9383 0.965908 52.7753 0.965908C50.2096 0.965908 48.3009 2.413 48.3009 5.3782V6.36364H46.3744V9.20455H48.3009V20H52.0828V9.20455H54.7906V6.36364ZM57.101 20H60.883V6.36364H57.101V20ZM59.0009 4.60582C60.1284 4.60582 61.0517 3.74467 61.0517 2.68821C61.0517 1.64062 60.1284 0.779473 59.0009 0.779473C57.8823 0.779473 56.959 1.64062 56.959 2.68821C56.959 3.74467 57.8823 4.60582 59.0009 4.60582ZM71.1657 6.36364H68.6001V3.09659H64.8181V6.36364H62.9537V9.20455H64.8181V16.3068C64.8003 18.979 66.6203 20.3018 69.3635 20.1864C70.3401 20.1509 71.0326 19.9556 71.4143 19.8313L70.8195 17.017C70.6331 17.0526 70.2336 17.1413 69.8785 17.1413C69.1238 17.1413 68.6001 16.8572 68.6001 15.8097V9.20455H71.1657V6.36364Z" fill="#6F758C"/>
<path d="M75.8399 20.2308C76.9763 20.2308 77.9617 19.2809 77.9706 18.1001C77.9617 16.9371 76.9763 15.9872 75.8399 15.9872C74.6681 15.9872 73.7004 16.9371 73.7093 18.1001C73.7004 19.2809 74.6681 20.2308 75.8399 20.2308ZM84.9641 20.2575C86.9794 20.2575 88.2844 19.3786 88.9503 18.109H89.0568V20H92.6435V10.8026C92.6435 7.55327 89.8913 6.18608 86.8551 6.18608C83.5881 6.18608 81.4396 7.74858 80.9158 10.2344L84.4137 10.5185C84.6712 9.61293 85.479 8.94709 86.8374 8.94709C88.1246 8.94709 88.8615 9.59517 88.8615 10.7138V10.767C88.8615 11.646 87.9293 11.7614 85.5589 11.9922C82.8601 12.2408 80.4364 13.1463 80.4364 16.1914C80.4364 18.8903 82.3629 20.2575 84.9641 20.2575ZM86.0472 17.6474C84.8842 17.6474 84.0497 17.1058 84.0497 16.0671C84.0497 15.0018 84.9286 14.478 86.2603 14.2915C87.0859 14.1761 88.4354 13.9808 88.8881 13.679V15.1261C88.8881 16.5554 87.7074 17.6474 86.0472 17.6474ZM102.911 6.36364H100.203V5.44922C100.203 4.52592 100.576 3.98438 101.686 3.98438C102.138 3.98438 102.6 4.08203 102.902 4.17969L103.568 1.33878C103.097 1.19673 102.058 0.965908 100.895 0.965908C98.3297 0.965908 96.421 2.413 96.421 5.3782V6.36364H94.4945V9.20455H96.421V20H100.203V9.20455H102.911V6.36364ZM105.221 20H109.003V12.2852C109.003 10.6072 110.228 9.45312 111.897 9.45312C112.421 9.45312 113.14 9.5419 113.495 9.65731V6.30149C113.158 6.22159 112.687 6.16832 112.306 6.16832C110.779 6.16832 109.527 7.05611 109.03 8.7429H108.888V6.36364H105.221V20ZM115.451 20H119.233V6.36364H115.451V20ZM117.35 4.60582C118.478 4.60582 119.401 3.74467 119.401 2.68821C119.401 1.64062 118.478 0.779473 117.35 0.779473C116.232 0.779473 115.309 1.64062 115.309 2.68821C115.309 3.74467 116.232 4.60582 117.35 4.60582ZM128.423 20.2663C132.054 20.2663 134.336 18.1357 134.514 15.0018H130.945C130.723 16.4577 129.764 17.2745 128.468 17.2745C126.701 17.2745 125.556 15.7919 125.556 13.1818C125.556 10.6072 126.71 9.13352 128.468 9.13352C129.853 9.13352 130.741 10.0479 130.945 11.4062H134.514C134.354 8.25462 131.966 6.18608 128.406 6.18608C124.269 6.18608 121.712 9.05362 121.712 13.2351C121.712 17.381 124.224 20.2663 128.423 20.2663ZM140.824 20.2575C142.839 20.2575 144.144 19.3786 144.81 18.109H144.916V20H148.503V10.8026C148.503 7.55327 145.751 6.18608 142.714 6.18608C139.447 6.18608 137.299 7.74858 136.775 10.2344L140.273 10.5185C140.531 9.61293 141.338 8.94709 142.697 8.94709C143.984 8.94709 144.721 9.59517 144.721 10.7138V10.767C144.721 11.646 143.789 11.7614 141.418 11.9922C138.719 12.2408 136.296 13.1463 136.296 16.1914C136.296 18.8903 138.222 20.2575 140.824 20.2575ZM141.907 17.6474C140.744 17.6474 139.909 17.1058 139.909 16.0671C139.909 15.0018 140.788 14.478 142.12 14.2915C142.945 14.1761 144.295 13.9808 144.748 13.679V15.1261C144.748 16.5554 143.567 17.6474 141.907 17.6474Z" fill="black"/>
</svg>
