<svg width="64" height="63" viewBox="0 0 64 63" fill="none" xmlns="http://www.w3.org/2000/svg">
<path fill-rule="evenodd" clip-rule="evenodd" d="M45.8045 46.3632C46.3903 46.949 47.34 46.949 47.9258 46.3632C48.5116 45.7774 48.5116 44.8276 47.9258 44.2419L34.7961 31.1122L47.8931 18.0152C48.4789 17.4294 48.4789 16.4796 47.8931 15.8938C47.3074 15.3081 46.3576 15.3081 45.7718 15.8938L32.6748 28.9909L18.9023 15.2184C18.3165 14.6326 17.3668 14.6326 16.781 15.2184C16.1952 15.8041 16.1952 16.7539 16.781 17.3397L30.5535 31.1122L16.7483 44.9173C16.1625 45.5031 16.1625 46.4529 16.7483 47.0387C17.3341 47.6245 18.2839 47.6245 18.8696 47.0387L32.6748 33.2335L45.8045 46.3632Z" fill="#455A64"/>
</svg>
