<svg width="30" height="1424" viewBox="0 0 30 1424" fill="none" xmlns="http://www.w3.org/2000/svg">
<circle cx="15" cy="15" r="15" fill="#FD6A02"/>
<circle cx="15" cy="390" r="15" fill="#FD6A02"/>
<circle cx="15" cy="928.5" r="15" fill="#FD6A02"/>
<circle cx="15" cy="1408.5" r="15" fill="#FD6A02"/>
<path d="M15 38.6699L10.6699 43L15 47.3301L19.3301 43L15 38.6699ZM14.4697 365.53C14.7626 365.823 15.2374 365.823 15.5303 365.53L20.3033 360.757C20.5962 360.464 20.5962 359.99 20.3033 359.697C20.0104 359.404 19.5355 359.404 19.2426 359.697L15 363.939L10.7574 359.697C10.4645 359.404 9.98959 359.404 9.6967 359.697C9.40381 359.99 9.40381 360.464 9.6967 360.757L14.4697 365.53ZM14.25 44.4907C14.25 44.905 14.5858 45.2407 15 45.2407C15.4142 45.2407 15.75 44.905 15.75 44.4907H14.25ZM15.75 50.4537C15.75 50.0395 15.4142 49.7037 15 49.7037C14.5858 49.7037 14.25 50.0395 14.25 50.4537H15.75ZM14.25 53.4352C14.25 53.8494 14.5858 54.1852 15 54.1852C15.4142 54.1852 15.75 53.8494 15.75 53.4352H14.25ZM15.75 59.3981C15.75 58.9839 15.4142 58.6481 15 58.6481C14.5858 58.6481 14.25 58.9839 14.25 59.3981H15.75ZM14.25 62.3796C14.25 62.7938 14.5858 63.1296 15 63.1296C15.4142 63.1296 15.75 62.7938 15.75 62.3796H14.25ZM15.75 68.3426C15.75 67.9284 15.4142 67.5926 15 67.5926C14.5858 67.5926 14.25 67.9284 14.25 68.3426H15.75ZM14.25 71.3241C14.25 71.7383 14.5858 72.0741 15 72.0741C15.4142 72.0741 15.75 71.7383 15.75 71.3241H14.25ZM15.75 77.287C15.75 76.8728 15.4142 76.537 15 76.537C14.5858 76.537 14.25 76.8728 14.25 77.287H15.75ZM14.25 80.2685C14.25 80.6827 14.5858 81.0185 15 81.0185C15.4142 81.0185 15.75 80.6827 15.75 80.2685H14.25ZM15.75 86.2315C15.75 85.8173 15.4142 85.4815 15 85.4815C14.5858 85.4815 14.25 85.8173 14.25 86.2315H15.75ZM14.25 89.213C14.25 89.6272 14.5858 89.963 15 89.963C15.4142 89.963 15.75 89.6272 15.75 89.213H14.25ZM15.75 95.1759C15.75 94.7617 15.4142 94.4259 15 94.4259C14.5858 94.4259 14.25 94.7617 14.25 95.1759H15.75ZM14.25 98.1574C14.25 98.5716 14.5858 98.9074 15 98.9074C15.4142 98.9074 15.75 98.5716 15.75 98.1574H14.25ZM15.75 104.12C15.75 103.706 15.4142 103.37 15 103.37C14.5858 103.37 14.25 103.706 14.25 104.12H15.75ZM14.25 107.102C14.25 107.516 14.5858 107.852 15 107.852C15.4142 107.852 15.75 107.516 15.75 107.102H14.25ZM15.75 113.065C15.75 112.651 15.4142 112.315 15 112.315C14.5858 112.315 14.25 112.651 14.25 113.065H15.75ZM14.25 116.046C14.25 116.461 14.5858 116.796 15 116.796C15.4142 116.796 15.75 116.461 15.75 116.046H14.25ZM15.75 122.009C15.75 121.595 15.4142 121.259 15 121.259C14.5858 121.259 14.25 121.595 14.25 122.009H15.75ZM14.25 124.991C14.25 125.405 14.5858 125.741 15 125.741C15.4142 125.741 15.75 125.405 15.75 124.991H14.25ZM15.75 130.954C15.75 130.539 15.4142 130.204 15 130.204C14.5858 130.204 14.25 130.539 14.25 130.954H15.75ZM14.25 133.935C14.25 134.349 14.5858 134.685 15 134.685C15.4142 134.685 15.75 134.349 15.75 133.935H14.25ZM15.75 139.898C15.75 139.484 15.4142 139.148 15 139.148C14.5858 139.148 14.25 139.484 14.25 139.898H15.75ZM14.25 142.88C14.25 143.294 14.5858 143.63 15 143.63C15.4142 143.63 15.75 143.294 15.75 142.88H14.25ZM15.75 148.843C15.75 148.428 15.4142 148.093 15 148.093C14.5858 148.093 14.25 148.428 14.25 148.843H15.75ZM14.25 151.824C14.25 152.238 14.5858 152.574 15 152.574C15.4142 152.574 15.75 152.238 15.75 151.824H14.25ZM15.75 157.787C15.75 157.373 15.4142 157.037 15 157.037C14.5858 157.037 14.25 157.373 14.25 157.787H15.75ZM14.25 160.769C14.25 161.183 14.5858 161.519 15 161.519C15.4142 161.519 15.75 161.183 15.75 160.769H14.25ZM15.75 166.731C15.75 166.317 15.4142 165.981 15 165.981C14.5858 165.981 14.25 166.317 14.25 166.731H15.75ZM14.25 169.713C14.25 170.127 14.5858 170.463 15 170.463C15.4142 170.463 15.75 170.127 15.75 169.713H14.25ZM15.75 175.676C15.75 175.262 15.4142 174.926 15 174.926C14.5858 174.926 14.25 175.262 14.25 175.676H15.75ZM14.25 178.657C14.25 179.072 14.5858 179.407 15 179.407C15.4142 179.407 15.75 179.072 15.75 178.657H14.25ZM15.75 184.62C15.75 184.206 15.4142 183.87 15 183.87C14.5858 183.87 14.25 184.206 14.25 184.62H15.75ZM14.25 187.602C14.25 188.016 14.5858 188.352 15 188.352C15.4142 188.352 15.75 188.016 15.75 187.602H14.25ZM15.75 193.565C15.75 193.151 15.4142 192.815 15 192.815C14.5858 192.815 14.25 193.151 14.25 193.565H15.75ZM14.25 196.546C14.25 196.96 14.5858 197.296 15 197.296C15.4142 197.296 15.75 196.96 15.75 196.546H14.25ZM15.75 202.509C15.75 202.095 15.4142 201.759 15 201.759C14.5858 201.759 14.25 202.095 14.25 202.509H15.75ZM14.25 205.491C14.25 205.905 14.5858 206.241 15 206.241C15.4142 206.241 15.75 205.905 15.75 205.491H14.25ZM15.75 211.454C15.75 211.039 15.4142 210.704 15 210.704C14.5858 210.704 14.25 211.039 14.25 211.454H15.75ZM14.25 214.435C14.25 214.849 14.5858 215.185 15 215.185C15.4142 215.185 15.75 214.849 15.75 214.435H14.25ZM15.75 220.398C15.75 219.984 15.4142 219.648 15 219.648C14.5858 219.648 14.25 219.984 14.25 220.398H15.75ZM14.25 223.38C14.25 223.794 14.5858 224.13 15 224.13C15.4142 224.13 15.75 223.794 15.75 223.38H14.25ZM15.75 229.343C15.75 228.928 15.4142 228.593 15 228.593C14.5858 228.593 14.25 228.928 14.25 229.343H15.75ZM14.25 232.324C14.25 232.738 14.5858 233.074 15 233.074C15.4142 233.074 15.75 232.738 15.75 232.324H14.25ZM15.75 238.287C15.75 237.873 15.4142 237.537 15 237.537C14.5858 237.537 14.25 237.873 14.25 238.287H15.75ZM14.25 241.268C14.25 241.683 14.5858 242.018 15 242.018C15.4142 242.018 15.75 241.683 15.75 241.268H14.25ZM15.75 247.231C15.75 246.817 15.4142 246.481 15 246.481C14.5858 246.481 14.25 246.817 14.25 247.231H15.75ZM14.25 250.213C14.25 250.627 14.5858 250.963 15 250.963C15.4142 250.963 15.75 250.627 15.75 250.213H14.25ZM15.75 256.176C15.75 255.762 15.4142 255.426 15 255.426C14.5858 255.426 14.25 255.762 14.25 256.176H15.75ZM14.25 259.157C14.25 259.572 14.5858 259.907 15 259.907C15.4142 259.907 15.75 259.572 15.75 259.157H14.25ZM15.75 265.12C15.75 264.706 15.4142 264.37 15 264.37C14.5858 264.37 14.25 264.706 14.25 265.12H15.75ZM14.25 268.102C14.25 268.516 14.5858 268.852 15 268.852C15.4142 268.852 15.75 268.516 15.75 268.102H14.25ZM15.75 274.065C15.75 273.651 15.4142 273.315 15 273.315C14.5858 273.315 14.25 273.651 14.25 274.065H15.75ZM14.25 277.046C14.25 277.46 14.5858 277.796 15 277.796C15.4142 277.796 15.75 277.46 15.75 277.046H14.25ZM15.75 283.009C15.75 282.595 15.4142 282.259 15 282.259C14.5858 282.259 14.25 282.595 14.25 283.009H15.75ZM14.25 285.991C14.25 286.405 14.5858 286.741 15 286.741C15.4142 286.741 15.75 286.405 15.75 285.991H14.25ZM15.75 291.954C15.75 291.539 15.4142 291.204 15 291.204C14.5858 291.204 14.25 291.539 14.25 291.954H15.75ZM14.25 294.935C14.25 295.349 14.5858 295.685 15 295.685C15.4142 295.685 15.75 295.349 15.75 294.935H14.25ZM15.75 300.898C15.75 300.484 15.4142 300.148 15 300.148C14.5858 300.148 14.25 300.484 14.25 300.898H15.75ZM14.25 303.88C14.25 304.294 14.5858 304.63 15 304.63C15.4142 304.63 15.75 304.294 15.75 303.88H14.25ZM15.75 309.843C15.75 309.428 15.4142 309.093 15 309.093C14.5858 309.093 14.25 309.428 14.25 309.843H15.75ZM14.25 312.824C14.25 313.238 14.5858 313.574 15 313.574C15.4142 313.574 15.75 313.238 15.75 312.824H14.25ZM15.75 318.787C15.75 318.373 15.4142 318.037 15 318.037C14.5858 318.037 14.25 318.373 14.25 318.787H15.75ZM14.25 321.768C14.25 322.183 14.5858 322.518 15 322.518C15.4142 322.518 15.75 322.183 15.75 321.768H14.25ZM15.75 327.731C15.75 327.317 15.4142 326.981 15 326.981C14.5858 326.981 14.25 327.317 14.25 327.731H15.75ZM14.25 330.713C14.25 331.127 14.5858 331.463 15 331.463C15.4142 331.463 15.75 331.127 15.75 330.713H14.25ZM15.75 336.676C15.75 336.262 15.4142 335.926 15 335.926C14.5858 335.926 14.25 336.262 14.25 336.676H15.75ZM14.25 339.657C14.25 340.072 14.5858 340.407 15 340.407C15.4142 340.407 15.75 340.072 15.75 339.657H14.25ZM15.75 345.62C15.75 345.206 15.4142 344.87 15 344.87C14.5858 344.87 14.25 345.206 14.25 345.62H15.75ZM14.25 348.602C14.25 349.016 14.5858 349.352 15 349.352C15.4142 349.352 15.75 349.016 15.75 348.602H14.25ZM15.75 354.565C15.75 354.15 15.4142 353.815 15 353.815C14.5858 353.815 14.25 354.15 14.25 354.565H15.75ZM14.25 357.546C14.25 357.96 14.5858 358.296 15 358.296C15.4142 358.296 15.75 357.96 15.75 357.546H14.25ZM15.75 363.509C15.75 363.095 15.4142 362.759 15 362.759C14.5858 362.759 14.25 363.095 14.25 363.509H15.75ZM14.25 43V44.4907H15.75V43H14.25ZM14.25 50.4537V53.4352H15.75V50.4537H14.25ZM14.25 59.3981V62.3796H15.75V59.3981H14.25ZM14.25 68.3426V71.3241H15.75V68.3426H14.25ZM14.25 77.287V80.2685H15.75V77.287H14.25ZM14.25 86.2315V89.213H15.75V86.2315H14.25ZM14.25 95.1759V98.1574H15.75V95.1759H14.25ZM14.25 104.12V107.102H15.75V104.12H14.25ZM14.25 113.065V116.046H15.75V113.065H14.25ZM14.25 122.009V124.991H15.75V122.009H14.25ZM14.25 130.954V133.935H15.75V130.954H14.25ZM14.25 139.898V142.88H15.75V139.898H14.25ZM14.25 148.843V151.824H15.75V148.843H14.25ZM14.25 157.787V160.769H15.75V157.787H14.25ZM14.25 166.731V169.713H15.75V166.731H14.25ZM14.25 175.676V178.657H15.75V175.676H14.25ZM14.25 184.62V187.602H15.75V184.62H14.25ZM14.25 193.565V196.546H15.75V193.565H14.25ZM14.25 202.509V205.491H15.75V202.509H14.25ZM14.25 211.454V214.435H15.75V211.454H14.25ZM14.25 220.398V223.38H15.75V220.398H14.25ZM14.25 229.343V232.324H15.75V229.343H14.25ZM14.25 238.287V241.268H15.75V238.287H14.25ZM14.25 247.231V250.213H15.75V247.231H14.25ZM14.25 256.176V259.157H15.75V256.176H14.25ZM14.25 265.12V268.102H15.75V265.12H14.25ZM14.25 274.065V277.046H15.75V274.065H14.25ZM14.25 283.009V285.991H15.75V283.009H14.25ZM14.25 291.954V294.935H15.75V291.954H14.25ZM14.25 300.898V303.88H15.75V300.898H14.25ZM14.25 309.843V312.824H15.75V309.843H14.25ZM14.25 318.787V321.768H15.75V318.787H14.25ZM14.25 327.731V330.713H15.75V327.731H14.25ZM14.25 336.676V339.657H15.75V336.676H14.25ZM14.25 345.62L14.25 348.602H15.75L15.75 345.62H14.25ZM14.25 354.565V357.546H15.75V354.565H14.25ZM14.25 363.509V365H15.75V363.509H14.25Z" fill="#FFA362"/>
<path d="M15 409.67L10.6699 414L15 418.33L19.3301 414L15 409.67ZM14.4697 906.53C14.7626 906.823 15.2374 906.823 15.5303 906.53L20.3033 901.757C20.5962 901.464 20.5962 900.99 20.3033 900.697C20.0104 900.404 19.5355 900.404 19.2426 900.697L15 904.939L10.7574 900.697C10.4645 900.404 9.98959 900.404 9.6967 900.697C9.40381 900.99 9.40381 901.464 9.6967 901.757L14.4697 906.53ZM14.25 415.491C14.25 415.905 14.5858 416.241 15 416.241C15.4142 416.241 15.75 415.905 15.75 415.491H14.25ZM15.75 421.455C15.75 421.04 15.4142 420.705 15 420.705C14.5858 420.705 14.25 421.04 14.25 421.455H15.75ZM14.25 424.436C14.25 424.851 14.5858 425.186 15 425.186C15.4142 425.186 15.75 424.851 15.75 424.436H14.25ZM15.75 430.4C15.75 429.986 15.4142 429.65 15 429.65C14.5858 429.65 14.25 429.986 14.25 430.4H15.75ZM14.25 433.382C14.25 433.796 14.5858 434.132 15 434.132C15.4142 434.132 15.75 433.796 15.75 433.382H14.25ZM15.75 439.345C15.75 438.931 15.4142 438.595 15 438.595C14.5858 438.595 14.25 438.931 14.25 439.345H15.75ZM14.25 442.327C14.25 442.741 14.5858 443.077 15 443.077C15.4142 443.077 15.75 442.741 15.75 442.327H14.25ZM15.75 448.291C15.75 447.877 15.4142 447.541 15 447.541C14.5858 447.541 14.25 447.877 14.25 448.291H15.75ZM14.25 451.273C14.25 451.687 14.5858 452.023 15 452.023C15.4142 452.023 15.75 451.687 15.75 451.273H14.25ZM15.75 457.236C15.75 456.822 15.4142 456.486 15 456.486C14.5858 456.486 14.25 456.822 14.25 457.236H15.75ZM14.25 460.218C14.25 460.632 14.5858 460.968 15 460.968C15.4142 460.968 15.75 460.632 15.75 460.218H14.25ZM15.75 466.182C15.75 465.768 15.4142 465.432 15 465.432C14.5858 465.432 14.25 465.768 14.25 466.182H15.75ZM14.25 469.164C14.25 469.578 14.5858 469.914 15 469.914C15.4142 469.914 15.75 469.578 15.75 469.164H14.25ZM15.75 475.127C15.75 474.713 15.4142 474.377 15 474.377C14.5858 474.377 14.25 474.713 14.25 475.127H15.75ZM14.25 478.109C14.25 478.523 14.5858 478.859 15 478.859C15.4142 478.859 15.75 478.523 15.75 478.109H14.25ZM15.75 484.073C15.75 483.659 15.4142 483.323 15 483.323C14.5858 483.323 14.25 483.659 14.25 484.073H15.75ZM14.25 487.055C14.25 487.469 14.5858 487.805 15 487.805C15.4142 487.805 15.75 487.469 15.75 487.055H14.25ZM15.75 493.018C15.75 492.604 15.4142 492.268 15 492.268C14.5858 492.268 14.25 492.604 14.25 493.018H15.75ZM14.25 496C14.25 496.414 14.5858 496.75 15 496.75C15.4142 496.75 15.75 496.414 15.75 496H14.25ZM15.75 501.964C15.75 501.549 15.4142 501.214 15 501.214C14.5858 501.214 14.25 501.549 14.25 501.964H15.75ZM14.25 504.945C14.25 505.36 14.5858 505.695 15 505.695C15.4142 505.695 15.75 505.36 15.75 504.945H14.25ZM15.75 510.909C15.75 510.495 15.4142 510.159 15 510.159C14.5858 510.159 14.25 510.495 14.25 510.909H15.75ZM14.25 513.891C14.25 514.305 14.5858 514.641 15 514.641C15.4142 514.641 15.75 514.305 15.75 513.891H14.25ZM15.75 519.855C15.75 519.44 15.4142 519.105 15 519.105C14.5858 519.105 14.25 519.44 14.25 519.855H15.75ZM14.25 522.836C14.25 523.251 14.5858 523.586 15 523.586C15.4142 523.586 15.75 523.251 15.75 522.836H14.25ZM15.75 528.8C15.75 528.386 15.4142 528.05 15 528.05C14.5858 528.05 14.25 528.386 14.25 528.8H15.75ZM14.25 531.782C14.25 532.196 14.5858 532.532 15 532.532C15.4142 532.532 15.75 532.196 15.75 531.782H14.25ZM15.75 537.745C15.75 537.331 15.4142 536.995 15 536.995C14.5858 536.995 14.25 537.331 14.25 537.745H15.75ZM14.25 540.727C14.25 541.142 14.5858 541.477 15 541.477C15.4142 541.477 15.75 541.142 15.75 540.727H14.25ZM15.75 546.691C15.75 546.277 15.4142 545.941 15 545.941C14.5858 545.941 14.25 546.277 14.25 546.691H15.75ZM14.25 549.673C14.25 550.087 14.5858 550.423 15 550.423C15.4142 550.423 15.75 550.087 15.75 549.673H14.25ZM15.75 555.636C15.75 555.222 15.4142 554.886 15 554.886C14.5858 554.886 14.25 555.222 14.25 555.636H15.75ZM14.25 558.618C14.25 559.032 14.5858 559.368 15 559.368C15.4142 559.368 15.75 559.032 15.75 558.618H14.25ZM15.75 564.582C15.75 564.168 15.4142 563.832 15 563.832C14.5858 563.832 14.25 564.168 14.25 564.582H15.75ZM14.25 567.564C14.25 567.978 14.5858 568.314 15 568.314C15.4142 568.314 15.75 567.978 15.75 567.564H14.25ZM15.75 573.527C15.75 573.113 15.4142 572.777 15 572.777C14.5858 572.777 14.25 573.113 14.25 573.527H15.75ZM14.25 576.509C14.25 576.923 14.5858 577.259 15 577.259C15.4142 577.259 15.75 576.923 15.75 576.509H14.25ZM15.75 582.473C15.75 582.059 15.4142 581.723 15 581.723C14.5858 581.723 14.25 582.059 14.25 582.473H15.75ZM14.25 585.455C14.25 585.869 14.5858 586.205 15 586.205C15.4142 586.205 15.75 585.869 15.75 585.455H14.25ZM15.75 591.418C15.75 591.004 15.4142 590.668 15 590.668C14.5858 590.668 14.25 591.004 14.25 591.418H15.75ZM14.25 594.4C14.25 594.814 14.5858 595.15 15 595.15C15.4142 595.15 15.75 594.814 15.75 594.4H14.25ZM15.75 600.364C15.75 599.949 15.4142 599.614 15 599.614C14.5858 599.614 14.25 599.949 14.25 600.364H15.75ZM14.25 603.345C14.25 603.76 14.5858 604.095 15 604.095C15.4142 604.095 15.75 603.76 15.75 603.345H14.25ZM15.75 609.309C15.75 608.895 15.4142 608.559 15 608.559C14.5858 608.559 14.25 608.895 14.25 609.309H15.75ZM14.25 612.291C14.25 612.705 14.5858 613.041 15 613.041C15.4142 613.041 15.75 612.705 15.75 612.291H14.25ZM15.75 618.255C15.75 617.84 15.4142 617.505 15 617.505C14.5858 617.505 14.25 617.84 14.25 618.255H15.75ZM14.25 621.236C14.25 621.651 14.5858 621.986 15 621.986C15.4142 621.986 15.75 621.651 15.75 621.236H14.25ZM15.75 627.2C15.75 626.786 15.4142 626.45 15 626.45C14.5858 626.45 14.25 626.786 14.25 627.2H15.75ZM14.25 630.182C14.25 630.596 14.5858 630.932 15 630.932C15.4142 630.932 15.75 630.596 15.75 630.182H14.25ZM15.75 636.145C15.75 635.731 15.4142 635.395 15 635.395C14.5858 635.395 14.25 635.731 14.25 636.145H15.75ZM14.25 639.127C14.25 639.541 14.5858 639.877 15 639.877C15.4142 639.877 15.75 639.541 15.75 639.127H14.25ZM15.75 645.091C15.75 644.677 15.4142 644.341 15 644.341C14.5858 644.341 14.25 644.677 14.25 645.091H15.75ZM14.25 648.073C14.25 648.487 14.5858 648.823 15 648.823C15.4142 648.823 15.75 648.487 15.75 648.073H14.25ZM15.75 654.036C15.75 653.622 15.4142 653.286 15 653.286C14.5858 653.286 14.25 653.622 14.25 654.036H15.75ZM14.25 657.018C14.25 657.432 14.5858 657.768 15 657.768C15.4142 657.768 15.75 657.432 15.75 657.018H14.25ZM15.75 662.982C15.75 662.568 15.4142 662.232 15 662.232C14.5858 662.232 14.25 662.568 14.25 662.982H15.75ZM14.25 665.964C14.25 666.378 14.5858 666.714 15 666.714C15.4142 666.714 15.75 666.378 15.75 665.964H14.25ZM15.75 671.927C15.75 671.513 15.4142 671.177 15 671.177C14.5858 671.177 14.25 671.513 14.25 671.927H15.75ZM14.25 674.909C14.25 675.323 14.5858 675.659 15 675.659C15.4142 675.659 15.75 675.323 15.75 674.909H14.25ZM15.75 680.873C15.75 680.458 15.4142 680.123 15 680.123C14.5858 680.123 14.25 680.458 14.25 680.873H15.75ZM14.25 683.854C14.25 684.269 14.5858 684.604 15 684.604C15.4142 684.604 15.75 684.269 15.75 683.854H14.25ZM15.75 689.818C15.75 689.404 15.4142 689.068 15 689.068C14.5858 689.068 14.25 689.404 14.25 689.818H15.75ZM14.25 692.8C14.25 693.214 14.5858 693.55 15 693.55C15.4142 693.55 15.75 693.214 15.75 692.8H14.25ZM15.75 698.764C15.75 698.349 15.4142 698.014 15 698.014C14.5858 698.014 14.25 698.349 14.25 698.764H15.75ZM14.25 701.745C14.25 702.16 14.5858 702.495 15 702.495C15.4142 702.495 15.75 702.16 15.75 701.745H14.25ZM15.75 707.709C15.75 707.295 15.4142 706.959 15 706.959C14.5858 706.959 14.25 707.295 14.25 707.709H15.75ZM14.25 710.691C14.25 711.105 14.5858 711.441 15 711.441C15.4142 711.441 15.75 711.105 15.75 710.691H14.25ZM15.75 716.654C15.75 716.24 15.4142 715.904 15 715.904C14.5858 715.904 14.25 716.24 14.25 716.654H15.75ZM14.25 719.636C14.25 720.05 14.5858 720.386 15 720.386C15.4142 720.386 15.75 720.05 15.75 719.636H14.25ZM15.75 725.6C15.75 725.186 15.4142 724.85 15 724.85C14.5858 724.85 14.25 725.186 14.25 725.6H15.75ZM14.25 728.582C14.25 728.996 14.5858 729.332 15 729.332C15.4142 729.332 15.75 728.996 15.75 728.582H14.25ZM15.75 734.545C15.75 734.131 15.4142 733.795 15 733.795C14.5858 733.795 14.25 734.131 14.25 734.545H15.75ZM14.25 737.527C14.25 737.941 14.5858 738.277 15 738.277C15.4142 738.277 15.75 737.941 15.75 737.527H14.25ZM15.75 743.491C15.75 743.076 15.4142 742.741 15 742.741C14.5858 742.741 14.25 743.076 14.25 743.491H15.75ZM14.25 746.473C14.25 746.887 14.5858 747.223 15 747.223C15.4142 747.223 15.75 746.887 15.75 746.473H14.25ZM15.75 752.436C15.75 752.022 15.4142 751.686 15 751.686C14.5858 751.686 14.25 752.022 14.25 752.436H15.75ZM14.25 755.418C14.25 755.832 14.5858 756.168 15 756.168C15.4142 756.168 15.75 755.832 15.75 755.418H14.25ZM15.75 761.382C15.75 760.967 15.4142 760.632 15 760.632C14.5858 760.632 14.25 760.967 14.25 761.382H15.75ZM14.25 764.363C14.25 764.778 14.5858 765.113 15 765.113C15.4142 765.113 15.75 764.778 15.75 764.363H14.25ZM15.75 770.327C15.75 769.913 15.4142 769.577 15 769.577C14.5858 769.577 14.25 769.913 14.25 770.327H15.75ZM14.25 773.309C14.25 773.723 14.5858 774.059 15 774.059C15.4142 774.059 15.75 773.723 15.75 773.309H14.25ZM15.75 779.272C15.75 778.858 15.4142 778.522 15 778.522C14.5858 778.522 14.25 778.858 14.25 779.272H15.75ZM14.25 782.254C14.25 782.668 14.5858 783.004 15 783.004C15.4142 783.004 15.75 782.668 15.75 782.254H14.25ZM15.75 788.218C15.75 787.804 15.4142 787.468 15 787.468C14.5858 787.468 14.25 787.804 14.25 788.218H15.75ZM14.25 791.2C14.25 791.614 14.5858 791.95 15 791.95C15.4142 791.95 15.75 791.614 15.75 791.2H14.25ZM15.75 797.163C15.75 796.749 15.4142 796.413 15 796.413C14.5858 796.413 14.25 796.749 14.25 797.163H15.75ZM14.25 800.145C14.25 800.559 14.5858 800.895 15 800.895C15.4142 800.895 15.75 800.559 15.75 800.145H14.25ZM15.75 806.109C15.75 805.695 15.4142 805.359 15 805.359C14.5858 805.359 14.25 805.695 14.25 806.109H15.75ZM14.25 809.091C14.25 809.505 14.5858 809.841 15 809.841C15.4142 809.841 15.75 809.505 15.75 809.091H14.25ZM15.75 815.054C15.75 814.64 15.4142 814.304 15 814.304C14.5858 814.304 14.25 814.64 14.25 815.054H15.75ZM14.25 818.036C14.25 818.45 14.5858 818.786 15 818.786C15.4142 818.786 15.75 818.45 15.75 818.036H14.25ZM15.75 824C15.75 823.585 15.4142 823.25 15 823.25C14.5858 823.25 14.25 823.585 14.25 824H15.75ZM14.25 826.981C14.25 827.396 14.5858 827.731 15 827.731C15.4142 827.731 15.75 827.396 15.75 826.981H14.25ZM15.75 832.945C15.75 832.531 15.4142 832.195 15 832.195C14.5858 832.195 14.25 832.531 14.25 832.945H15.75ZM14.25 835.927C14.25 836.341 14.5858 836.677 15 836.677C15.4142 836.677 15.75 836.341 15.75 835.927H14.25ZM15.75 841.89C15.75 841.476 15.4142 841.14 15 841.14C14.5858 841.14 14.25 841.476 14.25 841.89H15.75ZM14.25 844.872C14.25 845.286 14.5858 845.622 15 845.622C15.4142 845.622 15.75 845.286 15.75 844.872H14.25ZM15.75 850.836C15.75 850.422 15.4142 850.086 15 850.086C14.5858 850.086 14.25 850.422 14.25 850.836H15.75ZM14.25 853.818C14.25 854.232 14.5858 854.568 15 854.568C15.4142 854.568 15.75 854.232 15.75 853.818H14.25ZM15.75 859.781C15.75 859.367 15.4142 859.031 15 859.031C14.5858 859.031 14.25 859.367 14.25 859.781H15.75ZM14.25 862.763C14.25 863.177 14.5858 863.513 15 863.513C15.4142 863.513 15.75 863.177 15.75 862.763H14.25ZM15.75 868.727C15.75 868.313 15.4142 867.977 15 867.977C14.5858 867.977 14.25 868.313 14.25 868.727H15.75ZM14.25 871.709C14.25 872.123 14.5858 872.459 15 872.459C15.4142 872.459 15.75 872.123 15.75 871.709H14.25ZM15.75 877.672C15.75 877.258 15.4142 876.922 15 876.922C14.5858 876.922 14.25 877.258 14.25 877.672H15.75ZM14.25 880.654C14.25 881.068 14.5858 881.404 15 881.404C15.4142 881.404 15.75 881.068 15.75 880.654H14.25ZM15.75 886.618C15.75 886.203 15.4142 885.868 15 885.868C14.5858 885.868 14.25 886.203 14.25 886.618H15.75ZM14.25 889.599C14.25 890.014 14.5858 890.349 15 890.349C15.4142 890.349 15.75 890.014 15.75 889.599H14.25ZM15.75 895.563C15.75 895.149 15.4142 894.813 15 894.813C14.5858 894.813 14.25 895.149 14.25 895.563H15.75ZM14.25 898.545C14.25 898.959 14.5858 899.295 15 899.295C15.4142 899.295 15.75 898.959 15.75 898.545H14.25ZM15.75 904.509C15.75 904.094 15.4142 903.759 15 903.759C14.5858 903.759 14.25 904.094 14.25 904.509H15.75ZM14.25 414V415.491H15.75V414H14.25ZM14.25 421.455V424.436H15.75V421.455H14.25ZM14.25 430.4V433.382H15.75V430.4H14.25ZM14.25 439.345V442.327H15.75V439.345H14.25ZM14.25 448.291V451.273H15.75V448.291H14.25ZM14.25 457.236V460.218H15.75V457.236H14.25ZM14.25 466.182V469.164H15.75V466.182H14.25ZM14.25 475.127V478.109H15.75V475.127H14.25ZM14.25 484.073V487.055H15.75V484.073H14.25ZM14.25 493.018V496H15.75V493.018H14.25ZM14.25 501.964V504.945H15.75V501.964H14.25ZM14.25 510.909V513.891H15.75V510.909H14.25ZM14.25 519.855V522.836H15.75V519.855H14.25ZM14.25 528.8V531.782H15.75V528.8H14.25ZM14.25 537.745V540.727H15.75V537.745H14.25ZM14.25 546.691V549.673H15.75V546.691H14.25ZM14.25 555.636V558.618H15.75V555.636H14.25ZM14.25 564.582V567.564H15.75V564.582H14.25ZM14.25 573.527V576.509H15.75V573.527H14.25ZM14.25 582.473V585.455H15.75V582.473H14.25ZM14.25 591.418V594.4H15.75V591.418H14.25ZM14.25 600.364V603.345H15.75V600.364H14.25ZM14.25 609.309V612.291H15.75V609.309H14.25ZM14.25 618.255V621.236H15.75V618.255H14.25ZM14.25 627.2V630.182H15.75V627.2H14.25ZM14.25 636.145V639.127H15.75V636.145H14.25ZM14.25 645.091V648.073H15.75V645.091H14.25ZM14.25 654.036V657.018H15.75V654.036H14.25ZM14.25 662.982V665.964H15.75V662.982H14.25ZM14.25 671.927V674.909H15.75V671.927H14.25ZM14.25 680.873V683.854H15.75V680.873H14.25ZM14.25 689.818V692.8H15.75V689.818H14.25ZM14.25 698.764V701.745H15.75V698.764H14.25ZM14.25 707.709V710.691H15.75V707.709H14.25ZM14.25 716.654L14.25 719.636H15.75L15.75 716.654H14.25ZM14.25 725.6V728.582H15.75V725.6H14.25ZM14.25 734.545V737.527H15.75V734.545H14.25ZM14.25 743.491V746.473H15.75V743.491H14.25ZM14.25 752.436V755.418H15.75V752.436H14.25ZM14.25 761.382V764.363H15.75V761.382H14.25ZM14.25 770.327V773.309H15.75V770.327H14.25ZM14.25 779.272V782.254H15.75V779.272H14.25ZM14.25 788.218V791.2H15.75V788.218H14.25ZM14.25 797.163V800.145H15.75V797.163H14.25ZM14.25 806.109V809.091H15.75V806.109H14.25ZM14.25 815.054V818.036H15.75V815.054H14.25ZM14.25 824V826.981H15.75V824H14.25ZM14.25 832.945L14.25 835.927H15.75L15.75 832.945H14.25ZM14.25 841.89V844.872H15.75V841.89H14.25ZM14.25 850.836V853.818H15.75V850.836H14.25ZM14.25 859.781L14.25 862.763H15.75L15.75 859.781H14.25ZM14.25 868.727V871.709H15.75V868.727H14.25ZM14.25 877.672V880.654H15.75V877.672H14.25ZM14.25 886.618V889.599H15.75V886.618H14.25ZM14.25 895.563V898.545H15.75V895.563H14.25ZM14.25 904.509V906H15.75V904.509H14.25Z" fill="#FFA362"/>
<path d="M15 948.67L10.6699 953L15 957.33L19.3301 953L15 948.67ZM14.4697 1382.53C14.7626 1382.82 15.2374 1382.82 15.5303 1382.53L20.3033 1377.76C20.5962 1377.46 20.5962 1376.99 20.3033 1376.7C20.0104 1376.4 19.5355 1376.4 19.2426 1376.7L15 1380.94L10.7574 1376.7C10.4645 1376.4 9.98959 1376.4 9.6967 1376.7C9.40381 1376.99 9.40381 1377.46 9.6967 1377.76L14.4697 1382.53ZM14.25 954.49C14.25 954.904 14.5858 955.24 15 955.24C15.4142 955.24 15.75 954.904 15.75 954.49H14.25ZM15.75 960.448C15.75 960.034 15.4142 959.698 15 959.698C14.5858 959.698 14.25 960.034 14.25 960.448H15.75ZM14.25 963.427C14.25 963.841 14.5858 964.177 15 964.177C15.4142 964.177 15.75 963.841 15.75 963.427H14.25ZM15.75 969.385C15.75 968.971 15.4142 968.635 15 968.635C14.5858 968.635 14.25 968.971 14.25 969.385H15.75ZM14.25 972.365C14.25 972.779 14.5858 973.115 15 973.115C15.4142 973.115 15.75 972.779 15.75 972.365H14.25ZM15.75 978.323C15.75 977.909 15.4142 977.573 15 977.573C14.5858 977.573 14.25 977.909 14.25 978.323H15.75ZM14.25 981.302C14.25 981.716 14.5858 982.052 15 982.052C15.4142 982.052 15.75 981.716 15.75 981.302H14.25ZM15.75 987.26C15.75 986.846 15.4142 986.51 15 986.51C14.5858 986.51 14.25 986.846 14.25 987.26H15.75ZM14.25 990.24C14.25 990.654 14.5858 990.99 15 990.99C15.4142 990.99 15.75 990.654 15.75 990.24H14.25ZM15.75 996.198C15.75 995.784 15.4142 995.448 15 995.448C14.5858 995.448 14.25 995.784 14.25 996.198H15.75ZM14.25 999.177C14.25 999.591 14.5858 999.927 15 999.927C15.4142 999.927 15.75 999.591 15.75 999.177H14.25ZM15.75 1005.14C15.75 1004.72 15.4142 1004.39 15 1004.39C14.5858 1004.39 14.25 1004.72 14.25 1005.14H15.75ZM14.25 1008.11C14.25 1008.53 14.5858 1008.86 15 1008.86C15.4142 1008.86 15.75 1008.53 15.75 1008.11H14.25ZM15.75 1014.07C15.75 1013.66 15.4142 1013.32 15 1013.32C14.5858 1013.32 14.25 1013.66 14.25 1014.07H15.75ZM14.25 1017.05C14.25 1017.47 14.5858 1017.8 15 1017.8C15.4142 1017.8 15.75 1017.47 15.75 1017.05H14.25ZM15.75 1023.01C15.75 1022.6 15.4142 1022.26 15 1022.26C14.5858 1022.26 14.25 1022.6 14.25 1023.01H15.75ZM14.25 1025.99C14.25 1026.4 14.5858 1026.74 15 1026.74C15.4142 1026.74 15.75 1026.4 15.75 1025.99H14.25ZM15.75 1031.95C15.75 1031.53 15.4142 1031.2 15 1031.2C14.5858 1031.2 14.25 1031.53 14.25 1031.95H15.75ZM14.25 1034.93C14.25 1035.34 14.5858 1035.68 15 1035.68C15.4142 1035.68 15.75 1035.34 15.75 1034.93H14.25ZM15.75 1040.89C15.75 1040.47 15.4142 1040.14 15 1040.14C14.5858 1040.14 14.25 1040.47 14.25 1040.89H15.75ZM14.25 1043.86C14.25 1044.28 14.5858 1044.61 15 1044.61C15.4142 1044.61 15.75 1044.28 15.75 1043.86H14.25ZM15.75 1049.82C15.75 1049.41 15.4142 1049.07 15 1049.07C14.5858 1049.07 14.25 1049.41 14.25 1049.82H15.75ZM14.25 1052.8C14.25 1053.22 14.5858 1053.55 15 1053.55C15.4142 1053.55 15.75 1053.22 15.75 1052.8H14.25ZM15.75 1058.76C15.75 1058.35 15.4142 1058.01 15 1058.01C14.5858 1058.01 14.25 1058.35 14.25 1058.76H15.75ZM14.25 1061.74C14.25 1062.15 14.5858 1062.49 15 1062.49C15.4142 1062.49 15.75 1062.15 15.75 1061.74H14.25ZM15.75 1067.7C15.75 1067.28 15.4142 1066.95 15 1066.95C14.5858 1066.95 14.25 1067.28 14.25 1067.7H15.75ZM14.25 1070.68C14.25 1071.09 14.5858 1071.43 15 1071.43C15.4142 1071.43 15.75 1071.09 15.75 1070.68H14.25ZM15.75 1076.64C15.75 1076.22 15.4142 1075.89 15 1075.89C14.5858 1075.89 14.25 1076.22 14.25 1076.64H15.75ZM14.25 1079.61C14.25 1080.03 14.5858 1080.36 15 1080.36C15.4142 1080.36 15.75 1080.03 15.75 1079.61H14.25ZM15.75 1085.57C15.75 1085.16 15.4142 1084.82 15 1084.82C14.5858 1084.82 14.25 1085.16 14.25 1085.57H15.75ZM14.25 1088.55C14.25 1088.97 14.5858 1089.3 15 1089.3C15.4142 1089.3 15.75 1088.97 15.75 1088.55H14.25ZM15.75 1094.51C15.75 1094.1 15.4142 1093.76 15 1093.76C14.5858 1093.76 14.25 1094.1 14.25 1094.51H15.75ZM14.25 1097.49C14.25 1097.9 14.5858 1098.24 15 1098.24C15.4142 1098.24 15.75 1097.9 15.75 1097.49H14.25ZM15.75 1103.45C15.75 1103.03 15.4142 1102.7 15 1102.7C14.5858 1102.7 14.25 1103.03 14.25 1103.45H15.75ZM14.25 1106.43C14.25 1106.84 14.5858 1107.18 15 1107.18C15.4142 1107.18 15.75 1106.84 15.75 1106.43H14.25ZM15.75 1112.39C15.75 1111.97 15.4142 1111.64 15 1111.64C14.5858 1111.64 14.25 1111.97 14.25 1112.39H15.75ZM14.25 1115.36C14.25 1115.78 14.5858 1116.11 15 1116.11C15.4142 1116.11 15.75 1115.78 15.75 1115.36H14.25ZM15.75 1121.32C15.75 1120.91 15.4142 1120.57 15 1120.57C14.5858 1120.57 14.25 1120.91 14.25 1121.32H15.75ZM14.25 1124.3C14.25 1124.72 14.5858 1125.05 15 1125.05C15.4142 1125.05 15.75 1124.72 15.75 1124.3H14.25ZM15.75 1130.26C15.75 1129.85 15.4142 1129.51 15 1129.51C14.5858 1129.51 14.25 1129.85 14.25 1130.26H15.75ZM14.25 1133.24C14.25 1133.65 14.5858 1133.99 15 1133.99C15.4142 1133.99 15.75 1133.65 15.75 1133.24H14.25ZM15.75 1139.2C15.75 1138.78 15.4142 1138.45 15 1138.45C14.5858 1138.45 14.25 1138.78 14.25 1139.2H15.75ZM14.25 1142.18C14.25 1142.59 14.5858 1142.93 15 1142.93C15.4142 1142.93 15.75 1142.59 15.75 1142.18H14.25ZM15.75 1148.14C15.75 1147.72 15.4142 1147.39 15 1147.39C14.5858 1147.39 14.25 1147.72 14.25 1148.14H15.75ZM14.25 1151.11C14.25 1151.53 14.5858 1151.86 15 1151.86C15.4142 1151.86 15.75 1151.53 15.75 1151.11H14.25ZM15.75 1157.07C15.75 1156.66 15.4142 1156.32 15 1156.32C14.5858 1156.32 14.25 1156.66 14.25 1157.07H15.75ZM14.25 1160.05C14.25 1160.47 14.5858 1160.8 15 1160.8C15.4142 1160.8 15.75 1160.47 15.75 1160.05H14.25ZM15.75 1166.01C15.75 1165.6 15.4142 1165.26 15 1165.26C14.5858 1165.26 14.25 1165.6 14.25 1166.01H15.75ZM14.25 1168.99C14.25 1169.4 14.5858 1169.74 15 1169.74C15.4142 1169.74 15.75 1169.4 15.75 1168.99H14.25ZM15.75 1174.95C15.75 1174.53 15.4142 1174.2 15 1174.2C14.5858 1174.2 14.25 1174.53 14.25 1174.95H15.75ZM14.25 1177.93C14.25 1178.34 14.5858 1178.68 15 1178.68C15.4142 1178.68 15.75 1178.34 15.75 1177.93H14.25ZM15.75 1183.89C15.75 1183.47 15.4142 1183.14 15 1183.14C14.5858 1183.14 14.25 1183.47 14.25 1183.89H15.75ZM14.25 1186.86C14.25 1187.28 14.5858 1187.61 15 1187.61C15.4142 1187.61 15.75 1187.28 15.75 1186.86H14.25ZM15.75 1192.82C15.75 1192.41 15.4142 1192.07 15 1192.07C14.5858 1192.07 14.25 1192.41 14.25 1192.82H15.75ZM14.25 1195.8C14.25 1196.22 14.5858 1196.55 15 1196.55C15.4142 1196.55 15.75 1196.22 15.75 1195.8H14.25ZM15.75 1201.76C15.75 1201.35 15.4142 1201.01 15 1201.01C14.5858 1201.01 14.25 1201.35 14.25 1201.76H15.75ZM14.25 1204.74C14.25 1205.15 14.5858 1205.49 15 1205.49C15.4142 1205.49 15.75 1205.15 15.75 1204.74H14.25ZM15.75 1210.7C15.75 1210.28 15.4142 1209.95 15 1209.95C14.5858 1209.95 14.25 1210.28 14.25 1210.7H15.75ZM14.25 1213.68C14.25 1214.09 14.5858 1214.43 15 1214.43C15.4142 1214.43 15.75 1214.09 15.75 1213.68H14.25ZM15.75 1219.64C15.75 1219.22 15.4142 1218.89 15 1218.89C14.5858 1218.89 14.25 1219.22 14.25 1219.64H15.75ZM14.25 1222.61C14.25 1223.03 14.5858 1223.36 15 1223.36C15.4142 1223.36 15.75 1223.03 15.75 1222.61H14.25ZM15.75 1228.57C15.75 1228.16 15.4142 1227.82 15 1227.82C14.5858 1227.82 14.25 1228.16 14.25 1228.57H15.75ZM14.25 1231.55C14.25 1231.97 14.5858 1232.3 15 1232.3C15.4142 1232.3 15.75 1231.97 15.75 1231.55H14.25ZM15.75 1237.51C15.75 1237.1 15.4142 1236.76 15 1236.76C14.5858 1236.76 14.25 1237.1 14.25 1237.51H15.75ZM14.25 1240.49C14.25 1240.9 14.5858 1241.24 15 1241.24C15.4142 1241.24 15.75 1240.9 15.75 1240.49H14.25ZM15.75 1246.45C15.75 1246.03 15.4142 1245.7 15 1245.7C14.5858 1245.7 14.25 1246.03 14.25 1246.45H15.75ZM14.25 1249.43C14.25 1249.84 14.5858 1250.18 15 1250.18C15.4142 1250.18 15.75 1249.84 15.75 1249.43H14.25ZM15.75 1255.39C15.75 1254.97 15.4142 1254.64 15 1254.64C14.5858 1254.64 14.25 1254.97 14.25 1255.39H15.75ZM14.25 1258.36C14.25 1258.78 14.5858 1259.11 15 1259.11C15.4142 1259.11 15.75 1258.78 15.75 1258.36H14.25ZM15.75 1264.32C15.75 1263.91 15.4142 1263.57 15 1263.57C14.5858 1263.57 14.25 1263.91 14.25 1264.32H15.75ZM14.25 1267.3C14.25 1267.72 14.5858 1268.05 15 1268.05C15.4142 1268.05 15.75 1267.72 15.75 1267.3H14.25ZM15.75 1273.26C15.75 1272.85 15.4142 1272.51 15 1272.51C14.5858 1272.51 14.25 1272.85 14.25 1273.26H15.75ZM14.25 1276.24C14.25 1276.65 14.5858 1276.99 15 1276.99C15.4142 1276.99 15.75 1276.65 15.75 1276.24H14.25ZM15.75 1282.2C15.75 1281.78 15.4142 1281.45 15 1281.45C14.5858 1281.45 14.25 1281.78 14.25 1282.2H15.75ZM14.25 1285.18C14.25 1285.59 14.5858 1285.93 15 1285.93C15.4142 1285.93 15.75 1285.59 15.75 1285.18H14.25ZM15.75 1291.14C15.75 1290.72 15.4142 1290.39 15 1290.39C14.5858 1290.39 14.25 1290.72 14.25 1291.14H15.75ZM14.25 1294.11C14.25 1294.53 14.5858 1294.86 15 1294.86C15.4142 1294.86 15.75 1294.53 15.75 1294.11H14.25ZM15.75 1300.07C15.75 1299.66 15.4142 1299.32 15 1299.32C14.5858 1299.32 14.25 1299.66 14.25 1300.07H15.75ZM14.25 1303.05C14.25 1303.47 14.5858 1303.8 15 1303.8C15.4142 1303.8 15.75 1303.47 15.75 1303.05H14.25ZM15.75 1309.01C15.75 1308.6 15.4142 1308.26 15 1308.26C14.5858 1308.26 14.25 1308.6 14.25 1309.01H15.75ZM14.25 1311.99C14.25 1312.4 14.5858 1312.74 15 1312.74C15.4142 1312.74 15.75 1312.4 15.75 1311.99H14.25ZM15.75 1317.95C15.75 1317.53 15.4142 1317.2 15 1317.2C14.5858 1317.2 14.25 1317.53 14.25 1317.95H15.75ZM14.25 1320.93C14.25 1321.34 14.5858 1321.68 15 1321.68C15.4142 1321.68 15.75 1321.34 15.75 1320.93H14.25ZM15.75 1326.89C15.75 1326.47 15.4142 1326.14 15 1326.14C14.5858 1326.14 14.25 1326.47 14.25 1326.89H15.75ZM14.25 1329.86C14.25 1330.28 14.5858 1330.61 15 1330.61C15.4142 1330.61 15.75 1330.28 15.75 1329.86H14.25ZM15.75 1335.82C15.75 1335.41 15.4142 1335.07 15 1335.07C14.5858 1335.07 14.25 1335.41 14.25 1335.82H15.75ZM14.25 1338.8C14.25 1339.22 14.5858 1339.55 15 1339.55C15.4142 1339.55 15.75 1339.22 15.75 1338.8H14.25ZM15.75 1344.76C15.75 1344.35 15.4142 1344.01 15 1344.01C14.5858 1344.01 14.25 1344.35 14.25 1344.76H15.75ZM14.25 1347.74C14.25 1348.15 14.5858 1348.49 15 1348.49C15.4142 1348.49 15.75 1348.15 15.75 1347.74H14.25ZM15.75 1353.7C15.75 1353.28 15.4142 1352.95 15 1352.95C14.5858 1352.95 14.25 1353.28 14.25 1353.7H15.75ZM14.25 1356.68C14.25 1357.09 14.5858 1357.43 15 1357.43C15.4142 1357.43 15.75 1357.09 15.75 1356.68H14.25ZM15.75 1362.64C15.75 1362.22 15.4142 1361.89 15 1361.89C14.5858 1361.89 14.25 1362.22 14.25 1362.64H15.75ZM14.25 1365.61C14.25 1366.03 14.5858 1366.36 15 1366.36C15.4142 1366.36 15.75 1366.03 15.75 1365.61H14.25ZM15.75 1371.57C15.75 1371.16 15.4142 1370.82 15 1370.82C14.5858 1370.82 14.25 1371.16 14.25 1371.57H15.75ZM14.25 1374.55C14.25 1374.97 14.5858 1375.3 15 1375.3C15.4142 1375.3 15.75 1374.97 15.75 1374.55H14.25ZM15.75 1380.51C15.75 1380.1 15.4142 1379.76 15 1379.76C14.5858 1379.76 14.25 1380.1 14.25 1380.51H15.75ZM14.25 953V954.49H15.75V953H14.25ZM14.25 960.448V963.427H15.75V960.448H14.25ZM14.25 969.385V972.365H15.75V969.385H14.25ZM14.25 978.323V981.302H15.75V978.323H14.25ZM14.25 987.26V990.24H15.75V987.26H14.25ZM14.25 996.198V999.177H15.75V996.198H14.25ZM14.25 1005.14V1008.11H15.75V1005.14H14.25ZM14.25 1014.07V1017.05H15.75V1014.07H14.25ZM14.25 1023.01V1025.99H15.75V1023.01H14.25ZM14.25 1031.95V1034.93H15.75V1031.95H14.25ZM14.25 1040.89V1043.86H15.75V1040.89H14.25ZM14.25 1049.82V1052.8H15.75V1049.82H14.25ZM14.25 1058.76V1061.74H15.75V1058.76H14.25ZM14.25 1067.7V1070.68H15.75V1067.7H14.25ZM14.25 1076.64V1079.61H15.75V1076.64H14.25ZM14.25 1085.57V1088.55H15.75V1085.57H14.25ZM14.25 1094.51V1097.49H15.75V1094.51H14.25ZM14.25 1103.45V1106.43H15.75V1103.45H14.25ZM14.25 1112.39V1115.36H15.75V1112.39H14.25ZM14.25 1121.32V1124.3H15.75V1121.32H14.25ZM14.25 1130.26V1133.24H15.75V1130.26H14.25ZM14.25 1139.2V1142.18H15.75V1139.2H14.25ZM14.25 1148.14V1151.11H15.75V1148.14H14.25ZM14.25 1157.07V1160.05H15.75V1157.07H14.25ZM14.25 1166.01V1168.99H15.75V1166.01H14.25ZM14.25 1174.95V1177.93H15.75V1174.95H14.25ZM14.25 1183.89V1186.86H15.75V1183.89H14.25ZM14.25 1192.82V1195.8H15.75V1192.82H14.25ZM14.25 1201.76V1204.74H15.75V1201.76H14.25ZM14.25 1210.7V1213.68H15.75V1210.7H14.25ZM14.25 1219.64V1222.61H15.75V1219.64H14.25ZM14.25 1228.57V1231.55H15.75V1228.57H14.25ZM14.25 1237.51V1240.49H15.75V1237.51H14.25ZM14.25 1246.45V1249.43H15.75V1246.45H14.25ZM14.25 1255.39V1258.36H15.75V1255.39H14.25ZM14.25 1264.32V1267.3H15.75V1264.32H14.25ZM14.25 1273.26V1276.24H15.75V1273.26H14.25ZM14.25 1282.2V1285.18H15.75V1282.2H14.25ZM14.25 1291.14V1294.11H15.75V1291.14H14.25ZM14.25 1300.07V1303.05H15.75V1300.07H14.25ZM14.25 1309.01V1311.99H15.75V1309.01H14.25ZM14.25 1317.95V1320.93H15.75V1317.95H14.25ZM14.25 1326.89V1329.86H15.75V1326.89H14.25ZM14.25 1335.82V1338.8H15.75V1335.82H14.25ZM14.25 1344.76V1347.74H15.75V1344.76H14.25ZM14.25 1353.7V1356.68H15.75V1353.7H14.25ZM14.25 1362.64V1365.61H15.75V1362.64H14.25ZM14.25 1371.57V1374.55H15.75V1371.57H14.25ZM14.25 1380.51V1382H15.75V1380.51H14.25Z" fill="#FFA362"/>
</svg>
