<svg width="375" height="602" viewBox="0 0 375 602" fill="none" xmlns="http://www.w3.org/2000/svg">
<path d="M-398.736 36.5169C-289.429 -29.9975 -228.236 72.4067 -70.1179 36.5169C88 0.626967 95.9595 65.7949 258.5 36.5169C421.041 7.23878 473.405 63.5206 600.338 36.5169C727.27 9.51315 806.429 -29.9975 915.736 36.5169C1093.42 144.641 1093.42 456.804 915.736 564.927C806.429 631.442 821.946 516.791 587.118 564.927C352.29 613.064 303.324 579.739 258.5 564.927C213.676 550.115 80.8784 536.045 -70.1179 564.927C-221.114 593.81 -289.429 631.442 -398.736 564.927C-576.421 456.804 -576.421 144.641 -398.736 36.5169Z" fill="#F9FBFC"/>
</svg>
